<svg width="28" height="20" viewBox="0 0 28 20" fill="none" xmlns="http://www.w3.org/2000/svg">
<g clip-path="url(#clip0_737_7484)">
<path d="M0 0H28V20H0V0Z" fill="#74ACDF"/>
<path d="M0 6.66666H28V13.3333H0V6.66666Z" fill="white"/>
<path d="M13.8672 10.052L15.0642 12.532C15.0642 12.532 15.0852 12.58 15.1188 12.568C15.1524 12.552 15.1314 12.508 15.1314 12.508L14.136 9.948M14.1066 10.912C14.0898 11.288 14.3334 11.496 14.304 11.832C14.2704 12.172 14.4636 12.36 14.514 12.492C14.556 12.624 14.4594 12.7 14.5014 12.72C14.5434 12.74 14.6274 12.636 14.6022 12.448C14.5728 12.264 14.4258 12.208 14.4594 11.796C14.493 11.384 14.283 11.288 14.3334 10.916" fill="#F6B40E"/>
<path d="M13.8672 10.052L15.0642 12.532C15.0642 12.532 15.0852 12.58 15.1188 12.568C15.1524 12.552 15.1314 12.508 15.1314 12.508L14.136 9.948M14.1066 10.912C14.0898 11.288 14.3334 11.496 14.304 11.832C14.2704 12.172 14.4636 12.36 14.514 12.492C14.556 12.624 14.4594 12.7 14.5014 12.72C14.5434 12.74 14.6274 12.636 14.6022 12.448C14.5728 12.264 14.4258 12.208 14.4594 11.796C14.493 11.384 14.283 11.288 14.3334 10.916" stroke="#85340A" stroke-width="0.132"/>
<path d="M13.8566 9.99907L13.966 12.7265C13.966 12.7265 13.9661 12.7785 14.002 12.7797C14.0395 12.7772 14.0378 12.7289 14.0378 12.7289L14.1468 10.001M13.7323 10.8809C13.5657 11.2221 13.7071 11.5031 13.545 11.8028C13.3773 12.1046 13.4803 12.3487 13.4738 12.4891C13.4595 12.6263 13.3398 12.6613 13.3705 12.6951C13.4013 12.7289 13.5207 12.6634 13.5729 12.4806C13.6197 12.2999 13.5064 12.1945 13.703 11.8261C13.8996 11.4578 13.7442 11.2925 13.9402 10.9672" fill="#F6B40E"/>
<path d="M13.8566 9.99907L13.966 12.7265C13.966 12.7265 13.9661 12.7785 14.002 12.7797C14.0395 12.7772 14.0378 12.7289 14.0378 12.7289L14.1468 10.001M13.7323 10.8809C13.5657 11.2221 13.7071 11.5031 13.545 11.8028C13.3773 12.1046 13.4803 12.3487 13.4738 12.4891C13.4595 12.6263 13.3398 12.6613 13.3705 12.6951C13.4013 12.7289 13.5207 12.6634 13.5729 12.4806C13.6197 12.2999 13.5064 12.1945 13.703 11.8261C13.8996 11.4578 13.7442 11.2925 13.9402 10.9672" stroke="#85340A" stroke-width="0.132"/>
<path d="M13.8681 9.94625L12.8732 12.506C12.8732 12.506 12.8524 12.5541 12.8851 12.5682C12.9207 12.5795 12.9385 12.5343 12.9385 12.5343L14.1354 10.0537M13.3989 10.7156C13.1078 10.9701 13.1256 11.2813 12.8554 11.4991C12.5792 11.7168 12.5762 11.9799 12.5138 12.1072C12.4455 12.2288 12.3208 12.2175 12.3357 12.2599C12.3505 12.3023 12.4871 12.2854 12.6089 12.1355C12.7247 11.9855 12.6623 11.847 12.992 11.5783C13.3216 11.3096 13.2444 11.1002 13.5563 10.8711" fill="#F6B40E"/>
<path d="M13.8681 9.94625L12.8732 12.506C12.8732 12.506 12.8524 12.5541 12.8851 12.5682C12.9207 12.5795 12.9385 12.5343 12.9385 12.5343L14.1354 10.0537M13.3989 10.7156C13.1078 10.9701 13.1256 11.2813 12.8554 11.4991C12.5792 11.7168 12.5762 11.9799 12.5138 12.1072C12.4455 12.2288 12.3208 12.2175 12.3357 12.2599C12.3505 12.3023 12.4871 12.2854 12.6089 12.1355C12.7247 11.9855 12.6623 11.847 12.992 11.5783C13.3216 11.3096 13.2444 11.1002 13.5563 10.8711" stroke="#85340A" stroke-width="0.132"/>
<path d="M13.8991 9.90165L11.9514 11.9039C11.9514 11.9039 11.9129 11.9408 11.9374 11.9657C11.9658 11.9892 12.0004 11.9539 12.0004 11.9539L14.1029 10.0984M13.1565 10.4414C12.7853 10.5705 12.6767 10.8644 12.3395 10.9672C11.9969 11.0677 11.8884 11.3096 11.7797 11.4045C11.6677 11.492 11.557 11.4361 11.5537 11.4807C11.5503 11.5253 11.6834 11.5594 11.8561 11.4653C12.0233 11.369 12.0214 11.2182 12.4339 11.0901C12.8465 10.962 12.8592 10.7405 13.2394 10.6425" fill="#F6B40E"/>
<path d="M13.8991 9.90165L11.9514 11.9039C11.9514 11.9039 11.9129 11.9408 11.9374 11.9657C11.9658 11.9892 12.0004 11.9539 12.0004 11.9539L14.1029 10.0984M13.1565 10.4414C12.7853 10.5705 12.6767 10.8644 12.3395 10.9672C11.9969 11.0677 11.8884 11.3096 11.7797 11.4045C11.6677 11.492 11.557 11.4361 11.5537 11.4807C11.5503 11.5253 11.6834 11.5594 11.8561 11.4653C12.0233 11.369 12.0214 11.2182 12.4339 11.0901C12.8465 10.962 12.8592 10.7405 13.2394 10.6425" stroke="#85340A" stroke-width="0.132"/>
<path d="M14.1814 10.976C14.2024 11.336 14.4166 11.496 14.3746 11.828C14.467 11.568 14.2444 11.364 14.257 10.98M13.9336 10.028L14.7526 11.732L14.068 9.97601" fill="#85340A"/>
<path d="M13.7763 10.9675C13.6511 11.3078 13.7847 11.5337 13.6125 11.8251C13.8023 11.6186 13.6786 11.349 13.8446 10.9988M13.9283 10.0014L14.0003 11.8742L14.0734 10.0023" fill="#85340A"/>
<path d="M13.4054 10.8118C13.153 11.0805 13.1856 11.3378 12.9094 11.5443C13.1678 11.4227 13.1619 11.1285 13.4559 10.8655M13.934 9.97454L13.248 11.731L14.0677 10.0283" fill="#85340A"/>
<path d="M13.1248 10.5324C12.7836 10.6887 12.7103 10.9384 12.3722 11.0285C12.6598 11.0103 12.7725 10.7363 13.1498 10.6005M13.9496 9.9516L12.61 11.3243L14.0514 10.05" fill="#85340A"/>
<path d="M13.9455 9.87201L11.3415 11.012C11.3415 11.012 11.2911 11.032 11.3037 11.064C11.3205 11.096 11.3667 11.076 11.3667 11.076L14.0547 10.128M13.0425 10.1C12.6477 10.084 12.4293 10.316 12.0765 10.288C11.7195 10.256 11.5221 10.44 11.3835 10.488C11.2449 10.528 11.1651 10.436 11.1441 10.476C11.1231 10.516 11.2323 10.596 11.4297 10.572C11.6229 10.544 11.6817 10.404 12.1143 10.436C12.5469 10.468 12.6477 10.268 13.0383 10.316" fill="#F6B40E"/>
<path d="M13.9455 9.87201L11.3415 11.012C11.3415 11.012 11.2911 11.032 11.3037 11.064C11.3205 11.096 11.3667 11.076 11.3667 11.076L14.0547 10.128M13.0425 10.1C12.6477 10.084 12.4293 10.316 12.0765 10.288C11.7195 10.256 11.5221 10.44 11.3835 10.488C11.2449 10.528 11.1651 10.436 11.1441 10.476C11.1231 10.516 11.2323 10.596 11.4297 10.572C11.6229 10.544 11.6817 10.404 12.1143 10.436C12.5469 10.468 12.6477 10.268 13.0383 10.316" stroke="#85340A" stroke-width="0.132"/>
<path d="M14.0007 9.86184L11.1368 9.96601C11.1368 9.96601 11.0822 9.96612 11.081 10.0003C11.0837 10.036 11.1344 10.0343 11.1344 10.0343L13.9987 10.1382M13.0748 9.74338C12.7165 9.58471 12.4215 9.71945 12.1068 9.565C11.7898 9.40532 11.5335 9.50337 11.3862 9.49721C11.2421 9.48365 11.2053 9.36957 11.1698 9.39887C11.1343 9.42817 11.2031 9.54188 11.3951 9.59165C11.5849 9.63619 11.6954 9.52828 12.0822 9.71551C12.4691 9.90274 12.6425 9.7547 12.9841 9.94141" fill="#F6B40E"/>
<path d="M14.0007 9.86184L11.1368 9.96601C11.1368 9.96601 11.0822 9.96612 11.081 10.0003C11.0837 10.036 11.1344 10.0343 11.1344 10.0343L13.9987 10.1382M13.0748 9.74338C12.7165 9.58471 12.4215 9.71945 12.1068 9.565C11.7898 9.40532 11.5335 9.50337 11.3862 9.49721C11.2421 9.48365 11.2053 9.36957 11.1698 9.39887C11.1343 9.42817 11.2031 9.54188 11.3951 9.59165C11.5849 9.63619 11.6954 9.52828 12.0822 9.71551C12.4691 9.90274 12.6425 9.7547 12.9841 9.94141" stroke="#85340A" stroke-width="0.132"/>
<path d="M14.0556 9.87272L11.3679 8.9252C11.3679 8.9252 11.3174 8.9054 11.3025 8.93651C11.2907 8.97045 11.3382 8.98742 11.3382 8.98742L13.9427 10.1273M13.2478 9.42583C12.9805 9.14864 12.6538 9.16561 12.4251 8.90823C12.1965 8.64518 11.9203 8.64235 11.7866 8.58296C11.6589 8.5179 11.6708 8.39911 11.6263 8.41325C11.5817 8.42739 11.5995 8.5575 11.7569 8.67347C11.9143 8.78377 12.0599 8.72438 12.342 9.03833C12.6241 9.35229 12.8439 9.27875 13.0845 9.57573" fill="#F6B40E"/>
<path d="M14.0556 9.87272L11.3679 8.9252C11.3679 8.9252 11.3174 8.9054 11.3025 8.93651C11.2907 8.97045 11.3382 8.98742 11.3382 8.98742L13.9427 10.1273M13.2478 9.42583C12.9805 9.14864 12.6538 9.16561 12.4251 8.90823C12.1965 8.64518 11.9203 8.64235 11.7866 8.58296C11.6589 8.5179 11.6708 8.39911 11.6263 8.41325C11.5817 8.42739 11.5995 8.5575 11.7569 8.67347C11.9143 8.78377 12.0599 8.72438 12.342 9.03833C12.6241 9.35229 12.8439 9.27875 13.0845 9.57573" stroke="#85340A" stroke-width="0.132"/>
<path d="M14.1027 9.903L12.0004 8.04804C12.0004 8.04804 11.9617 8.01135 11.9354 8.03468C11.9108 8.06171 11.9479 8.0947 11.9479 8.0947L13.8962 10.0971M13.536 9.19572C13.4004 8.84222 13.0918 8.73883 12.984 8.41769C12.8784 8.09133 12.6243 7.98805 12.5247 7.88447C12.4329 7.77782 12.4916 7.6724 12.4448 7.66923C12.3979 7.66606 12.3621 7.79276 12.4609 7.95726C12.562 8.11654 12.7203 8.1147 12.8549 8.50759C12.9894 8.90047 13.2219 8.91263 13.3249 9.27468" fill="#F6B40E"/>
<path d="M14.1027 9.903L12.0004 8.04804C12.0004 8.04804 11.9617 8.01135 11.9354 8.03468C11.9108 8.06171 11.9479 8.0947 11.9479 8.0947L13.8962 10.0971M13.536 9.19572C13.4004 8.84222 13.0918 8.73883 12.984 8.41769C12.8784 8.09133 12.6243 7.98805 12.5247 7.88447C12.4329 7.77782 12.4916 7.6724 12.4448 7.66923C12.3979 7.66606 12.3621 7.79276 12.4609 7.95726C12.562 8.11654 12.7203 8.1147 12.8549 8.50759C12.9894 8.90047 13.2219 8.91263 13.3249 9.27468" stroke="#85340A" stroke-width="0.132"/>
<path d="M12.9734 10.172C12.5954 10.192 12.4274 10.396 12.0788 10.356C12.3518 10.444 12.566 10.232 12.9692 10.244M13.9688 9.936L12.1796 10.716L14.0234 10.064" fill="#85340A"/>
<path d="M12.982 9.78543C12.6247 9.66614 12.3875 9.79338 12.0815 9.62937C12.2984 9.81017 12.5815 9.69238 12.9492 9.85041M13.9964 9.93017L12.03 9.99871L13.9954 10.0683" fill="#85340A"/>
<path d="M13.1487 9.43151C12.8666 9.19109 12.5963 9.22221 12.3795 8.95916C12.5072 9.20524 12.8161 9.19958 13.0923 9.47959M14.0278 9.93497L12.1835 9.2816L13.9714 10.0623" fill="#85340A"/>
<path d="M13.4396 9.16411C13.2755 8.83917 13.0133 8.76942 12.9187 8.44738C12.9378 8.72127 13.2254 8.82861 13.3681 9.18797M14.0494 9.94964L12.6081 8.67384L13.9461 10.0467" fill="#85340A"/>
<path d="M14.1328 9.948L12.9358 7.468C12.9358 7.468 12.9148 7.42 12.8812 7.432C12.8476 7.448 12.8686 7.492 12.8686 7.492L13.864 10.052M13.8934 9.088C13.9102 8.712 13.6666 8.504 13.696 8.168C13.7296 7.828 13.5364 7.64 13.486 7.508C13.444 7.376 13.5406 7.3 13.4986 7.28C13.4566 7.26 13.3726 7.364 13.3978 7.552C13.4272 7.736 13.5742 7.792 13.5406 8.204C13.507 8.616 13.717 8.712 13.6666 9.084" fill="#F6B40E"/>
<path d="M14.1328 9.948L12.9358 7.468C12.9358 7.468 12.9148 7.42 12.8812 7.432C12.8476 7.448 12.8686 7.492 12.8686 7.492L13.864 10.052M13.8934 9.088C13.9102 8.712 13.6666 8.504 13.696 8.168C13.7296 7.828 13.5364 7.64 13.486 7.508C13.444 7.376 13.5406 7.3 13.4986 7.28C13.4566 7.26 13.3726 7.364 13.3978 7.552C13.4272 7.736 13.5742 7.792 13.5406 8.204C13.507 8.616 13.717 8.712 13.6666 9.084" stroke="#85340A" stroke-width="0.132"/>
<path d="M14.1434 10.0009L14.034 7.27345C14.034 7.27345 14.0339 7.22145 13.998 7.22029C13.9605 7.22283 13.9622 7.27113 13.9622 7.27113L13.8532 9.99905M14.2677 9.11914C14.4343 8.77789 14.2929 8.49694 14.455 8.19723C14.6227 7.89536 14.5197 7.65125 14.5262 7.51093C14.5405 7.37367 14.6602 7.33867 14.6295 7.30488C14.5987 7.2711 14.4793 7.33656 14.4271 7.51944C14.3803 7.70015 14.4936 7.80546 14.297 8.17385C14.1004 8.54225 14.2558 8.70747 14.0598 9.03279" fill="#F6B40E"/>
<path d="M14.1434 10.0009L14.034 7.27345C14.034 7.27345 14.0339 7.22145 13.998 7.22029C13.9605 7.22283 13.9622 7.27113 13.9622 7.27113L13.8532 9.99905M14.2677 9.11914C14.4343 8.77789 14.2929 8.49694 14.455 8.19723C14.6227 7.89536 14.5197 7.65125 14.5262 7.51093C14.5405 7.37367 14.6602 7.33867 14.6295 7.30488C14.5987 7.2711 14.4793 7.33656 14.4271 7.51944C14.3803 7.70015 14.4936 7.80546 14.297 8.17385C14.1004 8.54225 14.2558 8.70747 14.0598 9.03279" stroke="#85340A" stroke-width="0.132"/>
<path d="M14.1319 10.0537L15.1268 7.49402C15.1268 7.49402 15.1476 7.44594 15.1149 7.4318C15.0793 7.42048 15.0615 7.46574 15.0615 7.46574L13.8646 9.94627M14.6011 9.28442C14.8922 9.02986 14.8744 8.71873 15.1446 8.50094C15.4208 8.28315 15.4238 8.02011 15.4862 7.89283C15.5545 7.77121 15.6792 7.78252 15.6643 7.7401C15.6495 7.69767 15.5129 7.71464 15.3911 7.86455C15.2753 8.01445 15.3377 8.15305 15.008 8.42175C14.6784 8.69045 14.7556 8.89975 14.4437 9.12885" fill="#F6B40E"/>
<path d="M14.1319 10.0537L15.1268 7.49402C15.1268 7.49402 15.1476 7.44594 15.1149 7.4318C15.0793 7.42048 15.0615 7.46574 15.0615 7.46574L13.8646 9.94627M14.6011 9.28442C14.8922 9.02986 14.8744 8.71873 15.1446 8.50094C15.4208 8.28315 15.4238 8.02011 15.4862 7.89283C15.5545 7.77121 15.6792 7.78252 15.6643 7.7401C15.6495 7.69767 15.5129 7.71464 15.3911 7.86455C15.2753 8.01445 15.3377 8.15305 15.008 8.42175C14.6784 8.69045 14.7556 8.89975 14.4437 9.12885" stroke="#85340A" stroke-width="0.132"/>
<path d="M14.1009 10.0984L16.0486 8.09608C16.0486 8.09608 16.0871 8.05923 16.0626 8.03426C16.0342 8.01082 15.9996 8.04613 15.9996 8.04613L13.8971 9.90164M14.8435 9.5586C15.2147 9.42949 15.3233 9.13556 15.6605 9.03284C16.0031 8.93229 16.1116 8.69036 16.2203 8.5955C16.3323 8.50803 16.443 8.56394 16.4463 8.51933C16.4497 8.47472 16.3166 8.44061 16.1439 8.53473C15.9767 8.63101 15.9786 8.78178 15.5661 8.90989C15.1535 9.03799 15.1408 9.2595 14.7606 9.35751" fill="#F6B40E"/>
<path d="M14.1009 10.0984L16.0486 8.09608C16.0486 8.09608 16.0871 8.05923 16.0626 8.03426C16.0342 8.01082 15.9996 8.04613 15.9996 8.04613L13.8971 9.90164M14.8435 9.5586C15.2147 9.42949 15.3233 9.13556 15.6605 9.03284C16.0031 8.93229 16.1116 8.69036 16.2203 8.5955C16.3323 8.50803 16.443 8.56394 16.4463 8.51933C16.4497 8.47472 16.3166 8.44061 16.1439 8.53473C15.9767 8.63101 15.9786 8.78178 15.5661 8.90989C15.1535 9.03799 15.1408 9.2595 14.7606 9.35751" stroke="#85340A" stroke-width="0.132"/>
<path d="M13.8186 9.02399C13.7976 8.66399 13.5834 8.50399 13.6254 8.17199C13.533 8.43199 13.7556 8.63599 13.743 9.01999M14.0664 9.97199L13.2474 8.26799L13.932 10.024" fill="#85340A"/>
<path d="M14.2237 9.03247C14.3489 8.69222 14.2153 8.46633 14.3875 8.17491C14.1977 8.38144 14.3214 8.65104 14.1554 9.00122M14.0717 9.99862L13.9997 8.12584L13.9266 9.99768" fill="#85340A"/>
<path d="M14.5946 9.18824C14.847 8.91954 14.8144 8.66215 15.0906 8.45568C14.8322 8.5773 14.8381 8.87146 14.5441 9.1345M14.066 10.0255L14.752 8.269L13.9323 9.97172" fill="#85340A"/>
<path d="M14.8752 9.46758C15.2164 9.31134 15.2897 9.06163 15.6278 8.97154C15.3402 8.98974 15.2275 9.26366 14.8502 9.39953M14.0504 10.0484L15.39 8.67568L13.9486 9.95004" fill="#85340A"/>
<path d="M14.0545 10.128L16.6585 8.98799C16.6585 8.98799 16.7089 8.96799 16.6963 8.93599C16.6795 8.90399 16.6333 8.92399 16.6333 8.92399L13.9453 9.87199M14.9575 9.89999C15.3523 9.91599 15.5707 9.68399 15.9235 9.71199C16.2805 9.74399 16.4779 9.55999 16.6165 9.51199C16.7551 9.47199 16.8349 9.56399 16.8559 9.52399C16.8769 9.48399 16.7677 9.40399 16.5703 9.42799C16.3771 9.45599 16.3183 9.59599 15.8857 9.56399C15.4531 9.53199 15.3523 9.73199 14.9617 9.68399" fill="#F6B40E"/>
<path d="M14.0545 10.128L16.6585 8.98799C16.6585 8.98799 16.7089 8.96799 16.6963 8.93599C16.6795 8.90399 16.6333 8.92399 16.6333 8.92399L13.9453 9.87199M14.9575 9.89999C15.3523 9.91599 15.5707 9.68399 15.9235 9.71199C16.2805 9.74399 16.4779 9.55999 16.6165 9.51199C16.7551 9.47199 16.8349 9.56399 16.8559 9.52399C16.8769 9.48399 16.7677 9.40399 16.5703 9.42799C16.3771 9.45599 16.3183 9.59599 15.8857 9.56399C15.4531 9.53199 15.3523 9.73199 14.9617 9.68399" stroke="#85340A" stroke-width="0.132"/>
<path d="M13.9993 10.1382L16.8632 10.034C16.8632 10.034 16.9178 10.0339 16.919 9.99972C16.9163 9.96404 16.8656 9.96568 16.8656 9.96568L14.0013 9.86184M14.9252 10.2566C15.2835 10.4153 15.5785 10.2805 15.8932 10.435C16.2102 10.5947 16.4665 10.4966 16.6138 10.5028C16.7579 10.5164 16.7947 10.6304 16.8302 10.6011C16.8657 10.5718 16.7969 10.4581 16.6049 10.4084C16.4151 10.3638 16.3046 10.4717 15.9178 10.2845C15.5309 10.0973 15.3575 10.2453 15.0159 10.0586" fill="#F6B40E"/>
<path d="M13.9993 10.1382L16.8632 10.034C16.8632 10.034 16.9178 10.0339 16.919 9.99972C16.9163 9.96404 16.8656 9.96568 16.8656 9.96568L14.0013 9.86184M14.9252 10.2566C15.2835 10.4153 15.5785 10.2805 15.8932 10.435C16.2102 10.5947 16.4665 10.4966 16.6138 10.5028C16.7579 10.5164 16.7947 10.6304 16.8302 10.6011C16.8657 10.5718 16.7969 10.4581 16.6049 10.4084C16.4151 10.3638 16.3046 10.4717 15.9178 10.2845C15.5309 10.0973 15.3575 10.2453 15.0159 10.0586" stroke="#85340A" stroke-width="0.132"/>
<path d="M13.9444 10.1273L16.6321 11.0748C16.6321 11.0748 16.6826 11.0946 16.6975 11.0635C16.7093 11.0295 16.6618 11.0126 16.6618 11.0126L14.0573 9.87272M14.7522 10.5742C15.0195 10.8514 15.3462 10.8344 15.5749 11.0918C15.8035 11.3548 16.0797 11.3576 16.2134 11.417C16.3411 11.4821 16.3292 11.6009 16.3737 11.5867C16.4183 11.5726 16.4005 11.4425 16.2431 11.3265C16.0857 11.2162 15.9401 11.2756 15.658 10.9617C15.3759 10.6477 15.1561 10.7212 14.9155 10.4243" fill="#F6B40E"/>
<path d="M13.9444 10.1273L16.6321 11.0748C16.6321 11.0748 16.6826 11.0946 16.6975 11.0635C16.7093 11.0295 16.6618 11.0126 16.6618 11.0126L14.0573 9.87272M14.7522 10.5742C15.0195 10.8514 15.3462 10.8344 15.5749 11.0918C15.8035 11.3548 16.0797 11.3576 16.2134 11.417C16.3411 11.4821 16.3292 11.6009 16.3737 11.5867C16.4183 11.5726 16.4005 11.4425 16.2431 11.3265C16.0857 11.2162 15.9401 11.2756 15.658 10.9617C15.3759 10.6477 15.1561 10.7212 14.9155 10.4243" stroke="#85340A" stroke-width="0.132"/>
<path d="M13.8973 10.097L15.9996 11.952C15.9996 11.952 16.0383 11.9887 16.0646 11.9653C16.0892 11.9383 16.0521 11.9053 16.0521 11.9053L14.1038 9.90295M14.464 10.8043C14.5996 11.1578 14.9082 11.2612 15.016 11.5823C15.1216 11.9087 15.3757 12.0119 15.4753 12.1155C15.5671 12.2222 15.5084 12.3276 15.5552 12.3308C15.6021 12.3339 15.6379 12.2072 15.5391 12.0427C15.438 11.8835 15.2797 11.8853 15.1451 11.4924C15.0106 11.0995 14.7781 11.0874 14.6751 10.7253" fill="#F6B40E"/>
<path d="M13.8973 10.097L15.9996 11.952C15.9996 11.952 16.0383 11.9887 16.0646 11.9653C16.0892 11.9383 16.0521 11.9053 16.0521 11.9053L14.1038 9.90295M14.464 10.8043C14.5996 11.1578 14.9082 11.2612 15.016 11.5823C15.1216 11.9087 15.3757 12.0119 15.4753 12.1155C15.5671 12.2222 15.5084 12.3276 15.5552 12.3308C15.6021 12.3339 15.6379 12.2072 15.5391 12.0427C15.438 11.8835 15.2797 11.8853 15.1451 11.4924C15.0106 11.0995 14.7781 11.0874 14.6751 10.7253" stroke="#85340A" stroke-width="0.132"/>
<path d="M15.0266 9.828C15.4046 9.808 15.5726 9.604 15.9212 9.644C15.6482 9.556 15.434 9.76799 15.0308 9.75599M14.0312 10.064L15.8204 9.284L13.9766 9.93599" fill="#85340A"/>
<path d="M15.018 10.2146C15.3753 10.3339 15.6125 10.2066 15.9185 10.3706C15.7016 10.1898 15.4185 10.3076 15.0508 10.1496M14.0036 10.0698L15.97 10.0013L14.0046 9.93167" fill="#85340A"/>
<path d="M14.8513 10.5685C15.1334 10.8089 15.4037 10.7778 15.6205 11.0408C15.4928 10.7948 15.1839 10.8004 14.9077 10.5204M13.9722 10.065L15.8165 10.7184L14.0286 9.93775" fill="#85340A"/>
<path d="M14.5604 10.8359C14.7245 11.1608 14.9867 11.2306 15.0813 11.5526C15.0622 11.2787 14.7746 11.1714 14.6319 10.812M13.9506 10.0504L15.3919 11.3262L14.0539 9.95334" fill="#85340A"/>
<path d="M14.0002 11.1125C14.6453 11.1125 15.1683 10.6144 15.1683 10C15.1683 9.3856 14.6453 8.88751 14.0002 8.88751C13.355 8.88751 12.832 9.3856 12.832 10C12.832 10.6144 13.355 11.1125 14.0002 11.1125Z" fill="#F6B40E" stroke="#85340A" stroke-width="0.175"/>
<path d="M14.3966 9.76251C14.3178 9.76251 14.2391 9.79585 14.1953 9.86251C14.2828 9.94168 14.4841 9.94585 14.6197 9.85418C14.591 9.82521 14.5565 9.80213 14.5181 9.78637C14.4797 9.7706 14.4384 9.76248 14.3966 9.76251ZM14.3966 9.77918C14.4709 9.77918 14.5453 9.81251 14.5541 9.84585C14.4666 9.94168 14.3222 9.92918 14.2303 9.86251C14.2479 9.83596 14.2726 9.81429 14.3017 9.79967C14.3309 9.78504 14.3636 9.77798 14.3966 9.77918Z" fill="#843511"/>
<path d="M14.4112 9.70834C14.2931 9.70834 14.2669 9.73751 14.2144 9.77918C14.1619 9.82084 14.1312 9.81251 14.1269 9.82084C14.1137 9.82918 14.1269 9.85418 14.14 9.84584C14.1619 9.83751 14.1969 9.82084 14.2494 9.77918C14.3019 9.73751 14.3587 9.73751 14.4112 9.73751C14.5731 9.73751 14.6606 9.86251 14.6825 9.85418C14.6956 9.84584 14.5906 9.70834 14.4112 9.70834Z" fill="#85340A"/>
<path d="M14.7344 9.7625C14.5288 9.59167 14.2663 9.5625 14.1219 9.69167C14.088 9.73454 14.0655 9.78457 14.0563 9.8375C14.0387 9.93334 14.0694 10.0375 14.1481 10.1458L14.1131 10.1625C14.0444 10.0431 14.0198 9.90518 14.0431 9.77084C14.0489 9.73821 14.0576 9.70614 14.0694 9.675C14.2662 9.52084 14.5375 9.50834 14.7344 9.75834V9.7625Z" fill="#85340A"/>
<path d="M14.3956 9.925C14.4415 9.925 14.4787 9.88955 14.4787 9.84583C14.4787 9.80211 14.4415 9.76666 14.3956 9.76666C14.3497 9.76666 14.3125 9.80211 14.3125 9.84583C14.3125 9.88955 14.3497 9.925 14.3956 9.925Z" fill="#85340A"/>
<path d="M14.625 9.89585C14.4719 10.0083 14.3187 10 14.2312 9.95001C14.1437 9.89585 14.1437 9.87918 14.1612 9.87918C14.1787 9.87918 14.1962 9.89585 14.2662 9.93335C14.3406 9.96668 14.4456 9.96668 14.625 9.89585Z" fill="#85340A"/>
<path d="M13.8256 10.1542C13.8116 10.1555 13.7981 10.1602 13.7865 10.1679C13.775 10.1756 13.7656 10.1859 13.7594 10.198C13.7531 10.21 13.7502 10.2234 13.7509 10.2368C13.7516 10.2502 13.7559 10.2633 13.7633 10.2747C13.7708 10.2861 13.7811 10.2955 13.7935 10.3021C13.8058 10.3086 13.8197 10.3121 13.8338 10.3121C13.8479 10.3121 13.8618 10.3087 13.8741 10.3022C13.8865 10.2958 13.8969 10.2864 13.9044 10.275C13.9332 10.292 13.9667 10.3007 14.0006 10.3H14.0094C14.0448 10.3018 14.08 10.2931 14.11 10.275C14.1181 10.2856 14.1288 10.2941 14.1412 10.2997C14.1535 10.3054 14.1672 10.3081 14.1809 10.3075C14.1946 10.3069 14.208 10.3031 14.2198 10.2964C14.2315 10.2897 14.2414 10.2803 14.2485 10.2691C14.2555 10.2579 14.2596 10.2452 14.2602 10.2321C14.2609 10.2191 14.2581 10.2061 14.2522 10.1943C14.2463 10.1825 14.2374 10.1723 14.2263 10.1645C14.2153 10.1568 14.2023 10.1518 14.1887 10.15C14.2106 10.1625 14.2237 10.1792 14.2237 10.2042C14.2237 10.2292 14.2019 10.2542 14.1712 10.2542C14.1573 10.2542 14.144 10.2489 14.1341 10.2395C14.1243 10.2301 14.1188 10.2174 14.1188 10.2042C14.1084 10.2247 14.0923 10.2422 14.0723 10.2547C14.0522 10.2672 14.0289 10.2742 14.005 10.275C13.9818 10.2735 13.9595 10.2661 13.9403 10.2537C13.921 10.2412 13.9056 10.2241 13.8956 10.2042C13.8957 10.2111 13.8942 10.218 13.8913 10.2243C13.8883 10.2307 13.8841 10.2364 13.8787 10.2411C13.8734 10.2458 13.8671 10.2494 13.8602 10.2516C13.8533 10.2539 13.846 10.2547 13.8387 10.2542C13.8125 10.2542 13.7862 10.2292 13.7862 10.2042C13.7862 10.1792 13.7994 10.1625 13.8212 10.1542H13.8256ZM13.9131 10.3833C13.8212 10.3833 13.7819 10.4583 13.7031 10.5083C13.7469 10.4917 13.7862 10.4583 13.8475 10.425C13.9087 10.3917 13.9656 10.4333 14.0006 10.4333C14.0356 10.4333 14.0881 10.3917 14.1537 10.425C14.215 10.4583 14.2544 10.4917 14.2981 10.5083C14.215 10.4583 14.18 10.3833 14.0881 10.3833C14.0575 10.3863 14.0278 10.3947 14.0006 10.4083C13.9737 10.3933 13.944 10.3834 13.9131 10.3792V10.3833Z" fill="#85340A"/>
<path d="M13.8792 10.4833C13.8442 10.4833 13.8005 10.4917 13.7305 10.5083C13.8923 10.475 13.9273 10.5292 14.0017 10.5292C14.0717 10.5292 14.1067 10.475 14.2686 10.5083C14.0936 10.4583 14.0542 10.4917 14.0017 10.4917C13.9667 10.4917 13.9405 10.4792 13.8792 10.4833Z" fill="#85340A"/>
<path d="M13.7381 10.5083H13.7031C13.8913 10.5292 13.8037 10.6333 14.0006 10.6333C14.1975 10.6333 14.11 10.5292 14.2981 10.5083C14.1012 10.4917 14.1625 10.6042 14.0006 10.6042C13.8475 10.6042 13.8956 10.5083 13.7381 10.5083ZM14.1625 10.7875C14.1625 10.7466 14.1454 10.7074 14.1151 10.6785C14.0847 10.6496 14.0436 10.6333 14.0006 10.6333C13.9577 10.6333 13.9165 10.6496 13.8862 10.6785C13.8558 10.7074 13.8387 10.7466 13.8387 10.7875C13.8473 10.7527 13.8679 10.7217 13.8973 10.6995C13.9267 10.6773 13.9631 10.6653 14.0006 10.6653C14.0381 10.6653 14.0745 10.6773 14.1039 10.6995C14.1333 10.7217 14.154 10.7527 14.1625 10.7875Z" fill="#85340A"/>
<path d="M13.2734 9.7625C13.4791 9.59167 13.7416 9.5625 13.8859 9.69167C13.9198 9.73454 13.9423 9.78457 13.9516 9.8375C13.9691 9.93334 13.9384 10.0375 13.8597 10.1458L13.8947 10.1625C13.9634 10.0431 13.988 9.90518 13.9647 9.77084C13.959 9.73821 13.9502 9.70614 13.9384 9.675C13.7416 9.52084 13.4703 9.50834 13.2734 9.75834V9.7625Z" fill="#85340A"/>
<path d="M13.5966 9.70834C13.7147 9.70834 13.7409 9.73751 13.7934 9.77918C13.8459 9.82084 13.8766 9.81251 13.8809 9.82084C13.8941 9.82918 13.8809 9.85418 13.8678 9.84584C13.8459 9.83751 13.8109 9.82084 13.7584 9.77918C13.7059 9.73751 13.6491 9.73751 13.5966 9.73751C13.4347 9.73751 13.3472 9.86251 13.3253 9.85418C13.3122 9.84584 13.4172 9.70834 13.5966 9.70834Z" fill="#85340A"/>
<path d="M13.5919 9.76251C13.5131 9.76251 13.4344 9.79585 13.3906 9.86251C13.4781 9.94168 13.6794 9.94585 13.815 9.85418C13.7863 9.82521 13.7518 9.80213 13.7134 9.78637C13.675 9.7706 13.6337 9.76248 13.5919 9.76251ZM13.5919 9.77918C13.6663 9.77918 13.7406 9.81251 13.7494 9.84585C13.6619 9.94168 13.5175 9.92918 13.4256 9.86251C13.4432 9.83596 13.4679 9.81429 13.497 9.79967C13.5262 9.78504 13.5589 9.77798 13.5919 9.77918Z" fill="#843511"/>
<path d="M13.6027 9.925C13.6486 9.925 13.6858 9.88955 13.6858 9.84583C13.6858 9.80211 13.6486 9.76666 13.6027 9.76666C13.5567 9.76666 13.5195 9.80211 13.5195 9.84583C13.5195 9.88955 13.5567 9.925 13.6027 9.925Z" fill="#85340A"/>
<path d="M13.3828 9.89585C13.5359 10.0083 13.6891 10 13.7766 9.95001C13.8641 9.89585 13.8641 9.87918 13.8466 9.87918C13.8291 9.87918 13.8116 9.89585 13.7416 9.93335C13.6672 9.96668 13.5622 9.96668 13.3828 9.89585Z" fill="#85340A"/>
</g>
<defs>
<clipPath id="clip0_737_7484">
<rect width="28" height="20" rx="2" fill="white"/>
</clipPath>
</defs>
</svg>
