<svg width="28" height="20" viewBox="0 0 28 20" fill="none" xmlns="http://www.w3.org/2000/svg">
<g clip-path="url(#clip0_737_7539)">
<path d="M0 0H28V20H0V0Z" fill="#000066"/>
<path fill-rule="evenodd" clip-rule="evenodd" d="M13.1161 16.3542L11.2042 16.5125L11.4667 18.3208L10.1498 17L8.83297 18.3208L9.09547 16.5125L7.18359 16.3542L8.83297 15.425L7.76984 13.9042L9.56359 14.55L10.1498 12.8125L10.7405 14.55L12.5342 13.9042L11.4711 15.425M21.2886 18.0208L20.8248 17.3625L21.6036 17.6417L21.8573 16.8875L22.1111 17.6417L22.8898 17.3625L22.4305 18.0208L23.148 18.425L22.3167 18.4958L22.4305 19.2833L21.8617 18.7042L21.2842 19.2833L21.398 18.4958L20.5667 18.4292M21.2842 6.26666L20.8248 5.60833L21.6036 5.8875L21.8573 5.13333L22.1111 5.8875L22.8898 5.60833L22.4305 6.26666L23.148 6.675L22.3167 6.74166L22.4305 7.52916L21.8617 6.95416L21.2842 7.525L21.398 6.74166L20.5667 6.675M16.6598 11.0417L16.2005 10.3833L16.9792 10.6625L17.233 9.90833L17.4911 10.6625L18.2698 10.3833L17.8061 11.0417L18.5236 11.4458L17.6923 11.5167L17.8105 12.3042L17.233 11.725L16.6642 12.3042L16.7736 11.5167L15.9423 11.45M25.4055 9.86666L24.9373 9.20833L25.7161 9.4875L25.9698 8.73333L26.228 9.4875L27.0067 9.20833L26.5473 9.86666L27.2605 10.2708L26.4292 10.3417L26.543 11.125L25.9742 10.55L25.3967 11.125L25.5105 10.3417L24.6792 10.2708M23.7123 13.3333L23.2617 13.6042L23.3886 13.1083L22.9817 12.7833L23.5111 12.7417L23.7123 12.275L23.918 12.7458L24.4473 12.7833L24.0405 13.1083L24.1673 13.6042" fill="white"/>
<path d="M0 0H14V10H0V0Z" fill="#000066"/>
<path d="M1.64062 0L6.97813 3.77083L12.2937 0H14V1.29167L8.75 5.02083L14 8.72917V10H12.25L7 6.27083L1.77188 10H0V8.75L5.22813 5.04167L0 1.33333V0H1.64062Z" fill="white"/>
<path d="M9.275 5.85417L14 9.16667V10L8.07187 5.85417H9.275ZM5.25 6.27083L5.38125 7L1.18125 10H0L5.25 6.27083ZM14 0V0.0625L8.55312 3.97917L8.59688 3.0625L12.9062 0H14ZM0 0L5.22813 3.66667H3.91562L0 0.875V0Z" fill="#C8102E"/>
<path d="M5.27187 0V10H8.77187V0H5.27187ZM0 3.33333V6.66667H14V3.33333H0Z" fill="white"/>
<path d="M0 4.02083V6.02083H14V4.02083H0ZM5.97187 0V10H8.07187V0H5.97187Z" fill="#C8102E"/>
</g>
<defs>
<clipPath id="clip0_737_7539">
<rect width="28" height="20" rx="2" fill="white"/>
</clipPath>
</defs>
</svg>
