<svg width="28" height="20" viewBox="0 0 28 20" fill="none" xmlns="http://www.w3.org/2000/svg">
<g clip-path="url(#clip0_737_7549)">
<path fill-rule="evenodd" clip-rule="evenodd" d="M0 0H28V20H0V0Z" fill="#229E45"/>
<path fill-rule="evenodd" clip-rule="evenodd" d="M14.0631 18.1667L27.2538 10.0125L13.9844 1.83334L0.75 10.0292L14.0631 18.1667Z" fill="#F8E509"/>
<path fill-rule="evenodd" clip-rule="evenodd" d="M19.8116 10C19.8116 12.9292 17.3134 15.3042 14.2291 15.3042C13.1269 15.3025 12.0499 14.9897 11.1344 14.4052C10.2188 13.8207 9.50581 12.9909 9.08542 12.0205C8.66502 11.0502 8.55615 9.98287 8.77255 8.95359C8.98896 7.92431 9.52093 6.97925 10.3012 6.23786C11.0815 5.49648 12.0751 4.99206 13.1563 4.78839C14.2376 4.58471 15.358 4.69091 16.3758 5.09357C17.3937 5.49623 18.2634 6.17726 18.8749 7.05058C19.4865 7.9239 19.8124 8.95028 19.8116 10Z" fill="#2B49A3"/>
<path fill-rule="evenodd" clip-rule="evenodd" d="M12.3948 13.1792L12.2198 13.0833L12.0448 13.1667L12.0842 12.9792L11.9442 12.8375L12.1411 12.8167L12.2373 12.65L12.3205 12.825L12.513 12.8583L12.3686 12.9833M16.1311 14.0792L15.9605 13.9833L15.7855 14.0667L15.8205 13.8792L15.6848 13.7417L15.8817 13.7208L15.9736 13.55L16.0611 13.725L16.2536 13.7583L16.1048 13.8875M14.5211 12.6375L14.3723 12.5542L14.2192 12.6292L14.2542 12.4667L14.1317 12.3458L14.3067 12.3292L14.3855 12.1792L14.4555 12.3333L14.6261 12.3625L14.4948 12.475M18.3011 12.1208L18.1523 12.0375L17.9992 12.1125L18.0342 11.95L17.9161 11.8333L18.0867 11.8167L18.1655 11.6708L18.2355 11.8208L18.4017 11.85L18.2748 11.9583M14.4555 11.0417L14.2805 10.95L14.1055 11.0333L14.1405 10.8417L14.0048 10.7042L14.2017 10.6833L14.2936 10.5125L14.3811 10.6875L14.5736 10.7208L14.4248 10.8542M9.84859 9.39582L9.67359 9.30415L9.49859 9.38749L9.54234 9.19582L9.39797 9.05832L9.59922 9.03749L9.68672 8.86665L9.77422 9.04165L9.96672 9.07499L9.82234 9.20415M10.4042 11.5875L10.2292 11.4917L10.0542 11.575L10.0936 11.3875L9.95359 11.25L10.1505 11.225L10.2423 11.0583L10.3298 11.2333L10.5223 11.2667L10.378 11.3958M16.153 8.59165L15.9955 8.50832L15.838 8.58332L15.873 8.41665L15.7505 8.29165L15.9255 8.27082L16.0086 8.12082L16.083 8.27915L16.258 8.30832L16.1267 8.42082M15.8336 10.0167L15.7155 9.94999L15.5886 10.0083L15.6148 9.87499L15.5186 9.77915L15.6586 9.76249L15.7242 9.64582L15.7811 9.77082L15.9123 9.79165L15.8161 9.88332M9.59484 11.9833L9.47672 11.9208L9.35859 11.975L9.38484 11.85L9.29297 11.7583L9.42422 11.7417L9.48547 11.6292L9.54234 11.7458L9.67359 11.7708L9.57297 11.8542M18.3317 12.4917L18.2355 12.4458L18.1392 12.4875L18.1611 12.3917L18.0867 12.325L18.1917 12.3125L18.2442 12.2292L18.288 12.3125L18.3973 12.3333L18.3142 12.3958" fill="#FFFFEF"/>
<path fill-rule="evenodd" clip-rule="evenodd" d="M9.59484 11.9833L9.47672 11.9208L9.35859 11.975L9.38484 11.85L9.29297 11.7583L9.42422 11.7417L9.48547 11.6292L9.54234 11.7458L9.67359 11.7708L9.57297 11.8542" fill="#FFFFEF"/>
<path fill-rule="evenodd" clip-rule="evenodd" d="M9.59484 11.9833L9.47672 11.9208L9.35859 11.975L9.38484 11.85L9.29297 11.7583L9.42422 11.7417L9.48547 11.6292L9.54234 11.7458L9.67359 11.7708L9.57297 11.8542M11.4236 11.9792L11.3098 11.9208L11.1917 11.975L11.218 11.85L11.1261 11.7583L11.2573 11.7417L11.3186 11.6292L11.3755 11.7458L11.5067 11.7667L11.4061 11.8542M11.1961 12.5625L11.0823 12.5L10.9642 12.5583L10.9905 12.4333L10.8986 12.3375L11.0298 12.3208L11.0911 12.2083L11.148 12.325L11.2792 12.35L11.1786 12.4333M15.0023 11.5083L14.8886 11.4417L14.7661 11.5L14.7923 11.375L14.7048 11.2792L14.8361 11.2667L14.8973 11.1542L14.9498 11.2708L15.0811 11.2917L14.9848 11.3792M13.8867 11.5042L13.7686 11.4417L13.6505 11.5L13.6767 11.375L13.5892 11.2792L13.7205 11.2667L13.7817 11.15L13.8342 11.2708L13.9655 11.2917L13.8692 11.3792M10.8592 11.1375L10.7848 11.0958L10.7105 11.1292L10.728 11.05L10.6711 10.9917L10.7542 10.9833L10.7892 10.9125L10.8242 10.9875L10.9073 11L10.8461 11.0542M18.1873 12.9458L18.0736 12.8833L17.9555 12.9417L17.9817 12.8167L17.8898 12.7208L18.0211 12.7042L18.0823 12.5917L18.1392 12.7083L18.2705 12.7333L18.1698 12.8167M17.2598 13.0667L17.1636 13.0083L17.063 13.0583L17.0848 12.95L17.0105 12.875L17.1198 12.8625L17.1723 12.7667L17.2161 12.8667L17.3255 12.8833L17.2423 12.9583M17.6973 13.0542L17.6098 13.0042L17.518 13.0458L17.5355 12.95L17.4655 12.8792L17.5661 12.8667L17.6142 12.7833L17.658 12.8667L17.7586 12.8875L17.6842 12.9542M18.9573 12.0042L18.8698 11.9625L18.7823 12.0042L18.8042 11.9083L18.7342 11.8375L18.8348 11.825L18.8786 11.7417L18.9223 11.8292L19.0142 11.8458L18.9442 11.9125M17.2467 13.6542L17.1373 13.5958L17.0192 13.6458L17.0455 13.5292L16.958 13.4458L17.0892 13.4333L17.1461 13.3292L17.1986 13.4375L17.3298 13.4583L17.2292 13.5375M17.2555 14.1292L17.1505 14.0708L17.0455 14.125L17.0717 14.0083L16.9886 13.925L17.1067 13.9083L17.1592 13.8042L17.2073 13.9125L17.3255 13.9333L17.238 14.0167M16.4067 13.0542L16.3236 13.0042L16.2361 13.0458L16.2536 12.9542L16.188 12.8833L16.2842 12.875L16.328 12.7917L16.3717 12.875L16.468 12.8917L16.398 12.9583M15.6192 13.0542L15.5317 13.0042L15.4442 13.0458L15.4661 12.9542L15.3961 12.8833L15.4967 12.875L15.5405 12.7917L15.5842 12.875L15.6761 12.8917L15.6061 12.9583M14.2761 11.9333L14.1886 11.8875L14.1011 11.9292L14.123 11.8333L14.053 11.7667L14.1492 11.7542L14.193 11.6708L14.2367 11.7542L14.333 11.775L14.263 11.8375M14.4248 14.2125L14.3548 14.175L14.2761 14.2125L14.2936 14.1292L14.2367 14.0708L14.3198 14.0625L14.3592 13.9917L14.3942 14.0667L14.4773 14.0792L14.4161 14.1333M12.3948 10.525L12.2198 10.4292L12.0448 10.5125L12.0842 10.325L11.9442 10.1875L12.1411 10.1625L12.2373 9.99582L12.3205 10.1708L12.513 10.2042L12.3686 10.3333" fill="#FFFFEF"/>
<path fill-rule="evenodd" clip-rule="evenodd" d="M19.4441 11.9083C19.5524 11.6405 19.6373 11.3645 19.6978 11.0833C16.7316 8.60416 13.4284 7.33333 9.25469 7.59583C9.10331 7.87479 8.97884 8.16627 8.88281 8.46666C13.8266 8.01666 17.4578 10.1 19.4441 11.9083Z" fill="white"/>
<path d="M18.1131 10.5167L18.2137 10.5708C18.1987 10.5991 18.1941 10.6314 18.2006 10.6625C18.2109 10.6927 18.2328 10.718 18.2619 10.7333C18.2925 10.7542 18.3231 10.7667 18.3494 10.7625C18.3756 10.7625 18.3931 10.75 18.4062 10.7333C18.4139 10.7223 18.417 10.7089 18.415 10.6958C18.4114 10.6804 18.4039 10.6661 18.3931 10.6542C18.3844 10.6417 18.3625 10.6125 18.3275 10.5792C18.2915 10.5438 18.2646 10.501 18.2487 10.4542C18.2378 10.4187 18.2407 10.3807 18.2567 10.347C18.2728 10.3134 18.301 10.2863 18.3362 10.2708C18.3681 10.2582 18.4032 10.2553 18.4369 10.2625C18.478 10.2715 18.5167 10.2885 18.5506 10.3125C18.6119 10.3542 18.6512 10.3958 18.6644 10.4458C18.6704 10.4692 18.6712 10.4936 18.6667 10.5173C18.6622 10.541 18.6524 10.5635 18.6381 10.5833L18.5331 10.5208C18.5462 10.4958 18.5506 10.4708 18.5419 10.45C18.5375 10.4292 18.52 10.4083 18.4894 10.3917C18.4669 10.3745 18.4394 10.3643 18.4106 10.3625C18.4027 10.3622 18.3948 10.364 18.3879 10.3677C18.381 10.3714 18.3752 10.3768 18.3712 10.3833C18.3625 10.3958 18.3625 10.4083 18.3669 10.425C18.3712 10.4417 18.3931 10.475 18.4369 10.5167C18.4806 10.5583 18.5069 10.5958 18.5244 10.6208C18.54 10.6481 18.5471 10.6791 18.5447 10.7102C18.5424 10.7412 18.5308 10.7709 18.5112 10.7958C18.4908 10.8242 18.4618 10.8459 18.4281 10.8583C18.3953 10.8727 18.3586 10.8771 18.3231 10.8708C18.2837 10.8625 18.2444 10.8458 18.2006 10.8167C18.135 10.775 18.0956 10.7292 18.0825 10.6792C18.0682 10.6225 18.0777 10.5627 18.1087 10.5125L18.1131 10.5167ZM17.6056 10.2L17.715 10.2542C17.7015 10.2829 17.6984 10.3152 17.7062 10.3458C17.7174 10.3744 17.7392 10.3981 17.7675 10.4125C17.8025 10.4333 17.8287 10.4417 17.855 10.4375C17.8812 10.4375 17.8987 10.425 17.9119 10.4042C17.9185 10.3943 17.9216 10.3826 17.9206 10.3708C17.9206 10.3583 17.9119 10.3417 17.8987 10.3292C17.8763 10.3034 17.853 10.2784 17.8287 10.2542C17.7806 10.2083 17.75 10.1708 17.7412 10.1375C17.7341 10.1161 17.732 10.0934 17.735 10.0711C17.738 10.0488 17.7461 10.0273 17.7587 10.0083C17.7754 9.98262 17.7998 9.96229 17.8287 9.95C17.8588 9.9368 17.8923 9.93245 17.925 9.9375C17.9655 9.94399 18.0041 9.95816 18.0387 9.97917C18.1044 10.0208 18.1437 10.0625 18.1569 10.1083C18.1648 10.1318 18.1674 10.1565 18.1644 10.181C18.1614 10.2054 18.1528 10.229 18.1394 10.25L18.03 10.1917C18.0431 10.1625 18.0475 10.1417 18.0387 10.1208C18.03 10.1 18.0125 10.0792 17.9819 10.0625C17.9577 10.046 17.9285 10.0372 17.8987 10.0375C17.8916 10.038 17.8846 10.0401 17.8785 10.0437C17.8724 10.0474 17.8673 10.0524 17.8637 10.0583C17.855 10.0708 17.855 10.0833 17.8594 10.1C17.8637 10.1167 17.89 10.15 17.9337 10.1917C17.9775 10.2333 18.0081 10.2667 18.0212 10.2917C18.0388 10.3178 18.0481 10.3482 18.0481 10.3792C18.0481 10.4102 18.0388 10.4405 18.0212 10.4667C18.0024 10.4957 17.975 10.5189 17.9425 10.5333C17.9097 10.5477 17.873 10.5521 17.8375 10.5458C17.7925 10.5386 17.7494 10.523 17.7106 10.5C17.6541 10.4713 17.6105 10.4239 17.5881 10.3667C17.5712 10.311 17.5775 10.2513 17.6056 10.2ZM16.9844 10.0417L17.3037 9.54167L17.6887 9.77083L17.6362 9.85417L17.3562 9.6875L17.2862 9.8L17.5487 9.95417L17.4919 10.0375L17.2294 9.88333L17.1419 10.0208L17.435 10.1875L17.3825 10.2708L16.9887 10.0417H16.9844ZM16.0787 9.33333L16.1269 9.25L16.3631 9.3625L16.2537 9.57083C16.2187 9.57917 16.175 9.58333 16.1225 9.57917C16.0721 9.57387 16.0231 9.55975 15.9781 9.5375C15.9252 9.51293 15.8799 9.47558 15.8469 9.42917C15.8168 9.38604 15.8015 9.33509 15.8031 9.28333C15.8053 9.22946 15.8203 9.17677 15.8469 9.12917C15.8732 9.07906 15.9123 9.03607 15.9606 9.00417C16.0069 8.97371 16.0619 8.9577 16.1181 8.95833C16.1619 8.95833 16.2056 8.97083 16.2581 9C16.3281 9.02917 16.3719 9.07083 16.3937 9.11667C16.4165 9.16217 16.4212 9.21398 16.4069 9.2625L16.2887 9.22917C16.296 9.20126 16.2929 9.17183 16.28 9.14583C16.2669 9.12083 16.245 9.10417 16.21 9.0875C16.1896 9.07641 16.167 9.06956 16.1436 9.06741C16.1202 9.06525 16.0966 9.06784 16.0744 9.075C16.0306 9.0875 15.9912 9.125 15.9606 9.18333C15.93 9.24167 15.9169 9.29583 15.93 9.34167C15.936 9.3634 15.947 9.38362 15.9621 9.40089C15.9772 9.41817 15.9961 9.43208 16.0175 9.44167C16.0394 9.45417 16.0656 9.4625 16.0919 9.4625C16.118 9.46627 16.1445 9.46627 16.1706 9.4625L16.2056 9.39583L16.0787 9.33333ZM12.1325 8.40417L12.22 7.82083L12.4037 7.85L12.4519 8.25833L12.6225 7.88333L12.8062 7.90833L12.7188 8.48333L12.6006 8.46667L12.675 8.0125L12.4825 8.45L12.3644 8.43333L12.3162 7.9625L12.2462 8.42083L12.1325 8.40417ZM11.5156 8.33333L11.5725 7.75L12.0231 7.79167L12.0144 7.89167L11.6862 7.8625L11.6731 7.9875L11.9794 8.01667L11.9662 8.11667L11.66 8.0875L11.6469 8.24583L11.9881 8.275L11.9794 8.375L11.5156 8.33333Z" fill="#309E3A"/>
<path d="M9.4737 7.97084C9.4737 7.90834 9.48682 7.8625 9.50432 7.82084C9.51966 7.7912 9.5404 7.7644 9.56557 7.74167C9.58801 7.72012 9.6148 7.70311 9.64432 7.69167C9.68807 7.67917 9.73182 7.67084 9.77557 7.67084C9.86745 7.67084 9.93745 7.70417 9.99432 7.75417C10.0214 7.78602 10.0415 7.82269 10.0535 7.86204C10.0656 7.90139 10.0692 7.94263 10.0643 7.98334C10.0643 8.075 10.0337 8.15 9.97682 8.20417C9.9476 8.2299 9.91302 8.2495 9.87534 8.2617C9.83766 8.2739 9.79771 8.27843 9.75807 8.275C9.71897 8.27538 9.68019 8.26819 9.64409 8.25386C9.60799 8.23954 9.57533 8.21838 9.54807 8.19167C9.49363 8.1303 9.46689 8.05091 9.4737 7.97084Z" fill="#309E3A"/>
<path d="M9.60156 7.97083C9.60156 8.03333 9.61469 8.08333 9.64531 8.12083C9.67594 8.15416 9.71531 8.175 9.76781 8.175C9.79052 8.17651 9.81331 8.17318 9.8345 8.16525C9.85569 8.15732 9.87476 8.14499 9.89031 8.12916C9.92094 8.09583 9.93406 8.04583 9.93844 7.975C9.93844 7.90833 9.92969 7.85833 9.89469 7.825C9.88044 7.8082 9.86245 7.79463 9.84202 7.78526C9.82159 7.7759 9.79923 7.77097 9.77656 7.77083C9.75355 7.77013 9.73065 7.77424 9.70949 7.78288C9.68832 7.79152 9.6694 7.80447 9.65406 7.82083C9.61906 7.85416 9.60594 7.90416 9.60156 7.97083Z" fill="#F7FFFF"/>
<path d="M10.1953 8.27083L10.2041 7.6875H10.4666C10.5322 7.6875 10.5759 7.69583 10.6066 7.70833C10.6372 7.71667 10.6591 7.7375 10.6766 7.7625C10.6941 7.7875 10.7028 7.82083 10.7028 7.85833C10.7032 7.89842 10.6875 7.93713 10.6591 7.96667C10.6267 7.99552 10.5851 8.01314 10.5409 8.01667L10.6066 8.06667C10.6241 8.08333 10.6459 8.11667 10.6722 8.1625L10.7466 8.27917H10.5978L10.5103 8.14583L10.4491 8.0625C10.4385 8.05104 10.4249 8.04242 10.4097 8.0375C10.3898 8.03197 10.3692 8.02917 10.3484 8.02917H10.3222V8.27083H10.1953Z" fill="#309E3A"/>
<path d="M10.3281 7.93751H10.4156C10.4769 7.93751 10.5163 7.93751 10.5294 7.92917C10.5425 7.92917 10.5556 7.91667 10.5644 7.90834C10.5731 7.90001 10.5775 7.87917 10.5775 7.86667C10.5775 7.84167 10.5731 7.82501 10.56 7.81667C10.5513 7.80417 10.5338 7.79584 10.5163 7.79167H10.4288L10.3281 7.78751V7.93334V7.93751Z" fill="white"/>
<path d="M10.8939 7.71667L11.1214 7.72917C11.1695 7.72917 11.2089 7.73334 11.2352 7.74168C11.2692 7.75344 11.2994 7.77356 11.3227 7.80001C11.3479 7.82914 11.3658 7.86333 11.3752 7.90001C11.3883 7.93751 11.3927 7.98334 11.3883 8.03751C11.3882 8.08004 11.3809 8.12227 11.3664 8.16251C11.3489 8.20417 11.3227 8.23751 11.292 8.26251C11.2665 8.28251 11.2366 8.29676 11.2045 8.30418C11.1783 8.31251 11.1389 8.31251 11.0952 8.31251L10.8633 8.30001L10.8939 7.71667Z" fill="#309E3A"/>
<path d="M11.0102 7.82083L10.9883 8.20833H11.1545C11.1764 8.20833 11.1939 8.2 11.207 8.1875C11.2202 8.175 11.2333 8.15833 11.242 8.13333C11.2508 8.10833 11.2595 8.07083 11.2595 8.025L11.2552 7.92083C11.2489 7.89886 11.2369 7.87878 11.2202 7.8625C11.2056 7.84858 11.1875 7.83853 11.1677 7.83333C11.1346 7.82632 11.1009 7.82213 11.067 7.82083H11.0102Z" fill="white"/>
<path d="M13.8945 8.75835L14.0389 8.19168L14.2314 8.23335L14.3714 8.27501C14.402 8.29168 14.4283 8.31668 14.4414 8.35418C14.4589 8.38751 14.4589 8.42501 14.4502 8.47085C14.4414 8.50418 14.4283 8.53335 14.4064 8.55418C14.3904 8.57248 14.3703 8.58719 14.3476 8.59727C14.3249 8.60735 14.3002 8.61255 14.2752 8.61251C14.2445 8.61251 14.2008 8.60418 14.1439 8.59168L14.0695 8.57085L14.017 8.78751L13.8945 8.75835Z" fill="#309E3A"/>
<path d="M14.1327 8.31668L14.0977 8.47501L14.1633 8.49168C14.207 8.50001 14.242 8.50835 14.2595 8.50418C14.2766 8.50193 14.2924 8.49471 14.305 8.48352C14.3175 8.47233 14.3261 8.45771 14.3295 8.44168C14.3295 8.42085 14.3295 8.40418 14.3208 8.38751C14.3112 8.37058 14.2957 8.35733 14.277 8.35001L14.1939 8.32918L14.137 8.31668H14.1327Z" fill="white"/>
<path d="M14.4648 8.92082L14.6705 8.37082L14.9111 8.45415C14.9767 8.47499 15.0161 8.49582 15.0423 8.51249C15.0642 8.53332 15.0817 8.55415 15.0861 8.58749C15.0905 8.62082 15.0948 8.64999 15.0861 8.68332C15.0686 8.72499 15.0423 8.75415 15.0073 8.77499C14.9723 8.79165 14.9286 8.79582 14.8761 8.78749C14.8936 8.80832 14.9111 8.82915 14.9198 8.85415L14.9548 8.96665L14.9811 9.09582L14.8455 9.04999L14.8017 8.89999C14.7938 8.86606 14.7835 8.83266 14.7711 8.79999C14.7653 8.78702 14.7563 8.77559 14.7448 8.76665C14.7361 8.75415 14.7186 8.74582 14.688 8.73749L14.6661 8.72915L14.5786 8.96249L14.4648 8.92082Z" fill="#309E3A"/>
<path d="M14.6997 8.64165L14.7828 8.67082C14.8397 8.69165 14.8747 8.69998 14.8922 8.69998C14.9053 8.69998 14.9184 8.69998 14.9316 8.68748C14.9447 8.67915 14.9534 8.66665 14.9578 8.64998C14.9666 8.63332 14.9666 8.61665 14.9578 8.59998C14.9513 8.58383 14.9389 8.5705 14.9228 8.56248L14.8353 8.53332L14.7478 8.50415L14.6953 8.64165H14.6997Z" fill="white"/>
<path d="M15.1804 8.89999C15.1955 8.8512 15.2208 8.80584 15.2548 8.76665C15.2769 8.74151 15.3036 8.72035 15.3336 8.70415C15.3607 8.68957 15.3903 8.67969 15.4211 8.67499C15.4648 8.67499 15.5086 8.67499 15.5567 8.69165C15.5958 8.70087 15.6324 8.71789 15.6641 8.7416C15.6957 8.7653 15.7218 8.79515 15.7404 8.82915C15.7754 8.89582 15.7754 8.97499 15.7492 9.06665C15.7275 9.14541 15.6741 9.21281 15.6004 9.25415C15.5348 9.29165 15.4561 9.29582 15.3729 9.27082C15.3339 9.26136 15.2974 9.24424 15.2658 9.22057C15.2342 9.19689 15.2081 9.16717 15.1892 9.13332C15.1717 9.09689 15.1619 9.05753 15.1604 9.01749C15.1589 8.97744 15.1657 8.93751 15.1804 8.89999Z" fill="#309E3A"/>
<path d="M15.3039 8.93331C15.2864 8.99581 15.282 9.04998 15.3039 9.09164C15.3257 9.13331 15.3564 9.15831 15.4045 9.17498C15.4482 9.18748 15.492 9.18331 15.5357 9.15831C15.5795 9.13748 15.6057 9.09164 15.6276 9.02498C15.6495 8.96248 15.6495 8.91248 15.6276 8.87081C15.619 8.85104 15.6059 8.83333 15.5893 8.81893C15.5726 8.80452 15.5529 8.79379 15.5314 8.78748C15.5098 8.7804 15.487 8.77785 15.4643 8.78001C15.4416 8.78217 15.4198 8.78898 15.4001 8.79998C15.3564 8.82498 15.3257 8.86664 15.3039 8.93331Z" fill="white"/>
<path d="M16.375 9.7125L16.655 9.19583L16.8869 9.30833C16.9306 9.3283 16.9705 9.35506 17.005 9.3875C17.0269 9.40833 17.04 9.43333 17.04 9.46666C17.04 9.5 17.04 9.52916 17.0225 9.55833C17.0057 9.5958 16.9743 9.62564 16.935 9.64166C16.8913 9.65 16.8475 9.65 16.7994 9.63333C16.8169 9.65833 16.8256 9.68333 16.8344 9.70416C16.8431 9.72916 16.8475 9.76666 16.8519 9.82083L16.8606 9.95416L16.7294 9.89166L16.7119 9.7375C16.7098 9.70255 16.7054 9.66776 16.6988 9.63333C16.6958 9.61774 16.6882 9.60329 16.6769 9.59166L16.6244 9.5625L16.6025 9.55L16.4844 9.76666L16.375 9.7125Z" fill="#309E3A"/>
<path d="M16.6445 9.46668L16.7277 9.50834C16.7802 9.53334 16.8152 9.55001 16.8283 9.55001C16.8414 9.55001 16.8589 9.55001 16.872 9.54168C16.8852 9.53751 16.8939 9.52501 16.9027 9.50834C16.9114 9.49168 16.9158 9.47501 16.9114 9.45834C16.906 9.44175 16.8953 9.42719 16.8808 9.41668C16.8552 9.40171 16.8289 9.38781 16.802 9.37501L16.7145 9.33334L16.6445 9.46668Z" fill="white"/>
<path d="M18.6431 10.7792C18.6714 10.7363 18.7086 10.6994 18.7525 10.6708C18.7819 10.6529 18.8145 10.6402 18.8487 10.6333C18.8805 10.6271 18.9132 10.6271 18.945 10.6333C18.9887 10.6417 19.0281 10.6583 19.0675 10.6833C19.1015 10.7035 19.1308 10.7303 19.1534 10.7618C19.176 10.7934 19.1914 10.8291 19.1987 10.8667C19.2118 10.9375 19.19 11.0167 19.1375 11.0958C19.0936 11.1647 19.0228 11.2141 18.9406 11.2333C18.9014 11.2414 18.8609 11.2415 18.8217 11.2336C18.7825 11.2257 18.7455 11.21 18.7131 11.1875C18.679 11.1673 18.6498 11.1406 18.6272 11.109C18.6046 11.0774 18.5892 11.0417 18.5818 11.0042C18.5687 10.9292 18.5906 10.8542 18.6431 10.7792Z" fill="#309E3A"/>
<path d="M18.7538 10.8458C18.7101 10.9 18.6969 10.95 18.7057 10.9958C18.7089 11.0169 18.7168 11.0371 18.7289 11.0551C18.741 11.073 18.7569 11.0884 18.7757 11.1C18.8194 11.1291 18.8632 11.1375 18.9069 11.125C18.9507 11.1125 18.9944 11.0833 19.0338 11.025C19.0732 10.9666 19.0907 10.9166 19.0819 10.875C19.0776 10.8333 19.0513 10.7958 19.0119 10.7666C18.9726 10.7375 18.9244 10.7333 18.8807 10.7458C18.8369 10.7541 18.7932 10.7875 18.7494 10.8458H18.7538Z" fill="white"/>
<path d="M13.2031 8.52082L13.3038 8.11249L13.6188 8.18332L13.6056 8.24999L13.3738 8.19999L13.3519 8.29165L13.5663 8.33749L13.5488 8.40832L13.3344 8.35832L13.3081 8.47082L13.5488 8.52499L13.5312 8.59165L13.2031 8.52082Z" fill="#309E3A"/>
</g>
<defs>
<clipPath id="clip0_737_7549">
<rect width="28" height="20" rx="2" fill="white"/>
</clipPath>
</defs>
</svg>
