<svg width="32" height="32" viewBox="0 0 32 32" fill="none" xmlns="http://www.w3.org/2000/svg">
<path d="M13.512 14.045L15.658 12.077C16.2452 11.5382 16.6582 10.8363 16.8438 10.0613C17.0295 9.28622 16.9794 8.47338 16.7 7.727L15.783 5.279C15.4407 4.36561 14.7631 3.6171 13.8881 3.18603C13.0131 2.75495 12.0067 2.67376 11.074 2.959C7.64196 4.009 5.00396 7.199 5.81596 10.988C6.34996 13.48 7.37096 16.608 9.30796 19.937C10.931 22.7407 12.9729 25.28 15.363 27.467C18.233 30.079 22.333 29.426 24.971 26.967C25.6781 26.3077 26.1072 25.4035 26.1707 24.4388C26.2343 23.474 25.9275 22.5214 25.313 21.775L23.632 19.733C23.1253 19.1172 22.4462 18.6669 21.6818 18.4399C20.9174 18.2129 20.1026 18.2196 19.342 18.459L16.566 19.334C16.459 19.224 16.336 19.093 16.2 18.942C15.6292 18.3106 15.1243 17.6227 14.693 16.889C14.2733 16.1485 13.9302 15.3671 13.669 14.557C13.6131 14.3874 13.5608 14.2167 13.512 14.045Z" fill="#00F3FF"/>
</svg>
