<svg width="12" height="12" viewBox="0 0 12 12" fill="none" xmlns="http://www.w3.org/2000/svg">
<path fill-rule="evenodd" clip-rule="evenodd" d="M7.793 1.5C7.98053 1.31253 8.23484 1.20721 8.5 1.20721C8.76516 1.20721 9.01947 1.31253 9.207 1.5L10.5 2.793C10.6875 2.98053 10.7928 3.23484 10.7928 3.5C10.7928 3.76517 10.6875 4.01947 10.5 4.207L9.707 5L7 2.293L7.793 1.5ZM6.293 3L1.793 7.5C1.60545 7.68749 1.50006 7.94181 1.5 8.207V9.5C1.5 9.76522 1.60536 10.0196 1.79289 10.2071C1.98043 10.3946 2.23478 10.5 2.5 10.5H3.793C4.0582 10.4999 4.31251 10.3946 4.5 10.207L9 5.707L6.293 3Z" fill="#00F3FF"/>
</svg>
