<svg width="14" height="31" viewBox="0 0 14 31" fill="none" xmlns="http://www.w3.org/2000/svg">
<path d="M1.53649 15.9944L2.11211 16.4752L1.53649 15.9944ZM1.18854 31L9.54459 28.7248L3.39622 22.6259L1.18854 31ZM12.2147 10.3553C11.8531 14.0367 8.52557 16.2961 5.46319 17.1312C3.9261 17.5504 2.65366 17.5508 2.02692 17.3159C1.88255 17.2617 1.8076 17.2077 1.774 17.1749C1.75848 17.1598 1.75326 17.1507 1.75222 17.1488C1.75152 17.1475 1.75132 17.1472 1.75091 17.1448C1.74897 17.1335 1.73286 16.9293 2.11211 16.4752L0.960863 15.5136C0.484719 16.0837 0.158652 16.7326 0.27237 17.3977C0.394058 18.1093 0.953723 18.5155 1.5004 18.7204C2.56784 19.1206 4.21281 19.027 5.85785 18.5784C9.15973 17.6779 13.2553 15.1061 13.7075 10.5019L12.2147 10.3553ZM2.11211 16.4752C3.32576 15.0222 5.92276 15.0018 7.38265 16.4936C8.0751 17.2012 8.52617 18.2798 8.34556 19.7851C8.16229 21.3124 7.32211 23.3025 5.35719 25.7382L6.52467 26.68C8.59528 24.1133 9.60675 21.865 9.83487 19.9638C10.0656 18.0404 9.48784 16.5002 8.45473 15.4445C6.46353 13.4097 2.82277 13.2845 0.960863 15.5136L2.11211 16.4752ZM13.7075 10.5019C14.1627 5.86843 10.9193 3.28912 7.85993 1.92237C6.31598 1.23262 4.75588 0.817129 3.58914 0.573829C3.00387 0.451783 2.51299 0.372126 2.16652 0.322782C1.99318 0.298096 1.8557 0.280957 1.7603 0.269871C1.7126 0.264327 1.67539 0.260294 1.64946 0.257587C1.63649 0.256233 1.62634 0.25521 1.6191 0.254494C1.61548 0.254137 1.61259 0.253856 1.61044 0.25365C1.60936 0.253546 1.60847 0.253461 1.60777 0.253395C1.60742 0.253361 1.60703 0.253325 1.60685 0.253308C1.60651 0.253276 1.60622 0.253249 1.53649 1C1.46675 1.74675 1.46655 1.74673 1.4664 1.74672C1.46641 1.74672 1.4663 1.74671 1.46632 1.74671C1.46636 1.74671 1.46658 1.74674 1.46699 1.74677C1.4678 1.74685 1.46935 1.747 1.47161 1.74723C1.47613 1.74767 1.48352 1.74841 1.49368 1.74948C1.51401 1.7516 1.54543 1.75499 1.58716 1.75984C1.67064 1.76955 1.7953 1.78505 1.95502 1.8078C2.27467 1.85332 2.73356 1.92768 3.28293 2.04224C4.38548 2.27216 5.83414 2.66024 7.24809 3.29192C10.1045 4.56802 12.5735 6.703 12.2147 10.3553L13.7075 10.5019Z" fill="#00F3FF"/>
</svg>
