<svg width="240" height="240" viewBox="0 0 240 240" fill="none" xmlns="http://www.w3.org/2000/svg">
<path d="M120.375 220.922C176.19 220.922 221.438 175.675 221.438 119.859C221.438 64.0441 176.19 18.7969 120.375 18.7969C64.5597 18.7969 19.3125 64.0441 19.3125 119.859C19.3125 175.675 64.5597 220.922 120.375 220.922Z" fill="#E5FDFF"/>
<path d="M89.3439 102.563C90.0939 100.453 85.6408 110.531 95.1095 115.266" stroke="#D3D5E7" stroke-width="2.8125" stroke-miterlimit="10" stroke-linecap="round"/>
<path d="M66.5625 67.5C73.7813 60 89.25 55.7344 100.688 67.3594" stroke="#D3D5E7" stroke-width="2.8125" stroke-miterlimit="10" stroke-linecap="round"/>
<path d="M62.9531 81.6094C64.4062 80.2969 66.0938 78.4219 67.4062 76.0781C70.3594 70.7344 79.0312 62.7656 91.1719 67.7813C103.312 72.7969 100.734 85.5 100.734 85.5C100.734 85.5 99.5625 91.8281 100.172 94.9219C100.781 98.0156 103.781 101.016 105.375 102.516" stroke="#D3D5E7" stroke-width="2.8125" stroke-miterlimit="10" stroke-linecap="round"/>
<path d="M62.9531 90.6563C64.1719 89.7656 65.4375 88.6875 66.4219 87.5625C69 84.6094 69.8906 83.3438 71.4844 80.25C73.0781 77.1563 77.0625 71.4375 83.7188 72C90.375 72.5625 95.1094 75.9844 95.1562 83.7656C95.2031 91.5469 91.2656 97.9688 96.6562 104.109C98.4375 106.125 100.406 107.25 102.281 107.859" stroke="#D3D5E7" stroke-width="2.8125" stroke-miterlimit="10" stroke-linecap="round"/>
<path d="M64.0312 98.2031C66.2813 96.8437 68.7656 95.25 70.1719 93.9375C73.2187 91.0781 74.25 89.25 75.5156 86.4844C76.7344 83.7187 81.2344 76.4062 86.1562 78.2344C91.0781 80.0625 90.6562 84.0938 89.7187 87.0938C88.8281 89.9063 85.3594 95.9531 82.2656 98.7656C80.1562 100.734 74.1563 105.75 70.5938 108.75" stroke="#D3D5E7" stroke-width="2.8125" stroke-miterlimit="10" stroke-linecap="round"/>
<path d="M62.9531 98.8125C63.2812 98.625 63.6563 98.3906 64.0313 98.2031" stroke="#D2D4E6" stroke-width="2.8125" stroke-miterlimit="10" stroke-linecap="round"/>
<path d="M65.7188 104.344C71.0625 101.25 79.1719 95.1094 83.7656 84.375" stroke="#D3D5E7" stroke-width="2.8125" stroke-miterlimit="10" stroke-linecap="round"/>
<path d="M75.1406 111.937C75.1406 111.937 81.6563 102.563 85.3594 112.313" stroke="#D3D5E7" stroke-width="2.8125" stroke-miterlimit="10" stroke-linecap="round"/>
<path d="M165.656 132.422H163.875C163.172 132.422 162.562 131.859 162.562 131.203V119.672C162.562 109.688 158.25 100.594 151.312 93.9844C144.375 87.375 134.812 83.2969 124.313 83.2969C103.266 83.2969 86.0625 99.6563 86.0625 119.625V132.375H77.9531C71.2969 132.375 65.9062 137.344 65.9062 143.438V207.703C65.9062 213.797 71.2969 218.766 77.9531 218.766H169.734C176.391 218.766 181.781 213.797 181.781 207.703V147.281C181.828 139.078 174.562 132.422 165.656 132.422ZM101.812 132.422V119.672C101.812 105.609 113.297 94.125 127.312 94.125C134.344 94.125 140.719 96.9844 145.312 101.625C149.953 106.266 152.812 112.641 152.812 119.672V132.422H101.812Z" fill="#D3D5E7"/>
<path d="M159.469 221.203H80.4375C72.1875 221.203 65.4844 214.5 65.4844 206.25V147.656C65.4844 139.406 72.1875 132.703 80.4375 132.703H159.469C167.719 132.703 174.422 139.406 174.422 147.656V206.25C174.422 214.547 167.719 221.203 159.469 221.203Z" fill="white" stroke="#1E247E" stroke-width="2.8125" stroke-miterlimit="10" stroke-linecap="round"/>
<path d="M123.188 177.469L126.001 192.422C126.094 192.984 125.672 193.547 125.063 193.547H114.751C114.141 193.547 113.719 193.031 113.813 192.422L116.672 177.422C116.813 176.672 116.438 175.922 115.782 175.5C113.157 173.953 111.516 170.953 111.844 167.625C112.219 163.875 115.266 160.781 119.016 160.359C123.938 159.797 128.11 163.641 128.11 168.469C128.11 171.469 126.469 174.094 124.079 175.5C123.376 175.969 123.047 176.719 123.188 177.469Z" fill="#7928CA" stroke="#1E247E" stroke-width="2.8125" stroke-miterlimit="10"/>
<path d="M121.875 164.063C123.094 164.672 123.984 165.797 124.406 167.109" stroke="#1E247E" stroke-width="1.17188" stroke-miterlimit="10" stroke-linecap="round"/>
<path d="M167.906 208.078C167.484 211.781 164.531 214.734 160.828 215.156" stroke="#1E247E" stroke-width="1.17188" stroke-miterlimit="10" stroke-linecap="round"/>
<path d="M84.1406 152.25L92.2031 158.438" stroke="#1E247E" stroke-width="1.17188" stroke-miterlimit="10" stroke-linecap="round"/>
<path d="M84.1406 156.141L88.1719 159.234" stroke="#1E247E" stroke-width="1.17188" stroke-miterlimit="10" stroke-linecap="round"/>
<path d="M90.002 152.813L92.2051 154.5" stroke="#1E247E" stroke-width="1.17188" stroke-miterlimit="10" stroke-linecap="round"/>
<path d="M149.344 198.328L157.406 204.516" stroke="#1E247E" stroke-width="1.17188" stroke-miterlimit="10" stroke-linecap="round"/>
<path d="M149.344 202.219L153.375 205.313" stroke="#1E247E" stroke-width="1.17188" stroke-miterlimit="10" stroke-linecap="round"/>
<path d="M155.205 198.891L157.408 200.578" stroke="#1E247E" stroke-width="1.17188" stroke-miterlimit="10" stroke-linecap="round"/>
<path d="M145.734 93.375C139.219 86.625 130.219 82.4531 120.375 82.4531C100.594 82.4531 84.4219 99.1875 84.4219 119.672V132.703H95.0625V119.672C95.0625 105.281 106.453 93.4688 120.375 93.4688C127.312 93.4688 133.641 96.4219 138.234 101.156C142.828 105.891 145.641 112.453 145.641 119.672V132.703H156.281V119.672C156.328 109.406 152.25 100.125 145.734 93.375Z" fill="#FA4EE8" fill-opacity="0.5" stroke="#1E247E" stroke-width="2.8125" stroke-miterlimit="10" stroke-linecap="round"/>
<path d="M150.703 113.344H156.047" stroke="#1E247E" stroke-width="1.17188" stroke-miterlimit="10" stroke-linecap="round"/>
<path d="M83.5312 126.938H88.8281" stroke="#1E247E" stroke-width="1.17188" stroke-miterlimit="10" stroke-linecap="round"/>
<path d="M94.6875 94.3125H99.9844" stroke="#1E247E" stroke-width="1.17188" stroke-miterlimit="10" stroke-linecap="round"/>
<path d="M190.781 221.203H220.641" stroke="#1E247E" stroke-width="2.8125" stroke-miterlimit="10" stroke-linecap="round"/>
<path d="M34.5469 221.203H183.516" stroke="#1E247E" stroke-width="2.8125" stroke-miterlimit="10" stroke-linecap="round"/>
<path d="M18.5156 221.203H27.9844" stroke="#1E247E" stroke-width="2.8125" stroke-miterlimit="10" stroke-linecap="round"/>
<path d="M159.703 72.6094L156.047 74.3906" stroke="white" stroke-width="3.28125" stroke-miterlimit="10" stroke-linecap="round"/>
<path d="M154.594 67.7813L152.062 71.625" stroke="white" stroke-width="3.28125" stroke-miterlimit="10" stroke-linecap="round"/>
<path d="M147.609 69.5156L147.516 65.1563" stroke="white" stroke-width="3.28125" stroke-miterlimit="10" stroke-linecap="round"/>
<path d="M189.75 108.328L182.109 111.656C182.016 111.703 182.016 111.797 182.109 111.844L188.438 115.688C188.484 115.688 188.438 115.734 188.438 115.734L181.359 117.938" stroke="#1E247E" stroke-width="2.34375" stroke-miterlimit="10" stroke-linecap="round"/>
<path d="M50.1562 108.328L57.7969 111.656C57.8906 111.703 57.8906 111.797 57.7969 111.844L51.4688 115.688C51.4219 115.688 51.4688 115.734 51.4688 115.734L58.5469 117.938" stroke="#1E247E" stroke-width="2.34375" stroke-miterlimit="10" stroke-linecap="round"/>
</svg>
