<svg width="72" height="72" viewBox="0 0 72 72" fill="none" xmlns="http://www.w3.org/2000/svg">
<path d="M37.1673 47.6667H32.5007C32.1912 47.6667 31.8945 47.5438 31.6757 47.325C31.4569 47.1062 31.334 46.8094 31.334 46.5V39.2667H29.0007C28.6912 39.2667 28.3945 39.1438 28.1757 38.925C27.9569 38.7062 27.834 38.4094 27.834 38.1V33.9C27.834 33.5906 27.9569 33.2938 28.1757 33.0751C28.3945 32.8563 28.6912 32.7333 29.0007 32.7333H31.334V30.75C31.4158 28.9724 32.198 27.2995 33.5098 26.0971C34.8215 24.8947 36.556 24.2605 38.334 24.3333H41.834C42.1434 24.3333 42.4402 24.4563 42.6589 24.6751C42.8777 24.8938 43.0007 25.1906 43.0007 25.5V29.7C43.0007 30.0094 42.8777 30.3062 42.6589 30.525C42.4402 30.7438 42.1434 30.8667 41.834 30.8667H38.334V32.7333H41.834C42.0141 32.732 42.1921 32.7723 42.3541 32.8513C42.516 32.9302 42.6574 33.0456 42.7673 33.1883C42.876 33.3332 42.9494 33.5014 42.9818 33.6796C43.0142 33.8578 43.0047 34.0411 42.954 34.215L41.7873 38.415C41.7167 38.6674 41.5633 38.8886 41.3516 39.0431C41.14 39.1976 40.8825 39.2764 40.6207 39.2667H38.334V46.5C38.334 46.8094 38.2111 47.1062 37.9923 47.325C37.7735 47.5438 37.4767 47.6667 37.1673 47.6667ZM33.6673 45.3333H36.0007V38.1C36.0007 37.7906 36.1236 37.4938 36.3424 37.2751C36.5612 37.0563 36.8579 36.9333 37.1673 36.9333H39.7807L40.294 35.0667H37.1673C36.8579 35.0667 36.5612 34.9438 36.3424 34.725C36.1236 34.5062 36.0007 34.2094 36.0007 33.9V30.75C36.0306 30.1516 36.2896 29.5877 36.724 29.175C37.1584 28.7623 37.7348 28.5326 38.334 28.5333H40.6673V26.6667H38.334C37.1753 26.5961 36.0354 26.9852 35.1618 27.7496C34.2882 28.5141 33.7512 29.5922 33.6673 30.75V33.9C33.6673 34.2094 33.5444 34.5062 33.3256 34.725C33.1068 34.9438 32.8101 35.0667 32.5007 35.0667H30.1673V36.9333H32.5007C32.8101 36.9333 33.1068 37.0563 33.3256 37.2751C33.5444 37.4938 33.6673 37.7906 33.6673 38.1V45.3333Z" fill="white"/>
</svg>
