<svg width="59" height="60" viewBox="0 0 59 60" fill="none" xmlns="http://www.w3.org/2000/svg">
<ellipse cx="29.5" cy="30" rx="29.5" ry="30" fill="#102447"/>
<path d="M45.9154 25.4896C45.8149 25.1934 45.6297 24.9331 45.3829 24.7409C45.1361 24.5487 44.8384 24.433 44.5266 24.408L35.405 23.6832L31.4577 14.9456C31.332 14.6641 31.1276 14.4251 30.869 14.2573C30.6105 14.0895 30.3089 14.0002 30.0007 14C29.6924 13.9998 29.3907 14.0889 29.132 14.2564C28.8733 14.4239 28.6685 14.6627 28.5425 14.944L24.5953 23.6832L15.4737 24.408C15.1672 24.4323 14.8742 24.5443 14.6297 24.7308C14.3853 24.9172 14.1997 25.1701 14.0952 25.4593C13.9908 25.7484 13.9718 26.0615 14.0406 26.3611C14.1094 26.6608 14.2631 26.9342 14.4832 27.1488L21.2241 33.7201L18.8401 44.0433C18.7677 44.3558 18.7909 44.6828 18.9067 44.982C19.0224 45.2811 19.2255 45.5385 19.4894 45.7208C19.7533 45.9031 20.0659 46.0019 20.3866 46.0044C20.7074 46.0068 21.0214 45.9128 21.2881 45.7345L30.0001 39.9265L38.7122 45.7345C38.9847 45.9155 39.3061 46.0086 39.6332 46.0015C39.9603 45.9943 40.2773 45.8871 40.5416 45.6944C40.806 45.5017 41.005 45.2326 41.1118 44.9234C41.2187 44.6142 41.2283 44.2797 41.1394 43.9649L38.213 33.7249L45.4706 27.1936C45.9458 26.7648 46.1202 26.096 45.9154 25.4896Z" fill="white"/>
</svg>
