<svg width="59" height="60" viewBox="0 0 59 60" fill="none" xmlns="http://www.w3.org/2000/svg">
<ellipse cx="29.5" cy="30" rx="29.5" ry="30" fill="#102447"/>
<path d="M17.3617 17.92L29.6134 13.325L41.865 17.92C42.1827 18.039 42.4564 18.2522 42.6497 18.5309C42.8429 18.8097 42.9466 19.1407 42.9467 19.48V26.6583C42.9467 31.9533 40.66 36.9916 36.675 40.4783L29.6134 46.6583L22.5517 40.4783C20.5818 38.7547 19.0032 36.6299 17.9215 34.2464C16.8399 31.8629 16.2802 29.2757 16.28 26.6583V19.48C16.2802 19.1407 16.3838 18.8097 16.5771 18.5309C16.7703 18.2522 17.0441 18.039 17.3617 17.92ZM27.845 30.4366L25.4884 28.0833C25.3346 27.9241 25.1507 27.7971 24.9474 27.7098C24.744 27.6224 24.5253 27.5765 24.304 27.5745C24.0827 27.5726 23.8633 27.6148 23.6584 27.6986C23.4536 27.7824 23.2675 27.9061 23.111 28.0626C22.9545 28.2191 22.8308 28.4052 22.747 28.61C22.6632 28.8149 22.621 29.0343 22.6229 29.2556C22.6249 29.4769 22.6708 29.6956 22.7582 29.899C22.8455 30.1023 22.9725 30.2862 23.1317 30.44L26.6667 33.975C26.9792 34.2874 27.4031 34.4629 27.845 34.4629C28.287 34.4629 28.7108 34.2874 29.0234 33.975L36.095 26.9033C36.2542 26.7495 36.3812 26.5656 36.4685 26.3623C36.5559 26.159 36.6019 25.9403 36.6038 25.719C36.6057 25.4977 36.5635 25.2782 36.4797 25.0734C36.3959 24.8685 36.2722 24.6824 36.1157 24.526C35.9592 24.3695 35.7731 24.2457 35.5683 24.1619C35.3635 24.0781 35.144 24.0359 34.9227 24.0379C34.7014 24.0398 34.4827 24.0858 34.2794 24.1731C34.076 24.2605 33.8921 24.3874 33.7384 24.5466L27.845 30.44V30.4366Z" fill="white"/>
</svg>
