<svg width="59" height="60" viewBox="0 0 59 60" fill="none" xmlns="http://www.w3.org/2000/svg">
<ellipse cx="29.5" cy="30" rx="29.5" ry="30" fill="#102447"/>
<g clip-path="url(#clip0_187_610)">
<path d="M32 16C32 15.4696 31.7893 14.9609 31.4142 14.5858C31.0391 14.2107 30.5304 14 30 14C29.4696 14 28.9609 14.2107 28.5858 14.5858C28.2107 14.9609 28 15.4696 28 16V18C28 18.5304 28.2107 19.0391 28.5858 19.4142C28.9609 19.7893 29.4696 20 30 20C30.5304 20 31.0391 19.7893 31.4142 19.4142C31.7893 19.0391 32 18.5304 32 18V16ZM41.314 21.514C41.6783 21.1368 41.8799 20.6316 41.8753 20.1072C41.8708 19.5828 41.6605 19.0812 41.2896 18.7104C40.9188 18.3395 40.4172 18.1292 39.8928 18.1247C39.3684 18.1201 38.8632 18.3217 38.486 18.686L37.072 20.1C36.7077 20.4772 36.5061 20.9824 36.5107 21.5068C36.5152 22.0312 36.7255 22.5328 37.0964 22.9036C37.4672 23.2745 37.9688 23.4848 38.4932 23.4893C39.0176 23.4939 39.5228 23.2923 39.9 22.928L41.314 21.514ZM46 30C46 30.5304 45.7893 31.0391 45.4142 31.4142C45.0391 31.7893 44.5304 32 44 32H42C41.4696 32 40.9609 31.7893 40.5858 31.4142C40.2107 31.0391 40 30.5304 40 30C40 29.4696 40.2107 28.9609 40.5858 28.5858C40.9609 28.2107 41.4696 28 42 28H44C44.5304 28 45.0391 28.2107 45.4142 28.5858C45.7893 28.9609 46 29.4696 46 30ZM20.1 22.928C20.2845 23.119 20.5052 23.2714 20.7492 23.3762C20.9932 23.481 21.2556 23.5362 21.5212 23.5385C21.7868 23.5408 22.0501 23.4902 22.2959 23.3896C22.5417 23.2891 22.765 23.1406 22.9528 22.9528C23.1406 22.765 23.2891 22.5417 23.3896 22.2959C23.4902 22.0501 23.5408 21.7868 23.5385 21.5212C23.5362 21.2556 23.481 20.9932 23.3762 20.7492C23.2714 20.5052 23.119 20.2845 22.928 20.1L21.514 18.686C21.1368 18.3217 20.6316 18.1201 20.1072 18.1247C19.5828 18.1292 19.0812 18.3395 18.7104 18.7104C18.3395 19.0812 18.1292 19.5828 18.1247 20.1072C18.1201 20.6316 18.3217 21.1368 18.686 21.514L20.1 22.928ZM20 30C20 30.5304 19.7893 31.0391 19.4142 31.4142C19.0391 31.7893 18.5304 32 18 32H16C15.4696 32 14.9609 31.7893 14.5858 31.4142C14.2107 31.0391 14 30.5304 14 30C14 29.4696 14.2107 28.9609 14.5858 28.5858C14.9609 28.2107 15.4696 28 16 28H18C18.5304 28 19.0391 28.2107 19.4142 28.5858C19.7893 28.9609 20 29.4696 20 30ZM26 42V40H34V42C34 43.0609 33.5786 44.0783 32.8284 44.8284C32.0783 45.5786 31.0609 46 30 46C28.9391 46 27.9217 45.5786 27.1716 44.8284C26.4214 44.0783 26 43.0609 26 42ZM34 38C34.03 37.32 34.416 36.708 34.954 36.282C36.2594 35.2525 37.2116 33.8419 37.6783 32.2463C38.145 30.6507 38.103 28.9493 37.5582 27.3787C37.0134 25.808 35.9927 24.4461 34.6382 23.4822C33.2836 22.5184 31.6625 22.0004 30 22.0004C28.3375 22.0004 26.7164 22.5184 25.3618 23.4822C24.0073 24.4461 22.9866 25.808 22.4418 27.3787C21.897 28.9493 21.855 30.6507 22.3217 32.2463C22.7884 33.8419 23.7406 35.2525 25.046 36.282C25.586 36.708 25.97 37.32 25.998 38H34.002H34Z" fill="white"/>
</g>
<defs>
<clipPath id="clip0_187_610">
<rect width="32" height="32" fill="white" transform="translate(14 14)"/>
</clipPath>
</defs>
</svg>
