<svg width="59" height="60" viewBox="0 0 59 60" fill="none" xmlns="http://www.w3.org/2000/svg">
<ellipse cx="29.5" cy="30" rx="29.5" ry="30" fill="#102447"/>
<path d="M28.3598 34.3067C28.4876 34.1785 28.5879 34.0257 28.6547 33.8576C28.7215 33.6894 28.7534 33.5094 28.7484 33.3286C28.7434 33.1477 28.7017 32.9697 28.6257 32.8055C28.5497 32.6413 28.4411 32.4943 28.3065 32.3734C24.8932 29.2934 22.8665 27.2 23.4265 25.1067C23.7198 24.0267 24.6798 23.3334 25.7998 23.3334C27.2798 23.3334 27.8532 24.2 29.3732 26H30.6132C32.1065 24.2534 32.6532 23.3334 34.1865 23.3334C35.3465 23.3334 36.2532 24.0534 36.5465 25.0934C37.0132 25.04 37.4532 25.0134 37.8798 25.0134C38.3598 25.0134 38.8132 25.0534 39.2532 25.12C38.9332 22.5734 36.8398 20.6667 34.1998 20.6667C34.0398 20.6667 33.8932 20.7067 33.7332 20.72C34.0798 19.7734 34.1465 18.68 33.4932 17.48C32.9198 16.4 31.8665 15.5734 30.6665 15.3867C28.1598 14.9867 25.9998 16.9067 25.9998 19.3334C25.9998 19.8267 26.1065 20.28 26.2665 20.72C26.1065 20.7067 25.9598 20.6667 25.7998 20.6667C22.9198 20.6667 20.6665 22.92 20.6665 25.8C20.6665 28.7734 22.9732 31.1467 26.5332 34.3467C27.0532 34.8267 27.8665 34.8 28.3598 34.3067Z" fill="white"/>
<path d="M45.3598 36.9999C44.6398 35.8399 43.6664 35.3599 42.6798 35.1866C42.7731 35.0532 42.8798 34.9466 42.9598 34.8132C44.3998 32.3199 43.5731 29.2399 41.0798 27.7999C38.5064 26.3199 35.2931 27.1332 30.7464 28.5999C30.0664 28.8132 29.6931 29.5332 29.8664 30.2132C30.0664 30.9466 30.8398 31.3732 31.5731 31.1332C35.9464 29.7199 38.7731 28.9999 40.3064 30.5332C41.0931 31.3199 41.2131 32.5066 40.6531 33.4799C39.9064 34.7599 38.8798 34.8132 36.5598 35.2399L35.9331 36.3199C36.7064 38.4799 37.2264 39.4266 36.4531 40.7466C35.7464 41.9599 34.3064 42.3466 33.0798 41.6532C32.9998 41.6132 32.9331 41.5332 32.8531 41.4799C32.4531 42.3732 31.9998 43.1332 31.4798 43.7866V43.7999C34.0131 45.4532 37.2664 44.6532 38.7598 42.0799C38.8398 41.9466 38.8798 41.7999 38.9464 41.6532C39.2398 42.0132 39.5864 42.3332 40.0131 42.5732C42.1198 43.7866 44.8664 42.8799 45.7598 40.5066C46.1864 39.3599 45.9998 38.0399 45.3598 36.9999Z" fill="white"/>
<path d="M30.1331 34.0533C29.1731 38.56 28.3731 41.36 26.2798 41.92C25.1998 42.2133 24.1198 41.72 23.5598 40.7466C22.8131 39.4666 23.2931 38.5333 24.0798 36.32L23.4665 35.24C21.1998 34.8266 20.1331 34.8 19.3731 33.48C18.6665 32.2666 19.0531 30.8133 20.2798 30.1066C20.3998 30.04 20.5331 30 20.6665 29.96C20.3065 29.4 19.9998 28.8 19.7731 28.1333C19.4531 27.9866 19.2931 27.92 18.9731 27.7866C18.3806 28.1169 17.8601 28.5623 17.4422 29.0967C17.0244 29.6311 16.7176 30.2437 16.5399 30.8984C16.3623 31.5531 16.3174 32.2367 16.4078 32.909C16.4982 33.5813 16.7222 34.2288 17.0665 34.8133C17.1465 34.9466 17.2531 35.0533 17.3465 35.1866C16.3465 35.36 15.3731 35.84 14.6665 37C14.0265 38.04 13.8398 39.36 14.2665 40.5066C14.4696 41.0513 14.7891 41.5451 15.2025 41.9537C15.616 42.3623 16.1136 42.6759 16.6606 42.8726C17.2076 43.0693 17.7909 43.1444 18.3699 43.0927C18.9489 43.041 19.5096 42.8638 20.0131 42.5733C20.4398 42.3333 20.7865 42.0133 21.0798 41.6533C21.1465 41.8 21.1865 41.9466 21.2665 42.08C22.7065 44.5733 25.7865 45.4 28.2798 43.96C30.8531 42.48 31.7598 39.28 32.7598 34.6133C32.8307 34.2797 32.7705 33.9317 32.5918 33.6413C32.4131 33.3509 32.1295 33.1403 31.7998 33.0533C31.6246 33.0036 31.4411 32.9904 31.2605 33.0143C31.08 33.0383 30.9063 33.099 30.7501 33.1927C30.594 33.2864 30.4587 33.4111 30.3525 33.5591C30.2464 33.7071 30.1718 33.8753 30.1331 34.0533Z" fill="white"/>
</svg>
