<svg width="32" height="32" viewBox="0 0 32 32" fill="none" xmlns="http://www.w3.org/2000/svg">
<path d="M16.0003 2.66394C23.3657 2.66394 29.3363 8.63461 29.3363 15.9999C29.3363 23.3639 23.3657 29.3333 16.0003 29.3333C8.63499 29.3346 2.66699 23.3639 2.66699 15.9999C2.66566 8.63461 8.63499 2.66394 16.0003 2.66394ZM16.0003 4.66394C14.5014 4.64768 13.0141 4.92887 11.6246 5.49124C10.2351 6.0536 8.9709 6.88597 7.90521 7.94016C6.83952 8.99436 5.99349 10.2495 5.41609 11.6328C4.83869 13.0161 4.54139 14.5003 4.54139 15.9993C4.54139 17.4983 4.83869 18.9824 5.41609 20.3658C5.99349 21.7491 6.83952 23.0042 7.90521 24.0584C8.9709 25.1126 10.2351 25.945 11.6246 26.5073C13.0141 27.0697 14.5014 27.3509 16.0003 27.3346C18.9853 27.3022 21.8371 26.0937 23.9365 23.9715C26.0359 21.8492 27.2134 18.9845 27.2134 15.9993C27.2134 13.0141 26.0359 10.1494 23.9365 8.0271C21.8371 5.90483 18.9853 4.69632 16.0003 4.66394ZM15.995 13.9973C16.2369 13.997 16.4707 14.0843 16.6531 14.2432C16.8355 14.4021 16.9541 14.6216 16.987 14.8613L16.9963 14.9973L17.0017 22.3333C17.0043 22.5884 16.9092 22.8349 16.736 23.0223C16.5627 23.2097 16.3244 23.3237 16.0698 23.3411C15.8152 23.3585 15.5636 23.2779 15.3665 23.1158C15.1694 22.9537 15.0418 22.7224 15.0097 22.4693L15.0017 22.3346L14.9963 14.9986C14.9963 14.7334 15.1017 14.479 15.2892 14.2915C15.4768 14.104 15.7311 13.9986 15.9963 13.9986L15.995 13.9973ZM16.0017 9.33461C16.18 9.32896 16.3577 9.35922 16.5242 9.42358C16.6906 9.48795 16.8425 9.58511 16.9706 9.70929C17.0988 9.83348 17.2007 9.98215 17.2703 10.1465C17.3399 10.3108 17.3758 10.4875 17.3758 10.6659C17.3758 10.8444 17.3399 11.0211 17.2703 11.1854C17.2007 11.3497 17.0988 11.4984 16.9706 11.6226C16.8425 11.7468 16.6906 11.8439 16.5242 11.9083C16.3577 11.9727 16.18 12.0029 16.0017 11.9973C15.6559 11.9863 15.3279 11.8413 15.0871 11.5928C14.8464 11.3443 14.7118 11.0119 14.7118 10.6659C14.7118 10.32 14.8464 9.98757 15.0871 9.73909C15.3279 9.49061 15.6559 9.34555 16.0017 9.33461Z" fill="white"/>
</svg>
