<svg width="68" height="68" viewBox="0 0 68 68" fill="none" xmlns="http://www.w3.org/2000/svg">
<rect width="58.8108" height="58.8108" rx="13.9823" transform="matrix(1 0 0 -1 0 58.8108)" fill="url(#paint0_linear_102_431)"/>
<g filter="url(#filter0_b_102_431)">
<rect width="58.8108" height="58.8108" rx="13.9823" transform="matrix(1 0 0 -1 9.18921 68)" fill="#EEEEEE" fill-opacity="0.61"/>
<rect x="0.5" y="-0.5" width="57.8108" height="57.8108" rx="13.4823" transform="matrix(1 0 0 -1 9.18921 67)" stroke="white"/>
</g>
<path d="M29.55 37.7593L28.9594 38.378L30.0844 39.4187L30.675 38.7999C30.9281 38.9405 31.2094 39.053 31.4625 39.0812L31.4906 39.9249L33.0094 39.8687L32.9812 39.0249C33.2625 38.9687 33.5156 38.828 33.7406 38.6874L34.3594 39.278L35.4 38.153L34.7812 37.5624C34.9219 37.3093 35.0344 37.028 35.0625 36.7749L35.9062 36.7468L35.85 35.1999L35.0062 35.228C34.95 34.9468 34.8094 34.6937 34.6687 34.4687L35.2594 33.8499L34.1344 32.8093L33.5437 33.428C33.2906 33.2874 33.0094 33.1749 32.7562 33.1468L32.7281 32.303L31.2094 32.3593L31.2375 33.203C30.9563 33.2593 30.7031 33.3999 30.4781 33.5405L29.8594 32.9499L28.8187 34.0749L29.4375 34.6655C29.2969 34.9187 29.1844 35.1999 29.1562 35.453L28.3125 35.4812L28.3688 36.9999L29.2125 36.9718C29.2688 37.2812 29.3813 37.5343 29.55 37.7593ZM32.0531 34.0749C33.2063 34.0468 34.1344 34.9187 34.1625 36.0718C34.1906 37.2249 33.3188 38.153 32.1656 38.1812C31.0125 38.2093 30.0844 37.3374 30.0563 36.1843C30.0281 35.0593 30.9281 34.103 32.0531 34.0749ZM32.475 42.7093L32.4469 41.6687L31.6312 41.6968C31.6031 41.6405 31.6031 41.5843 31.575 41.5562L32.1656 40.9655L31.4062 40.2343L30.8438 40.8249C30.7875 40.7968 30.7313 40.7687 30.675 40.7687L30.6469 39.953L29.6062 39.9812L29.6344 40.7968C29.6062 40.7968 29.5781 40.8249 29.5219 40.853C29.4937 40.853 29.4656 40.8812 29.4656 40.8812L28.875 40.3187L28.1438 41.078L28.7344 41.6405C28.7063 41.6968 28.6781 41.753 28.6781 41.8093L27.8625 41.8374L27.8906 42.878L28.7063 42.8499C28.7344 42.9062 28.7625 42.9624 28.7625 42.9905L28.1719 43.6093L28.9313 44.3405L29.5219 43.7218C29.5781 43.7499 29.6062 43.7499 29.6625 43.778L29.6906 44.6218L30.7312 44.5937L30.7031 43.7499C30.7312 43.7499 30.7594 43.7218 30.7875 43.7218C30.8156 43.7218 30.8156 43.7218 30.8438 43.6937L31.4625 44.2843L32.1937 43.5249L31.575 42.9343C31.6031 42.878 31.6312 42.8499 31.6312 42.7937L32.475 42.7093ZM30.7594 42.5968C30.5906 42.9062 30.1969 43.0468 29.8875 42.878C29.5781 42.7093 29.4375 42.3155 29.6062 42.0062C29.775 41.6968 30.1687 41.5562 30.4781 41.7249C30.7875 41.8937 30.9 42.2874 30.7594 42.5968ZM28.2 40.3187L27.1875 39.3905C27.2156 39.3062 27.2719 39.2218 27.3 39.1374L28.6781 39.1093L28.6219 37.3937L27.2438 37.4218C27.2156 37.3374 27.1875 37.253 27.1312 37.1687L28.0594 36.1562L26.8219 34.9749L25.8938 35.9874C25.8375 35.9593 25.7812 35.9312 25.725 35.9312C25.6969 35.9312 25.6688 35.903 25.6125 35.8749L25.5844 34.5249L23.8688 34.5812L23.8969 35.9312C23.8125 35.9593 23.7281 35.9874 23.6438 36.0437L22.6594 35.1155L21.4781 36.353L22.4906 37.2812C22.4625 37.3655 22.4063 37.4499 22.3781 37.5343L21 37.5624L21.0563 39.278L22.4625 39.2218C22.4906 39.3062 22.5187 39.3624 22.575 39.4468L21.6188 40.4874L22.8562 41.6687L23.8125 40.628C23.8688 40.6562 23.8969 40.6562 23.925 40.6843C23.9531 40.6843 23.9813 40.7124 24.0094 40.7124L24.0656 42.1468L25.7812 42.0905L25.725 40.6843C25.8094 40.6562 25.8656 40.628 25.95 40.5999L26.9906 41.5562L28.2 40.3187ZM25.3031 39.8968C24.4594 40.1499 23.5312 39.6718 23.2781 38.828C23.025 37.9843 23.5031 37.0562 24.3469 36.803C25.1906 36.5499 26.1187 37.028 26.3719 37.8718C26.6531 38.7155 26.175 39.6155 25.3031 39.8968ZM45.975 27.9155C48.3938 27.9155 50.3625 29.8843 50.3625 32.303C50.3625 34.7218 48.3938 36.6905 45.975 36.6905C43.5563 36.6905 41.5875 34.7218 41.5875 32.303C41.5875 29.8843 43.5563 27.9155 45.975 27.9155ZM51.4875 37.8155H41.5031C40.0688 37.8155 38.6344 38.0124 37.5938 39.4187C37.1437 40.1218 32.9812 45.353 32.9812 45.353H27.1312C26.0906 45.353 25.2188 46.2249 25.2188 47.2655C25.2188 48.3062 26.0906 49.178 27.1312 49.178H33.7969C34.275 49.178 34.7812 48.9812 35.1188 48.6155L39.0281 43.8624C39.1406 43.7499 39.225 43.6937 39.4219 43.6937C39.7313 43.6937 39.9844 43.8905 39.9844 44.2562V52.8624H52.0781V44.3968C52.0781 44.0874 52.275 43.8343 52.6406 43.8343C52.95 43.8343 53.2031 44.0312 53.2031 44.3968V52.8905H57V43.2999C57 40.2905 54.525 37.8155 51.4875 37.8155Z" fill="#5956E9"/>
<defs>
<filter id="filter0_b_102_431" x="1.73198" y="1.73198" width="73.7252" height="73.7252" filterUnits="userSpaceOnUse" color-interpolation-filters="sRGB">
<feFlood flood-opacity="0" result="BackgroundImageFix"/>
<feGaussianBlur in="BackgroundImageFix" stdDeviation="3.72861"/>
<feComposite in2="SourceAlpha" operator="in" result="effect1_backgroundBlur_102_431"/>
<feBlend mode="normal" in="SourceGraphic" in2="effect1_backgroundBlur_102_431" result="shape"/>
</filter>
<linearGradient id="paint0_linear_102_431" x1="29.4054" y1="0" x2="29.4054" y2="58.8108" gradientUnits="userSpaceOnUse">
<stop stop-color="#807DFF"/>
<stop offset="1" stop-color="#BAB9FF" stop-opacity="0.34"/>
</linearGradient>
</defs>
</svg>
