<svg width="46" height="44" viewBox="0 0 46 44" fill="none" xmlns="http://www.w3.org/2000/svg">
<line x1="19.645" y1="42.282" x2="19.645" y2="33.9174" stroke="#FF0080" stroke-width="2.52823" stroke-linecap="round"/>
<line x1="27.2513" y1="42.1001" x2="27.2513" y2="33.7356" stroke="#FF0080" stroke-width="2.52823" stroke-linecap="round"/>
<path d="M18.7537 12.3849L3.10563 21.4046C2.32252 21.856 1.83997 22.6911 1.83997 23.595V23.7561C1.83997 25.1524 2.9719 26.2843 4.36821 26.2843H41.6317C43.028 26.2843 44.16 25.1524 44.16 23.7561V11.3381C44.16 9.20381 41.6786 8.02978 40.0284 9.38329L30.555 17.1533C29.6356 17.9074 28.315 17.9189 27.3827 17.181L21.5852 12.5928C20.773 11.9501 19.651 11.8677 18.7537 12.3849Z" fill="#00F3FF"/>
<rect x="1.26412" y="1.26412" width="43.4718" height="32.3288" rx="3.79235" stroke="#7928CA" stroke-width="2.52823"/>
<line x1="10.6732" y1="42.7359" x2="36.7591" y2="42.7359" stroke="#7928CA" stroke-width="2.52823" stroke-linecap="round"/>
<path d="M1.83997 26.7456H43.403" stroke="#7928CA" stroke-width="2.52823"/>
</svg>
