<svg width="42" height="46" viewBox="0 0 42 46" fill="none" xmlns="http://www.w3.org/2000/svg">
<line y1="-1.26412" x2="7.252" y2="-1.26412" transform="matrix(0.57699 0.816751 -0.810683 0.585486 18.4109 39.231)" stroke="#7928CA" stroke-width="2.52823"/>
<line y1="-1.26412" x2="10.4287" y2="-1.26412" transform="matrix(0.655082 0.755558 -0.748345 0.66331 6.55832 25.4277)" stroke="#7928CA" stroke-width="2.52823"/>
<line y1="-1.26412" x2="10.3538" y2="-1.26412" transform="matrix(0.763893 -0.645343 0.637008 0.770857 7.15424 19.6816)" stroke="#7928CA" stroke-width="2.52823"/>
<line x1="7.95885" y1="44.7359" x2="32.2103" y2="44.7359" stroke="#7928CA" stroke-width="2.52823" stroke-linecap="round"/>
<line y1="-1.26412" x2="6.5651" y2="-1.26412" transform="matrix(0.998946 0.0459104 -0.0449101 0.998991 20.9216 11.0425)" stroke="#7928CA" stroke-width="2.52823"/>
<ellipse cx="5.88746" cy="20.6806" rx="5.88746" ry="5.9528" fill="#00F3FF"/>
<path d="M21.2753 9.58715C21.2753 11.6904 19.5926 13.3716 17.5462 13.3716C15.4999 13.3716 13.8172 11.6904 13.8172 9.58715C13.8172 7.48386 15.4999 5.80269 17.5462 5.80269C19.5926 5.80269 21.2753 7.48386 21.2753 9.58715Z" stroke="#FF0080" stroke-width="2.52823"/>
<path d="M20.4384 34.9714C20.4384 37.0747 18.7557 38.7559 16.7093 38.7559C14.6629 38.7559 12.9803 37.0747 12.9803 34.9714C12.9803 32.8681 14.6629 31.187 16.7093 31.187C18.7557 31.187 20.4384 32.8681 20.4384 34.9714Z" stroke="#FF0080" stroke-width="2.52823"/>
<path d="M40.0001 6.44074L32.098 2L27.4799 9.73211L32.098 17.6732L40.0001 13.3892" stroke="#7928CA" stroke-width="2.52823" stroke-linecap="round"/>
</svg>
