<svg width="68" height="68" viewBox="0 0 68 68" fill="none" xmlns="http://www.w3.org/2000/svg">
<rect width="58.8108" height="58.8108" rx="13.9823" transform="matrix(1 0 0 -1 0 58.8108)" fill="url(#paint0_linear_102_478)"/>
<g filter="url(#filter0_b_102_478)">
<rect width="58.8108" height="58.8108" rx="13.9823" transform="matrix(1 0 0 -1 9.18919 68)" fill="#EEEEEE" fill-opacity="0.61"/>
<rect x="0.5" y="-0.5" width="57.8108" height="57.8108" rx="13.4823" transform="matrix(1 0 0 -1 9.18919 67)" stroke="white"/>
</g>
<path d="M35.3198 45.0789C35.2664 45.2969 33.9502 50.2188 26.625 50.2188C26.4012 50.2188 26.1866 50.1299 26.0284 49.9717C25.8701 49.8134 25.7812 49.5988 25.7812 49.375C25.7812 42.0499 30.7116 40.7336 30.9211 40.6816C31.1366 40.6316 31.3632 40.6683 31.552 40.7838C31.7407 40.8992 31.8766 41.0842 31.9302 41.2989C31.9839 41.5136 31.9511 41.7407 31.8389 41.9314C31.7267 42.1221 31.544 42.2611 31.3303 42.3185C31.1897 42.3564 27.8372 43.3141 27.4969 48.506C32.7478 48.1586 33.6731 44.7091 33.6844 44.6725C33.7386 44.4553 33.877 44.2685 34.069 44.1532C34.261 44.038 34.4909 44.0037 34.7081 44.058C34.9254 44.1123 35.1122 44.2506 35.2274 44.4426C35.3427 44.6346 35.3769 44.8645 35.3227 45.0817L35.3198 45.0789ZM48.4725 35.4714L47.7187 36.2238V44.5446C47.7193 44.803 47.6686 45.0589 47.5696 45.2976C47.4707 45.5364 47.3254 45.7531 47.1422 45.9353L42.3117 50.7658C42.0534 51.0239 41.7284 51.2051 41.3731 51.2891C41.0177 51.3731 40.646 51.3566 40.2995 51.2415C39.9529 51.1264 39.6453 50.9171 39.4108 50.6372C39.1764 50.3573 39.0244 50.0176 38.9719 49.6563L38.2041 44.1508L31.8534 37.796L26.3508 37.0282C25.9886 36.9769 25.6478 36.8258 25.3667 36.5917C25.0856 36.3576 24.8752 36.0498 24.7593 35.7028C24.6433 35.3558 24.6264 34.9834 24.7103 34.6274C24.7941 34.2713 24.9756 33.9456 25.2342 33.6869L30.0647 28.8564C30.247 28.6734 30.4638 28.5284 30.7025 28.4296C30.9412 28.3309 31.1971 28.2805 31.4555 28.2813H39.7762L40.5286 27.5289C44.2003 23.8572 48.6244 23.6997 50.3555 23.8024C50.8345 23.8319 51.2862 24.0355 51.6257 24.3747C51.9652 24.714 52.1691 25.1656 52.1991 25.6446C52.3017 27.3757 52.1428 31.7969 48.4725 35.4714ZM26.587 35.3575L31.9505 36.1057L38.0887 29.9688H31.4555C31.381 29.9691 31.3097 29.9989 31.2572 30.0517L26.4281 34.8794C26.3922 34.9156 26.3668 34.9609 26.3547 35.0105C26.3426 35.06 26.3441 35.1119 26.3592 35.1607C26.3735 35.2123 26.4028 35.2585 26.4433 35.2936C26.4839 35.3286 26.5339 35.3509 26.587 35.3575ZM46.0312 37.9113L39.893 44.0496L40.6411 49.4158C40.6488 49.4674 40.6708 49.5159 40.7045 49.5558C40.7382 49.5956 40.7823 49.6253 40.832 49.6415C40.8816 49.6577 40.9347 49.6598 40.9855 49.6475C41.0362 49.6352 41.0825 49.609 41.1192 49.5719L45.9483 44.7428C46.0011 44.6903 46.0309 44.619 46.0312 44.5446V37.9113ZM50.5144 25.75C50.5089 25.6836 50.4801 25.6213 50.4329 25.5741C50.3858 25.527 50.3235 25.4981 50.257 25.4927C48.6861 25.3919 47.1117 25.6283 45.6397 26.1862C44.1677 26.744 42.8321 27.6104 41.7225 28.7271L33.4439 37L39 42.5561L46.2787 35.2788L47.2786 34.2789C48.3948 33.1701 49.261 31.8355 49.819 30.3645C50.3771 28.8935 50.6142 27.3202 50.5144 25.75Z" fill="#E749EE"/>
<defs>
<filter id="filter0_b_102_478" x="1.73197" y="1.73198" width="73.7253" height="73.7252" filterUnits="userSpaceOnUse" color-interpolation-filters="sRGB">
<feFlood flood-opacity="0" result="BackgroundImageFix"/>
<feGaussianBlur in="BackgroundImageFix" stdDeviation="3.72861"/>
<feComposite in2="SourceAlpha" operator="in" result="effect1_backgroundBlur_102_478"/>
<feBlend mode="normal" in="SourceGraphic" in2="effect1_backgroundBlur_102_478" result="shape"/>
</filter>
<linearGradient id="paint0_linear_102_478" x1="29.4054" y1="0" x2="29.4054" y2="58.8108" gradientUnits="userSpaceOnUse">
<stop stop-color="#E541ED"/>
<stop offset="1" stop-color="#FEEBFF"/>
</linearGradient>
</defs>
</svg>
