<svg width="28" height="28" viewBox="0 0 28 28" fill="none" xmlns="http://www.w3.org/2000/svg">
<path d="M20.4167 10.4988C19.3723 10.4987 18.3442 10.7572 17.4242 11.2513C17.3401 11.0301 17.1908 10.8396 16.996 10.7052C16.8011 10.5708 16.57 10.4988 16.3333 10.4988H11.6667C11.3572 10.4988 11.0605 10.6218 10.8417 10.8405C10.6229 11.0593 10.5 11.3561 10.5 11.6655V25.6655C10.5 25.9749 10.6229 26.2717 10.8417 26.4905C11.0605 26.7093 11.3572 26.8322 11.6667 26.8322H16.3333C16.6427 26.8322 16.9395 26.7093 17.1583 26.4905C17.3771 26.2717 17.5 25.9749 17.5 25.6655V19.2488C17.5 18.9394 17.6229 18.6427 17.8417 18.4239C18.0605 18.2051 18.3572 18.0822 18.6667 18.0822C18.9761 18.0822 19.2728 18.2051 19.4916 18.4239C19.7104 18.6427 19.8333 18.9394 19.8333 19.2488V25.6655C19.8333 25.9749 19.9562 26.2717 20.175 26.4905C20.3938 26.7093 20.6906 26.8322 21 26.8322H25.6667C25.9761 26.8322 26.2728 26.7093 26.4916 26.4905C26.7104 26.2717 26.8333 25.9749 26.8333 25.6655V16.9155C26.8312 15.2144 26.1544 13.5835 24.9515 12.3806C23.7486 11.1777 22.1178 10.501 20.4167 10.4988ZM24.5 24.4988H22.1667V19.2488C22.1667 18.3206 21.7979 17.4303 21.1415 16.774C20.4852 16.1176 19.5949 15.7488 18.6667 15.7488C17.7384 15.7488 16.8482 16.1176 16.1918 16.774C15.5354 17.4303 15.1667 18.3206 15.1667 19.2488V24.4988H12.8333V12.8322H15.1667V13.6523C15.1665 13.8942 15.2416 14.13 15.3814 14.3274C15.5212 14.5247 15.7188 14.6737 15.947 14.7537C16.1752 14.8338 16.4226 14.841 16.655 14.7743C16.8875 14.7076 17.0935 14.5704 17.2445 14.3815C17.7682 13.7166 18.4865 13.2319 19.2991 12.995C20.1116 12.7581 20.9779 12.7808 21.7769 13.06C22.5759 13.3391 23.2678 13.8609 23.756 14.5523C24.2442 15.2437 24.5043 16.0703 24.5 16.9167V24.4988ZM8.16666 10.4988H3.49999C3.19057 10.4988 2.89383 10.6218 2.67503 10.8405C2.45624 11.0593 2.33333 11.3561 2.33333 11.6655V25.6655C2.33333 25.9749 2.45624 26.2717 2.67503 26.4905C2.89383 26.7093 3.19057 26.8322 3.49999 26.8322H8.16666C8.47608 26.8322 8.77282 26.7093 8.99162 26.4905C9.21041 26.2717 9.33332 25.9749 9.33332 25.6655V11.6655C9.33332 11.3561 9.21041 11.0593 8.99162 10.8405C8.77282 10.6218 8.47608 10.4988 8.16666 10.4988ZM6.99999 24.4988H4.66666V12.8322H6.99999V24.4988ZM5.85083 1.799C5.33993 1.76788 4.82805 1.84106 4.34634 2.01409C3.86464 2.18712 3.42319 2.45638 3.04887 2.80548C2.67456 3.15458 2.37522 3.57621 2.16907 4.0447C1.96292 4.51319 1.85427 5.01874 1.84976 5.53056C1.84524 6.04238 1.94494 6.54977 2.14279 7.02182C2.34063 7.49388 2.63249 7.92073 3.00058 8.27638C3.36867 8.63204 3.8053 8.90905 4.28387 9.09056C4.76245 9.27207 5.27296 9.35427 5.78433 9.33217H5.81699C6.32817 9.36137 6.83995 9.2862 7.32114 9.11122C7.80233 8.93624 8.24285 8.66512 8.61587 8.31438C8.98889 7.96365 9.2866 7.54063 9.49085 7.07112C9.6951 6.60161 9.80162 6.09543 9.80392 5.58342C9.80622 5.07141 9.70425 4.56429 9.50422 4.09296C9.3042 3.62163 9.01031 3.19597 8.64045 2.84189C8.2706 2.48782 7.83252 2.21276 7.35293 2.03346C6.87333 1.85417 6.36225 1.77439 5.85083 1.799ZM5.81699 6.99884H5.78433C5.58254 7.02347 5.37782 7.00467 5.1839 6.94369C4.98998 6.88272 4.81135 6.78098 4.65997 6.64529C4.5086 6.50961 4.388 6.34313 4.30625 6.15701C4.2245 5.97089 4.1835 5.76944 4.18599 5.56617C4.18599 4.69467 4.83933 4.13234 5.85083 4.13234C6.05454 4.10553 6.26163 4.12263 6.45818 4.18251C6.65474 4.24238 6.8362 4.34363 6.99037 4.47946C7.14454 4.61528 7.26785 4.78254 7.35202 4.96998C7.43618 5.15742 7.47925 5.3607 7.47832 5.56617C7.47832 6.4365 6.82616 6.99884 5.81699 6.99884Z" fill="white"/>
</svg>
