<svg width="32" height="32" viewBox="0 0 32 32" fill="none" xmlns="http://www.w3.org/2000/svg">
<path d="M29.3327 11.4773V22.3333C29.3328 23.4402 28.9093 24.5051 28.1491 25.3096C27.389 26.1142 26.3498 26.5973 25.2447 26.66L24.9993 26.6667H6.99935C5.8925 26.6667 4.82758 26.2433 4.02304 25.4831C3.2185 24.7229 2.73535 23.6837 2.67268 22.5787L2.66602 22.3333V11.4773L15.5353 18.2187C15.6785 18.2937 15.8377 18.3328 15.9993 18.3328C16.161 18.3328 16.3202 18.2937 16.4633 18.2187L29.3327 11.4773ZM6.99935 5.33334H24.9993C26.0735 5.33321 27.1093 5.732 27.9061 6.45236C28.7028 7.17272 29.2036 8.16331 29.3113 9.232L15.9993 16.2053L2.68735 9.232C2.79071 8.20575 3.25675 7.25003 4.00168 6.53662C4.74662 5.82321 5.72159 5.39892 6.75135 5.34L6.99935 5.33334Z" fill="#00F3FF"/>
</svg>
