<svg width="56" height="56" viewBox="0 0 56 56" fill="none" xmlns="http://www.w3.org/2000/svg">
<path d="M48.538 27.2475C48.7321 31.6992 47.4754 36.0936 44.957 39.7697C42.4386 43.4458 38.7947 46.2047 34.5734 47.6316C30.352 49.0584 25.7815 49.076 21.5493 47.6817C17.3171 46.2874 13.6521 43.5566 11.1055 39.9" stroke="#102447" stroke-width="2.625" stroke-linecap="round"/>
<path d="M7.40303 28.6475C7.37233 27.1804 7.49551 25.714 7.77053 24.2725C8.53032 20.3097 10.4388 16.6578 13.2584 13.7713C16.078 10.8849 19.6842 8.89142 23.6281 8.03902C27.5721 7.18662 31.6797 7.51294 35.4396 8.97736C39.1996 10.4418 42.4458 12.9796 44.7743 16.275" stroke="#102447" stroke-width="2.625" stroke-linecap="round"/>
<path d="M35.5234 15.3999L45.0172 16.5112L45.9622 7.6037" stroke="#102447" stroke-width="2.625" stroke-linecap="round"/>
<path d="M20.1692 40.5388L10.6842 39.4276L9.73047 48.3351" stroke="#102447" stroke-width="2.625" stroke-linecap="round"/>
<path d="M34.1256 22.3737C33.6388 21.2405 32.8251 20.2781 31.7887 19.6095C30.7523 18.9409 29.54 18.5964 28.3069 18.62C23.0569 18.62 22.8731 22.3737 22.8731 22.3737C22.8731 22.3737 22.0856 26.9937 28.4994 27.4925C35.1581 28 34.1256 32.6025 34.1256 32.6025C34.1256 32.6025 33.4431 36.61 28.4994 36.8637C23.5556 37.1175 22.0156 31.92 22.0156 31.92" stroke="#102447" stroke-width="2.625"/>
<path d="M28.2891 15.295V40.705" stroke="#102447" stroke-width="2.625"/>
</svg>
