<svg width="240" height="240" viewBox="0 0 240 240" fill="none" xmlns="http://www.w3.org/2000/svg">
<path d="M90 194C137.496 194 176 155.496 176 108C176 60.5035 137.496 22 90 22C42.5035 22 4 60.5035 4 108C4 155.496 42.5035 194 90 194Z" fill="#E6FDFF"/>
<path d="M121.601 55.4932L119.035 59.3189" stroke="white" stroke-width="3.28125" stroke-miterlimit="10" stroke-linecap="round"/>
<path d="M126.66 60.3803L123 62.1816" stroke="white" stroke-width="3.28125" stroke-miterlimit="10" stroke-linecap="round"/>
<path d="M114.589 57.1959L114.528 52.8319" stroke="white" stroke-width="3.28125" stroke-miterlimit="10" stroke-linecap="round"/>
<path d="M121.116 146.217L126.901 140.362L163.214 176.244L157.429 182.099L121.116 146.217Z" fill="#DBE7FE" stroke="#102447" stroke-width="2.5"/>
<path d="M149.641 158.316L149.643 158.318L149.641 158.316ZM139.148 168.577L149.644 158.558C149.682 158.557 149.724 158.555 149.769 158.555C149.811 158.555 149.851 158.556 149.887 158.558L178.39 186.57C178.391 186.603 178.392 186.638 178.392 186.676C178.392 186.715 178.391 186.752 178.39 186.786L167.954 197.101L139.148 168.783C139.147 168.75 139.146 168.715 139.146 168.677C139.146 168.642 139.147 168.608 139.148 168.577ZM168.398 197.537L168.396 197.535L168.398 197.537Z" fill="#E691E8" stroke="#102447" stroke-width="2.5"/>
<path d="M141.432 110.625C141.432 137.549 119.606 159.375 92.6816 159.375C65.7578 159.375 43.9316 137.549 43.9316 110.625C43.9316 83.7008 65.7578 61.8746 92.6816 61.8746C119.606 61.8746 141.432 83.7008 141.432 110.625Z" fill="#569FDF" stroke="#102447" stroke-width="2.5"/>
<path d="M131.588 110.074C131.588 131.314 114.37 148.532 93.131 148.532C71.8917 148.532 54.6738 131.314 54.6738 110.074C54.6738 88.8351 71.8917 71.6172 93.131 71.6172C114.37 71.6172 131.588 88.8351 131.588 110.074Z" fill="#E5FDFF" stroke="#102447" stroke-width="2.5"/>
<path d="M173.351 67.1795C162.221 63.5718 150.193 69.6734 146.57 80.8492C142.963 91.9792 149.064 104.007 160.24 107.63C171.416 111.252 183.413 105.09 187.021 93.9598C190.63 82.8292 184.481 70.787 173.351 67.1795ZM169.993 77.5409C171.238 77.9447 172.336 78.7094 173.147 79.7381C173.957 80.7667 174.444 82.0129 174.545 83.3186C174.647 84.6243 174.358 85.9307 173.716 87.072C173.074 88.2134 172.107 89.1383 170.938 89.7295C169.77 90.3207 168.452 90.5515 167.152 90.3926C165.852 90.2337 164.629 89.6924 163.637 88.8372C162.645 87.982 161.929 86.8515 161.581 85.5891C161.232 84.3267 161.267 82.9892 161.68 81.7463C162.794 78.3077 166.553 76.4263 169.993 77.5409ZM161.589 103.467C158.227 102.383 155.303 100.266 153.224 97.4318C152.885 96.9696 153.045 96.3217 153.558 96.0653C157.194 94.2471 160.943 93.8076 164.361 94.9154C167.784 96.0247 170.616 98.5591 172.455 102.192C172.711 102.698 172.459 103.307 171.92 103.482C168.569 104.563 164.953 104.563 161.589 103.467Z" fill="#1E247E"/>
<path d="M80.7116 168.602C78.7783 169.589 77.1811 171.127 76.122 173.022C75.0628 174.916 74.5892 177.082 74.761 179.246C74.9329 181.41 75.7425 183.474 77.0875 185.177C78.4325 186.881 80.2524 188.147 82.3172 188.817C84.382 189.486 86.5988 189.528 88.6874 188.937C90.776 188.346 92.6426 187.15 94.051 185.498C95.4594 183.847 96.3465 181.815 96.6 179.659C96.8536 177.503 96.4622 175.321 95.4754 173.388C94.1498 170.798 91.8509 168.839 89.083 167.942C86.3152 167.045 83.3045 167.282 80.7116 168.602ZM83.2677 173.61C83.2677 173.61 83.2678 173.61 83.2679 173.61C83.8699 173.303 84.5497 173.181 85.221 173.261C85.8923 173.34 86.5249 173.617 87.0385 174.057C87.5521 174.496 87.9235 175.079 88.1057 175.73C88.2879 176.381 88.2727 177.071 88.0619 177.714C87.8511 178.356 87.4542 178.921 86.9217 179.338C86.3892 179.754 85.745 180.003 85.0708 180.053C84.3966 180.103 83.7228 179.951 83.1349 179.617C82.5469 179.284 82.0713 178.783 81.7684 178.178C81.367 177.373 81.2992 176.441 81.5799 175.586C81.8605 174.731 82.4669 174.021 83.2675 173.61C83.2676 173.61 83.2677 173.61 83.2677 173.61ZM89.6633 186.14C89.6633 186.14 89.6632 186.14 89.6631 186.14C88.1926 186.893 86.5441 187.206 84.9135 187.053C84.3429 187 83.9947 186.424 84.2043 185.89C84.8946 184.133 86.0373 182.781 87.5542 182.007C89.0753 181.231 90.8535 181.076 92.6824 181.565C93.2305 181.712 93.4848 182.326 93.1973 182.816C92.3644 184.232 91.1409 185.388 89.6636 186.139C89.6634 186.139 89.6633 186.14 89.6633 186.14Z" fill="#1E247E"/>
<path d="M81.5195 131.036L85.2695 133.942" stroke="#1E247E" stroke-width="1.17188" stroke-miterlimit="10" stroke-linecap="round"/>
<path d="M81.5195 127.426L89.0664 133.192" stroke="#1E247E" stroke-width="1.17188" stroke-miterlimit="10" stroke-linecap="round"/>
<path d="M86.957 127.942L89.0664 129.536" stroke="#1E247E" stroke-width="1.17188" stroke-miterlimit="10" stroke-linecap="round"/>
<g opacity="0.7">
<path d="M99.2081 108.503H89.9289C89.2002 108.503 88.6172 107.92 88.6172 107.191V102.746C88.6172 102.017 89.2002 101.434 89.9289 101.434H99.2081C99.9368 101.434 100.52 102.017 100.52 102.746V107.191C100.52 107.92 99.9368 108.503 99.2081 108.503Z" fill="white"/>
<path d="M99.1104 98.4951H89.8312C89.1025 98.4951 88.5195 97.9121 88.5195 97.1834V92.7381C88.5195 92.0094 89.1025 91.4264 89.8312 91.4264H99.1104C99.8392 91.4264 100.422 92.0094 100.422 92.7381V97.1834C100.398 97.9121 99.8149 98.4951 99.1104 98.4951Z" fill="white"/>
</g>
<path d="M213.672 198.062H221.125" stroke="#1E247E" stroke-width="2.8125" stroke-miterlimit="10" stroke-linecap="round" stroke-linejoin="round"/>
<path d="M36.5312 198.062H205.984" stroke="#1E247E" stroke-width="2.8125" stroke-miterlimit="10" stroke-linecap="round" stroke-linejoin="round"/>
<path d="M19 198.062H28.7969" stroke="#1E247E" stroke-width="2.8125" stroke-miterlimit="10" stroke-linecap="round" stroke-linejoin="round"/>
</svg>
