<svg width="32" height="32" viewBox="0 0 32 32" fill="none" xmlns="http://www.w3.org/2000/svg">
<path d="M26.5602 28.568C27.6205 28.568 28.4802 27.7083 28.4802 26.648V11.8166C28.4802 10.7563 27.6205 9.89662 26.5602 9.89662H5.44023C4.37992 9.89662 3.52023 10.7563 3.52023 11.8166V26.648C3.52023 27.7083 4.37992 28.568 5.44023 28.568H26.5602ZM26.5602 29.848H5.44023C3.67302 29.848 2.24023 28.4152 2.24023 26.648V11.8166C2.24023 10.0494 3.67302 8.61662 5.44023 8.61662H26.5602C28.3275 8.61662 29.7602 10.0494 29.7602 11.8166V26.648C29.7602 28.4152 28.3275 29.848 26.5602 29.848Z" fill="#00F3FF"/>
<path d="M7.33594 9.29512V28.7498C7.33594 29.1033 7.62247 29.3898 7.97594 29.3898C8.32941 29.3898 8.61594 29.1033 8.61594 28.7498V9.29512C8.61594 8.94165 8.32941 8.65512 7.97594 8.65512C7.62247 8.65512 7.33594 8.94165 7.33594 9.29512ZM23.3679 9.60506V29.0598C23.3679 29.4132 23.6545 29.6998 24.0079 29.6998C24.3614 29.6998 24.6479 29.4132 24.6479 29.0598V9.60506C24.6479 9.25159 24.3614 8.96506 24.0079 8.96506C23.6545 8.96506 23.3679 9.25159 23.3679 9.60506ZM12.1599 8.96V5.12C12.1599 4.05969 13.0196 3.2 14.0799 3.2H18.5599C19.6203 3.2 20.4799 4.05969 20.4799 5.12V8.96C20.4799 9.31347 20.7665 9.6 21.1199 9.6C21.4734 9.6 21.7599 9.31347 21.7599 8.96V5.12C21.7599 3.35278 20.3272 1.92 18.5599 1.92H14.0799C12.3127 1.92 10.8799 3.35278 10.8799 5.12V8.96C10.8799 9.31347 11.1665 9.6 11.5199 9.6C11.8734 9.6 12.1599 9.31347 12.1599 8.96Z" fill="#00F3FF"/>
</svg>
