<svg width="32" height="32" viewBox="0 0 32 32" fill="none" xmlns="http://www.w3.org/2000/svg">
<g clip-path="url(#clip0_682_387)">
<path d="M16.6867 13.2539V20.8418C16.6867 21.2219 16.3813 21.53 16.0045 21.53C15.6278 21.53 15.3224 21.2219 15.3224 20.8418V13.2539H15.1144C15.0555 13.2602 14.9957 13.2634 14.9352 13.2634H12.361C7.46316 13.2634 3.49278 9.2581 3.49278 4.31716C3.49278 1.93278 5.40882 -9.15527e-05 7.77238 -9.15527e-05C11.4676 -9.15527e-05 14.6348 2.27972 15.9675 5.52113C17.3001 2.27972 20.4674 -9.15527e-05 24.1626 -9.15527e-05C26.5261 -9.15527e-05 28.4422 1.93278 28.4422 4.31716C28.4422 9.2581 24.4718 13.2634 19.5739 13.2634H16.9998C16.9399 13.2634 16.8801 13.2603 16.8205 13.2539H16.6868H16.6867ZM15.0136 11.8776C15.1628 11.8411 15.2762 11.7035 15.2762 11.543V8.94616C15.2762 4.76538 11.9167 1.37625 7.77235 1.37625C6.16228 1.37625 4.8571 2.69291 4.8571 4.31716C4.8571 8.44294 8.12882 11.7978 12.1978 11.8853C12.2317 11.8801 12.266 11.8776 12.3003 11.8776H15.0136V11.8776ZM19.5549 11.8871H19.5739C23.7183 11.8871 27.0778 8.49797 27.0778 4.31716C27.0778 2.69294 25.7726 1.37625 24.1626 1.37625C20.0182 1.37625 16.6587 4.76535 16.6587 8.94616V11.543C16.6587 11.7035 16.7721 11.8411 16.9213 11.8776H19.4416C19.4802 11.8776 19.5181 11.8808 19.555 11.8871H19.5549ZM29.296 23.4931C26.9627 25.5156 21.8767 26.8056 15.9988 26.8056C10.1198 26.8056 5.033 25.5151 2.70028 23.492V25.8828C2.70028 25.9 2.69966 25.917 2.69844 25.9338C2.70116 25.9589 2.70257 25.9843 2.70257 26.0101C2.70257 28.3278 8.63425 30.5441 15.997 30.5441C23.3598 30.5441 29.2915 28.3278 29.2915 26.0101C29.2915 25.9834 29.293 25.9571 29.2959 25.9312L29.296 23.4931ZM30.6538 20.8327C30.6581 20.8638 30.6603 20.8956 30.6603 20.9279V26.0204C30.6603 26.0528 30.6581 26.0846 30.6538 26.1158C30.5208 29.5107 23.9897 31.9204 15.9971 31.9204C7.92166 31.9204 1.33825 29.4606 1.33825 26.01C1.33825 25.9928 1.33888 25.9758 1.3401 25.9589C1.33735 25.9336 1.33597 25.9082 1.33597 25.8827V21.031C1.33332 20.9621 1.33332 20.8932 1.33597 20.8243V20.7214C1.33597 20.6531 1.34585 20.587 1.36425 20.5247C1.75347 17.9497 5.86169 15.9965 11.5901 15.3213C11.6459 15.3147 11.7024 15.315 11.7582 15.3223C12.4544 15.2428 13.1732 15.1824 13.9104 15.1423C14.2867 15.1218 14.6081 15.4129 14.6284 15.7924C14.6487 16.1719 14.3602 16.4962 13.9839 16.5167C7.51547 16.8687 2.70569 18.9125 2.70569 20.9457C2.70569 21.167 2.76122 21.3875 2.86819 21.6053C3.87894 23.6262 9.28128 25.4011 15.8302 25.4011C23.1029 25.4011 28.9619 23.212 28.9619 20.928C28.9619 19.1578 25.2638 17.3102 19.8598 16.6823C19.8138 16.6769 19.7684 16.6669 19.7244 16.6524C19.1572 16.5931 18.5885 16.5479 18.019 16.517C17.6428 16.4965 17.3544 16.1722 17.3747 15.7927C17.3951 15.4132 17.7166 15.1222 18.0928 15.1427C25.1599 15.5285 30.5245 17.7772 30.6539 20.8326L30.6538 20.8327Z" fill="#00F3FF"/>
</g>
<defs>
<clipPath id="clip0_682_387">
<rect width="32" height="32" fill="white"/>
</clipPath>
</defs>
</svg>
