<svg width="128" height="130" viewBox="0 0 128 130" fill="none" xmlns="http://www.w3.org/2000/svg">
<rect width="128" height="130" rx="20" fill="#F6FAFD"/>
<path d="M84.5363 64.2476C84.7303 68.6993 83.4737 73.0937 80.9553 76.7698C78.4369 80.4458 74.793 83.2048 70.5717 84.6316C66.3503 86.0585 61.7798 86.0761 57.5476 84.6818C53.3154 83.2874 49.6504 80.5566 47.1038 76.9001" stroke="#102447" stroke-width="2.625" stroke-linecap="round"/>
<path d="M43.4025 65.6475C43.3718 64.1803 43.495 62.714 43.77 61.2725C44.5298 57.3096 46.4383 53.6577 49.2579 50.7713C52.0775 47.8848 55.6837 45.8914 59.6277 45.039C63.5716 44.1866 67.6792 44.5129 71.4392 45.9773C75.1991 47.4417 78.4453 49.9796 80.7738 53.275" stroke="#102447" stroke-width="2.625" stroke-linecap="round"/>
<path d="M71.5251 52.4L81.0189 53.5113L81.9639 44.6038" stroke="#102447" stroke-width="2.625" stroke-linecap="round"/>
<path d="M56.1687 77.5387L46.6837 76.4275L45.73 85.335" stroke="#102447" stroke-width="2.625" stroke-linecap="round"/>
<path d="M70.1249 59.3738C69.638 58.2405 68.8244 57.2782 67.788 56.6095C66.7515 55.9409 65.5393 55.5964 64.3061 55.62C59.0561 55.62 58.8724 59.3738 58.8724 59.3738C58.8724 59.3738 58.0849 63.9938 64.4986 64.4925C71.1574 65 70.1249 69.6025 70.1249 69.6025C70.1249 69.6025 69.4424 73.61 64.4986 73.8638C59.5549 74.1175 58.0149 68.92 58.0149 68.92" stroke="#102447" stroke-width="2.625"/>
<path d="M64.2888 52.2949V77.7049" stroke="#102447" stroke-width="2.625"/>
</svg>
