<svg width="128" height="130" viewBox="0 0 128 130" fill="none" xmlns="http://www.w3.org/2000/svg">
<rect width="128" height="130" rx="20" fill="#F6FAFD"/>
<g clip-path="url(#clip0_158_1679)">
<path d="M40.0112 41.2378V73.1534H58.8622V75.9635H52.7941V77.7174H75.8122V75.9635H69.7441V73.1534H87.9999V41.2378H40.0112ZM86.246 42.9917V67.8277H41.7651V42.9917H86.246ZM67.9901 75.9634H60.6162V73.1533H67.9901V75.9634ZM41.7651 71.3994V69.5815H86.246V71.3994H41.7651Z" fill="#102447"/>
<path d="M42.7293 80.5193L40 88.0609H79.681L76.9516 80.5193H42.7293ZM42.5 86.3069L43.9597 82.2732H75.7211L77.181 86.3069H42.5Z" fill="#102447"/>
<path d="M86.738 81.7651C86.3431 80.3495 85.0418 79.3608 83.5735 79.3608C83.3031 79.3608 83.032 79.3946 82.7679 79.4612C81.0249 79.9009 79.9697 81.6189 80.3659 83.3725L81.0044 86.199C81.3453 87.7082 82.6628 88.7622 84.2084 88.7622C84.4789 88.7622 84.7501 88.7285 85.0143 88.6618L85.1545 88.6264C86.0208 88.4078 86.7451 87.8618 87.1935 87.089C87.642 86.3163 87.7566 85.4167 87.5167 84.5561L86.738 81.7651ZM85.6765 86.2089C85.4673 86.5694 85.1296 86.8241 84.7255 86.9259L84.5854 86.9612C84.4612 86.9926 84.3345 87.0085 84.2084 87.0085C83.4996 87.0085 82.8716 86.5056 82.7152 85.8125L82.0766 82.986C81.8919 82.1681 82.384 81.3668 83.1969 81.1618C83.3209 81.1304 83.4476 81.1146 83.5735 81.1146C84.2579 81.1146 84.8644 81.5758 85.0486 82.2362L85.8272 85.0276C85.9391 85.429 85.8856 85.8485 85.6765 86.2089Z" fill="#102447"/>
<path d="M64.4968 58.2158L67.5669 61.2859L68.8071 60.0457L65.7371 56.9757L67.9023 54.8104L58.1553 50.6343L62.3316 60.3811L64.4968 58.2158ZM64.8301 55.4022L62.9234 57.3088L61.494 53.9728L64.8301 55.4022Z" fill="#102447"/>
</g>
<defs>
<clipPath id="clip0_158_1679">
<rect width="48" height="48" fill="white" transform="translate(40 41)"/>
</clipPath>
</defs>
</svg>
