<svg version="1.2" xmlns="http://www.w3.org/2000/svg" viewBox="0 0 194 36" width="194" height="36">
	<title>Stars1-svg</title>
	<style>
		.s0 { fill: #102447 } 
	</style>
	<path id="Layer" fill-rule="evenodd" class="s0" d="m124.7 8.9q0 0 0 0 0.1 0.1 0.2 0.3c0 0 0 0.1 0.1 0.2q0.1-0.1 0.1-0.1 0.1 0.2 0.3 0.5 0.1 0.2 0.2 0.4c0.2 0.2 0.3 0.4 0.5 0.6q0-0.1 0-0.1c0.2-0.1 0.2 0.1 0.3 0.1q0.1 0 0.3 0 0.2-0.1 0.4-0.2 0.1-0.1 0.3-0.1 0.2 0.1 0.4 0.3 0.2 0 0.3 0.1 0.2 0 0.5 0 0.1 0 0.3 0 0 0 0 0.2 0.1-0.2 0.2-0.2 0-0.1-0.1-0.1c0.1-0.1 0.1-0.1 0.2-0.1q0 0.1 0 0.1-0.1 0.2-0.3 0.3-0.3 0.3-0.4 0.7c-0.1 0.1-0.1 0.2-0.2 0.3q0 0-0.1 0.1-0.1 0-0.2 0.2-0.1 0.1-0.1 0.2 0-0.1-0.1-0.1 0 0 0 0c0-0.1 0 0-0.1 0q0.1 0.1 0.1 0.2-0.1 0.1-0.2 0.1 0.1 0.1 0.1 0.2h-0.1c0.2 0.4 0.5 0.7 0.7 1q0.1 0.2 0.2 0.4 0 0 0 0-0.1 0-0.1-0.1c0 0.3 0.2 0.4 0.4 0.6q0 0 0.1 0 0 0-0.1-0.1 0.2 0.1 0.2 0.2-0.1 0-0.1 0 0 0.1 0.1 0.1 0 0.1 0.1 0 0 0 0.1 0 0-0.1-0.1-0.2 0.3 0.3 0.5 0.5 0 0 0.1 0.1 0.2 0.2-0.2 0.4-0.1 0.1-0.2 0.1-0.1 0-0.3 0.1-0.1 0-0.2 0c-0.2 0-0.4-0.1-0.6-0.1-0.3 0-0.6-0.1-0.8-0.2q-0.5-0.3-1-0.6-0.1 0-0.2-0.1-0.1 0.1-0.1 0.1c-0.2 0.3-0.5 0.5-0.8 0.7-0.1 0.1-0.2 0.2-0.4 0.2q-0.1 0-0.2 0-0.3 0.1-0.6 0.2c0 0.1-0.2 0.1-0.2 0q-0.2 0-0.4-0.2c0 0-0.1-0.1-0.1-0.2q0-0.2 0-0.4c-0.1-0.3-0.2-0.5-0.2-0.8q0.1-0.1 0.1-0.3c-0.1-0.3 0-0.6-0.1-1q0 0 0.1 0c0-0.2-0.1-0.4-0.2-0.4q-0.1-0.1-0.1-0.1 0.1 0 0.2 0.1c0-0.1-0.1-0.2-0.1-0.2q-0.3-0.2-0.6-0.4-0.1-0.1-0.2-0.1 0 0 0 0 0 0 0 0 0 0 0 0c-0.2-0.1-0.2-0.3-0.3-0.4q0.1-0.2 0.2-0.3c0.2 0 0.3 0 0.5 0q0 0 0.1 0 0.1 0 0.2 0 0.3 0 0.2-0.2 0-0.4 0.1-0.9 0 0 0-0.1 0 0 0 0-0.1-0.1-0.1-0.3 0-0.1 0-0.2-0.1-0.7-0.1-1.4 0-0.1 0-0.2 0.1-0.1 0.1-0.2c0-0.1 0-0.1 0.1-0.1q0 0.1 0.1 0.3c0.1 0 0.1 0 0.1 0 0.2 0 0.2-0.1 0.3-0.1q0.1 0 0.2 0c0.1 0 0.1 0 0.1 0.1q0.1 0.1 0.1 0.2c0.1 0 0.2 0.1 0.2 0.2 0.1 0.1 0.1 0.2 0.3 0.2zm-1.4 1.5q0 0 0 0 0 0 0 0 0 0 0 0zm0 0q0-0.1 0-0.1 0 0 0 0 0 0 0 0.1zm-1.1 1.2q0 0 0 0 0 0 0 0zm0.1 0.7q0 0 0 0 0 0 0 0zm0.7 0.6q0 0 0 0 0 0 0 0zm6.2 2.2q0 0 0 0.1 0 0 0 0 0 0 0 0 0 0 0 0 0 0 0 0v-0.1q0 0 0 0 0 0 0 0zm0 0.1c0 0.2 0.1 0.2 0.2 0.3q-0.1-0.2-0.2-0.3zm-0.2-0.1q0 0 0 0 0 0 0 0zm-0.1-0.1q0 0 0 0 0 0 0 0zm0-0.2q0 0 0 0 0 0 0 0zm-0.5-0.5q0 0-0.1 0 0-0.1 0-0.1 0 0-0.1 0 0 0 0.1 0 0 0 0 0.1 0.1 0 0.1 0 0 0 0 0 0 0 0 0zm-0.2-0.1q0-0.1 0-0.1 0 0 0 0 0 0 0 0.1zm-0.5-1.4q-0.1 0-0.1-0.1 0 0 0 0 0 0 0 0 0 0.1 0 0.1 0.1 0 0.1 0 0 0 0 0zm-0.1-0.1q0 0 0-0.1 0 0.1-0.1 0.2 0 0 0 0 0.1 0 0.1-0.1zm0-0.1q0 0 0 0 0 0 0 0zm0.1-0.1q0 0 0 0 0 0 0 0zm0.5-0.3q0 0 0 0 0 0 0 0zm-2.6-2q0 0 0 0zm-2.5 1.9q0 0 0 0.1 0-0.1 0-0.1 0 0 0 0 0 0 0 0 0 0 0 0zm0 0.1q0 0 0 0 0 0 0 0 0 0 0 0 0 0 0 0zm0 0q0 0 0.1 0 0 0 0 0-0.1 0-0.1 0zm3.1 0.1q0 0 0 0 0 0 0 0 0 0 0 0 0 0 0 0zm0 0c0-0.1 0-0.1-0.1-0.2q-0.1 0.1 0.1 0.2zm1.7 0q0 0 0-0.1 0 0 0.1 0-0.1 0-0.1 0 0 0.1 0 0.1zm-2.9 2.1q0 0 0 0 0 0 0 0zm1.2-1.3q0 0 0 0zm0 0q0 0 0 0 0 0 0-0.1 0 0 0-0.2-0.1 0.1-0.2 0.2 0-0.1 0-0.1-0.2 0.1-0.2 0.3c-0.1 0.1-0.1 0.1-0.1 0.3q0.1-0.1 0.1-0.2 0.1 0 0.2-0.1 0.1-0.1 0.2-0.2 0 0.1 0 0.1zm0 0q0 0 0 0 0 0 0 0 0 0 0 0 0 0 0 0zm1.5 2.2q0 0 0 0 0 0 0 0zm-3.1-4.4q0-0.1 0-0.1 0 0 0 0 0 0 0 0.1 0 0 0 0 0 0 0 0zm0-0.1q0 0.2 0 0.4 0.1-0.1 0.2-0.3c0-0.1 0-0.2-0.1-0.3-0.1 0.1-0.1 0.1-0.1 0.2q0 0 0 0zm4.5 4.5q0 0 0 0 0 0 0 0 0 0 0 0 0 0 0 0zm0 0q0 0 0 0 0 0 0 0zm0 0q0 0 0 0.1l0.1-0.1q-0.1 0-0.1 0zm0 0q0 0 0 0 0 0 0 0zm-3.3-0.3q0 0 0 0 0 0 0 0zm0 0q0 0 0 0 0 0 0 0.1 0-0.1 0-0.1zm0 0.4q0 0 0 0 0 0 0 0zm0 0c-0.1 0-0.1 0-0.1 0.1 0.1 0 0.1-0.1 0.1-0.1zm-0.6 0.4q0 0 0 0 0 0 0 0zm-0.2 0.2q0 0 0 0 0 0 0 0zm0 0q0.1-0.1 0.2-0.2-0.1 0-0.2 0.2zm2-1.9q-0.2 0-0.1 0.2 0 0-0.1 0c0.1 0.1 0.3 0.2 0.5 0.4-0.1-0.2-0.2-0.2-0.3-0.3q0.1-0.2 0-0.3zm-1.4-0.8c0 0 0.1-0.1 0.1-0.2q0.2-0.2 0.3-0.4 0.1-0.1 0-0.2-0.1-0.2-0.2-0.3-0.1-0.1-0.1-0.1-0.1-0.1-0.2-0.1-0.1 0-0.2 0c-0.2 0.1-0.4 0.2-0.4 0.4q0 0 0 0 0 0 0 0 0.1 0.1 0.1 0.1 0.1 0.1 0.1 0.2-0.1-0.1-0.2-0.1c-0.2 0.1-0.1 0.4 0 0.5q0 0 0.1 0 0 0 0 0 0 0 0 0 0 0 0 0c0.1 0 0.1 0 0.1-0.1q0.1 0.1 0.1 0.1c0 0.1 0.1 0.2 0.2 0.3 0.1 0 0.1 0 0.2-0.1zm-0.7-0.9v-0.2c0 0.1 0 0.1 0 0.2zm0 0q0 0 0 0 0 0 0 0zm-0.7 0.1q0.2-0.1 0.1-0.3c-0.1-0.1-0.2-0.1-0.2 0q0 0 0.1 0.1c0 0 0 0.1 0 0.1-0.1 0.1 0 0.1 0 0.1zm0.7-1.3c0 0.1 0.1 0.1 0.1 0.1 0.1 0 0.1-0.1 0.1-0.1q-0.1-0.1-0.2-0.2 0 0 0 0 0 0.1 0 0.2zm-0.8 0.2c0.1 0 0.1-0.1 0-0.5 0 0.2-0.1 0.4 0 0.5zm0.5 1.1q0 0 0 0v-0.1q0 0 0 0.1zm-0.3-2.5q0 0 0 0 0 0 0 0.1 0 0 0 0 0 0 0-0.1zm0.3 1.2q0 0 0 0-0.1 0-0.1 0 0 0 0.1 0zm-0.4 0q0 0.1 0 0.1h0.1v-0.1q0 0-0.1 0zm-0.3-0.4q0 0-0.1 0 0 0 0 0 0.1 0.1 0.1 0.1 0-0.1 0-0.1zm2.5 1.6q0 0 0 0 0 0-0.1 0 0.1 0.1 0.1 0.1 0 0 0-0.1zm-2.1-1.8q0 0 0 0-0.1 0-0.1 0 0 0 0 0 0.1 0 0.1 0zm1.7 1.6zm-2.3 1v-0.1zm3.8 2zm0 0zm-4.2-5.1q0 0 0 0 0 0 0 0zm0 0q0 0 0 0 0 0 0 0 0-0.1 0-0.1 0 0 0 0.1zm2.3 5.5q-0.1 0-0.1 0 0 0 0 0 0.1 0 0.1 0 0 0 0 0zm-1-3.4zm-1.2-1.7q0 0.1 0 0.1v-0.1zm2.6 1.5h0.1-0.1zm0.1 3.1zm-2.2 0.2q0 0 0 0 0 0 0 0 0 0 0 0zm4.2-3.3zm-0.1-0.1q0 0 0 0 0 0 0 0 0 0 0 0z"/>
	<path id="Layer" fill-rule="evenodd" class="s0" d="m10.6 33.3q0.1 0.1 0.1 0.1 0.1 0.1 0.2 0.2 0.1 0.1 0.1 0.1c0.3 0.3 0.4 0.6 0.5 0.9 0 0.1 0 0.2-0.1 0.2q-0.1 0.1-0.1 0.1-0.1 0.1-0.3 0.2-0.1 0.1-0.3 0.2-0.1 0-0.2 0.1-0.1 0-0.1 0 0 0 0.1 0-0.3 0.1-0.5 0-0.2-0.1-0.4-0.2c-0.3-0.2-0.7-0.3-1-0.5q-0.4-0.3-0.9-0.6-0.1 0-0.1 0-0.2-0.1-0.3 0 0 0.1-0.1 0.2 0 0-0.1 0-0.4 0.1-0.6 0.3c-0.1 0.2-0.2 0.2-0.3 0 0 0 0 0-0.1 0q-0.1 0-0.1 0c-0.1-0.1-0.1-0.1 0-0.2 0-0.3 0.1-0.7 0-0.8q-0.1 0-0.1 0 0-0.2 0-0.4 0-0.3-0.3-0.4-0.8-0.6-1.6-1.1-0.5-0.4-0.9-0.7-0.2-0.2 0-0.3 0.3-0.1 0.5-0.2c0.3 0 0.6-0.1 0.9-0.1q0 0 0.1 0-0.1-0.1-0.1-0.1c0.1-0.1 0.2-0.1 0.4-0.1q0.3 0 0.5 0c0.2 0 0.2-0.1 0.2-0.2q0-0.1 0-0.3c0-0.4-0.1-0.8-0.1-1.1q0-0.1 0-0.2 0.1 0.2 0.1 0.4c0 0-0.1 0.1 0 0.2q0 0 0 0.1c0.2-0.1 0.2-0.3 0.3-0.4q0 0 0-0.1-0.1-0.2-0.3-0.4 0 0 0 0 0 0 0-0.1-0.1-0.4-0.2-0.8 0.1 0 0.1-0.1c0-0.2 0.1-0.3 0.2-0.3q0.2-0.1 0.3-0.2c0.1-0.1 0.2-0.1 0.3-0.1q0.1 0 0.2 0c0.1 0.1 0.1 0.1 0.1 0.2 0.1 0.1 0.1 0.2 0.2 0.3q0.1 0 0.1 0.1 0 0 0 0 0 0 0.1-0.1 0.1 0.1 0.1 0.1 0.1-0.1 0.1-0.1c0.1 0.2 0.2 0.3-0.1 0.5q0-0.1-0.1-0.2 0 0.2 0 0.2 0.1 0.3 0.3 0.6c0.1 0.2 0.2 0.4 0.3 0.6q0.1 0.1 0.2 0.2 0 0 0 0 0 0 0 0 0 0.1 0.1 0.3 0 0 0 0 0 0 0 0 0.1 0 0.1 0c0.2 0.1 0.2 0.1 0.3 0q0.1-0.1 0.2-0.1c0.1-0.1 0.1-0.1 0.2-0.1q0.3 0 0.6-0.1c0.2-0.1 0.2-0.1 0.3 0q0 0 0.1-0.1 0.1 0 0.2 0 0.1 0 0.2-0.1 0 0 0 0 0 0 0 0 0 0 0 0 0 0 0 0 0 0 0 0c0 0.1 0.1 0.2 0 0.3q-0.1 0.2-0.3 0.4 0 0.1-0.1 0.2-0.2 0.4-0.4 0.7-0.1 0.2-0.1 0.3-0.1 0.1 0 0.2 0.1 0.2 0.2 0.3 0 0.1 0.1 0.2c0.1 0.2 0.3 0.4 0.3 0.6q-0.3-0.2-0.4-0.6-0.1-0.2-0.3-0.4 0 0.1 0 0.1 0 0.2 0.1 0.4 0.2 0.3 0.5 0.6 0.2 0.4 0.5 0.8 0.2 0.2 0.4 0.4zm-2.3-4q0 0 0 0 0 0 0 0zm1.5 2.7q0 0 0 0 0 0 0 0zm0.3-3.1q0 0 0 0 0 0 0 0 0 0 0 0zm-0.4 0q0 0 0 0 0 0 0 0zm-0.1 0.2q0 0 0-0.1 0 0 0 0.1zm-1.8 0v-0.1q0 0 0 0 0 0 0 0zm-0.7-1.8q0 0 0 0 0 0 0 0 0 0 0 0 0 0 0 0zm0 0q0 0.1 0 0.3 0.1-0.2 0-0.3zm-1.5 1q0 0 0 0 0 0 0 0zm0.3 0.4q0 0 0 0 0 0 0 0 0 0 0 0 0 0 0 0zm0 0q0 0 0.1-0.1 0 0-0.1 0 0 0.1 0 0.1zm0 0.1q0 0 0 0 0 0 0 0 0 0 0 0zm0 0q0 0 0 0 0 0.1 0 0zm0.2 5.9q0 0 0 0 0 0 0 0zm5.2 0.3q0 0 0 0 0 0 0 0zm-0.7-1.6q0 0 0 0zm-0.5-4.5q0 0 0 0 0 0 0 0 0 0 0 0 0 0 0 0zm-4.2-0.1q0 0 0 0 0 0.1 0 0zm-0.9 2.8q0 0 0 0 0 0 0 0 0 0 0 0.1 0 0 0.1 0-0.1 0-0.1 0 0-0.1 0-0.1zm0.1 0.1q0.2 0.1 0.4 0.3 0.1 0 0.2 0.1 0 0 0 0 0 0 0 0 0 0 0 0-0.1-0.1-0.2-0.2c-0.1-0.1-0.2-0.2-0.4-0.2zm-0.9-0.2q-0.1 0-0.1-0.1 0 0 0 0 0 0 0 0 0 0 0 0 0 0 0 0.1 0 0 0.1 0zm-0.5-0.3q0 0 0 0zm0 0q0.2 0.2 0.4 0.2-0.2-0.1-0.4-0.2zm3.5-2.8zm0.5 2.2zm-2.2 1.2q0 0 0 0zm0 0q0 0 0 0 0.1 0 0.1 0.1 0 0 0 0 0-0.1 0-0.1 0 0 0 0 0-0.1-0.1 0zm-0.4 0.3zm4 0.6q0 0 0 0 0 0 0 0 0 0 0 0 0 0 0 0zm0 0q0-0.1-0.1-0.2-0.1-0.2-0.3-0.4 0 0-0.1-0.1 0 0.1 0 0.1 0.2 0.3 0.5 0.6 0 0 0 0zm0 0q0 0 0 0 0 0 0 0 0 0 0 0zm-1 0.6q0 0 0 0 0 0 0 0zm0 0q0 0 0 0-0.1 0-0.1 0 0 0.1 0 0.1c0.2 0.2 0.5 0.4 0.8 0.5q0.3 0.3 0.7 0.4c-0.1-0.1-0.2-0.2-0.4-0.3-0.2-0.1-0.4-0.2-0.5-0.4q-0.3-0.1-0.5-0.3 0 0 0 0zm-2.3-5.4q0 0 0 0 0 0 0 0 0 0 0 0zm0 0q0 0 0 0zm0 0q0 0 0 0 0 0 0 0 0 0 0 0zm2.6 6.2q0 0 0 0 0 0 0 0zm0 0q-0.1-0.1-0.2-0.1 0.1 0.1 0.2 0.1zm0.6-1.7q0 0 0 0 0 0 0-0.1v0.1zm0 0q0.1 0.1 0.2 0.3 0.1 0.1 0.2 0.2 0 0.1 0.1 0.1-0.2-0.3-0.3-0.5-0.1-0.1-0.2-0.1zm0.5 0.6q0 0 0 0 0 0 0 0 0 0 0 0 0 0 0 0zm0 0q0 0.1 0.1 0.1 0.3 0.5 0.7 0.9 0 0.1 0.1 0.1-0.1-0.1-0.2-0.3-0.2-0.3-0.5-0.6-0.1-0.1-0.2-0.2zm-0.6-0.9q0 0.1 0.1 0.1 0 0 0 0 0 0 0 0-0.1 0-0.1-0.1zm-0.3 1.1q0 0 0 0 0 0 0 0zm0 0q0-0.1 0-0.1 0-0.2-0.2-0.4c0 0 0 0-0.1 0 0 0.1 0 0.1 0.1 0.2q0 0.1 0.1 0.2-0.1 0-0.3-0.1c0.1 0.2 0.4 0.4 0.7 0.4q-0.2-0.1-0.3-0.2zm1.2-0.4q0 0 0 0zm0.1 0q0.4 0.6 0.8 1.3 0 0 0.1 0 0 0 0 0-0.4-0.6-0.8-1.2-0.1 0-0.1-0.1zm0.9 1.3v0.1-0.1q0 0 0 0 0 0 0 0zm-1-1.3q0 0 0.1 0-0.1 0-0.1 0zm-3.1-1.3q0 0 0 0zm0 0q0 0.1 0 0.2 0.1 0.1 0.1 0.3c0.1-0.2 0-0.4 0-0.6 0-0.2 0-0.4-0.1-0.6 0 0.1-0.1 0.1-0.1 0.2q0 0.2 0.1 0.5zm-1.4-0.4q0 0 0 0 0 0 0 0zm0 0q0.1 0 0.2 0.1-0.1 0-0.2-0.1-0.1 0-0.3 0 0 0.1 0 0.1c0.2 0.2 0.5 0.3 0.7 0.4 0 0 0.1 0 0.1-0.1 0 0 0 0 0-0.1q0 0 0 0 0-0.2 0-0.3c-0.1-0.1-0.2-0.1-0.3-0.1 0 0.1-0.1 0-0.2 0.1zm0.5 0.3q0 0 0 0 0 0 0 0zm-0.3-0.2q0 0 0 0 0 0 0 0zm1.2-1.1q-0.1-0.1-0.1-0.2 0 0.1 0 0.3 0.1 0 0.1-0.1zm-0.5 3.8q0.1 0 0.1 0v-0.2q0 0-0.1 0zm-1.2-3.5q0 0 0 0 0 0.1 0 0.1 0 0 0.1-0.1-0.1 0-0.1 0zm0.9 0.7q0 0 0.1 0v-0.1q-0.1 0-0.1 0 0 0.1 0 0.1zm1.6-2.3q0 0 0 0v-0.1q0 0.1 0 0.1zm-2 1.6q0 0 0.1 0 0 0 0 0 0 0-0.1 0 0 0 0 0zm0.3-1q0 0 0 0 0 0 0 0 0 0 0 0 0 0 0 0zm0.1 0q0 0 0 0 0 0 0 0 0.1 0 0.1 0-0.1 0-0.1 0zm-0.2-1.9q0 0 0 0 0 0 0 0 0 0 0 0 0 0 0 0zm0.3 2q0 0.1 0 0.1 0 0 0 0 0 0 0 0 0 0 0-0.1zm1.4 1.8h0.1-0.1zm-1.4-2.2q0 0 0 0 0 0 0 0 0 0 0 0zm0-0.9zm1.3 0.3h-0.1zm-1.4 4.1zm0 0zm0.2-4.6zm-0.8 4.2v-0.1 0.1zm2.7 1.2zm-1.9-4.3zm-1.6 2.4z"/>
	<path id="Layer" fill-rule="evenodd" class="s0" d="m13 12q0.1 0 0.1 0 0.1 0.1 0.2 0.2 0-0.1 0-0.1 0.2 0 0.3 0.1 0-0.1 0-0.1 0.1 0.1 0.2 0.1 0.3 0 0.6-0.1 0 0 0 0 0.4-0.1 0.7-0.2 0.2-0.1 0.3-0.1 0 0.1-0.1 0.1c0.2 0.1 0.4 0 0.5 0.1q-0.1 0.2-0.1 0.4-0.2 0.1-0.3 0.3c0 0.2 0 0.2 0.1 0.3q0.2 0.1 0.4 0.2-0.3-0.1-0.6-0.3c-0.1 0.2-0.1 0.3 0.1 0.4q0 0 0 0 0.2 0.1 0.3 0.2 0.4 0.3 0.8 0.6 0.3 0.2 0.5 0.4 0.1 0.2-0.1 0.3-0.1 0.1-0.3 0.2-0.1 0.1-0.3 0.1-0.3 0.1-0.4 0.2-0.4 0.2-0.8 0.3c-0.2 0-0.5 0-0.8 0-0.2-0.1-0.4 0-0.5 0.2q0 0.1-0.1 0.1 0 0.3-0.3 0.4c-0.1 0.2-0.3 0.3-0.6 0.4q-0.3 0.1-0.5 0.2-0.2 0-0.3 0-0.3-0.2-0.4-0.5-0.2-0.3-0.4-0.7 0-0.1-0.1-0.2 0-0.1-0.1-0.2 0-0.2-0.2-0.2-0.7-0.1-1.4-0.3-0.5-0.1-0.9-0.3-0.1 0-0.2-0.1-0.1 0-0.1 0c0-0.3 0-0.4 0.3-0.5 0.2 0 0.4-0.1 0.6-0.1q0.4-0.2 0.9-0.3c0.3 0 0.3-0.1 0.2-0.2q0-0.1 0-0.1-0.2-0.6-0.4-1.3c-0.2-0.3-0.2-0.7-0.5-1-0.1-0.1-0.2-0.2-0.3-0.3q0 0-0.1 0 0.2 0 0.3 0c0.1 0 0.1-0.1 0.2-0.1q0 0 0.1-0.1 0.1 0 0.2 0 0.1 0.2 0.3 0.1 0.1-0.1 0.1-0.1 0.1 0.1 0.2 0.1 0 0 0 0-0.1-0.1-0.2-0.3c0.2 0 0.4 0 0.6 0.1 0.5 0.2 0.8 0.5 1.2 0.8q0.1 0 0 0.1 0 0 0 0c0 0.1 0.1 0.1 0 0.1q0 0.1 0.1 0.1 0.1 0.1 0.2 0.2 0.1 0 0.1 0c0.1 0.1 0.1 0.2 0.2 0.2h0.1q0 0 0 0 0.1 0.1 0.2 0.1 0.1 0 0.1 0.1v-0.1q0.1 0.1 0.1 0.2zm-1.1-0.8q0 0 0 0 0 0 0 0zm0-0.1q0 0 0 0 0 0 0 0 0 0 0 0zm1.5 5.1q0 0 0 0 0 0 0 0 0 0 0 0 0 0 0 0zm2.5-3.1q0 0 0 0 0 0 0 0zm-2.3-1.1q0 0 0 0 0 0 0 0zm-0.3 0q0 0 0 0 0 0 0 0zm-1.3-0.2q0 0 0 0zm-0.1 0q0 0 0 0 0 0 0 0 0 0 0.1 0-0.1 0-0.1 0zm0 0q0 0 0 0 0 0 0 0 0 0 0 0zm-0.1-0.1q-0.1 0-0.1-0.1 0 0 0 0 0 0 0 0 0 0.1 0.1 0.1zm-0.1-0.1c-0.1-0.1-0.2-0.2-0.4-0.3q-0.1 0-0.2 0 0.2 0.1 0.4 0.2 0.1 0.1 0.2 0.1zm-0.6-0.3q0 0 0 0 0 0 0 0 0 0 0 0 0 0 0 0zm0 0q0-0.1 0-0.1c-0.1 0 0 0 0 0.1zm-1.4 0q0 0 0-0.1 0 0 0 0 0 0 0 0 0 0.1 0 0.1zm0-0.1q0 0-0.1-0.1 0 0.1 0 0.1 0 0 0.1 0zm2 0q0 0 0 0zm0 0q0-0.1-0.1-0.1 0.1 0 0.1 0.1 0 0 0 0 0 0 0 0zm-0.4 1.6zm0.7 2.7q0-0.1 0-0.1 0 0 0 0.1zm-0.4-1.5q0 0 0 0 0 0 0 0zm0 0q0.1 0 0.1 0 0 0 0 0 0 0-0.1 0zm-0.2-3.1q0 0 0 0 0 0 0 0zm0 0q0 0 0 0 0 0 0 0 0 0 0 0zm0 0q0 0 0 0 0 0.1 0 0zm-0.7 2q0 0 0 0 0 0 0 0 0 0 0 0 0 0 0 0zm0 0q0 0 0 0 0 0 0 0 0 0 0 0zm0 0c0.1 0.1 0.1 0 0 0q0 0 0 0zm0.6-0.7q0 0 0 0 0 0 0 0 0 0 0 0 0 0 0 0zm0 0q0 0.1 0.1 0.1c0 0 0-0.1-0.1-0.1zm0 0q0 0 0 0 0 0 0 0 0 0 0 0zm-0.7 0.1q0 0 0 0 0 0 0 0 0 0 0 0 0 0 0 0zm0 0q-0.1-0.1-0.1-0.2 0 0-0.1 0c0.1 0.1 0.1 0.2 0.2 0.2zm0.5 0q0 0 0 0 0 0 0 0zm0 0q0-0.2-0.1-0.3 0 0 0 0c0 0.1 0 0.2 0.1 0.3zm1 1.7q0 0.1 0 0.2 0.1 0 0.1 0c0-0.1 0-0.2-0.1-0.2zm0 0q0 0 0 0 0 0 0 0 0 0 0 0 0 0 0 0zm-0.1-0.1q0 0 0 0 0 0 0 0 0 0 0 0 0 0 0 0zm0 0q-0.1-0.1-0.2-0.2c0 0.1 0.1 0.3 0.2 0.5q0-0.2 0-0.3zm0 0q0 0 0.1 0.1c0-0.2 0-0.3-0.2-0.4 0 0.1 0.1 0.2 0.1 0.3zm-1.3-2.9q0 0 0 0 0 0 0 0zm0 0q0.1 0.1 0.2 0.1c0-0.1-0.1-0.1-0.3-0.2q0.1 0.1 0.1 0.1zm1.3 1.7q0 0 0 0 0 0 0 0zm0 0q0-0.1-0.1-0.1-0.1-0.1-0.2-0.2 0 0.3 0.2 0.5c0.1 0.1 0.1 0.1 0.2 0 0.1 0 0.2 0 0.2-0.1 0-0.1-0.1-0.1-0.2-0.1q0 0-0.1 0zm1 1.2q0 0 0 0zm0 0q0.1-0.2 0.2-0.3c0.1-0.1-0.1-0.3-0.3-0.3q0 0 0 0h-0.1q-0.2 0.1-0.3 0.1-0.2 0.1-0.4 0.1 0.1 0.1 0.1 0.2 0.1 0.3 0.2 0.6 0.1 0 0.1 0 0.1 0.2 0.3 0 0-0.1 0.1-0.2 0.1 0 0.1-0.1 0-0.1 0-0.1zm-0.1-0.6h-0.1q0 0 0.1 0zm2.2 1.3c-0.1-0.1-0.2-0.2-0.3-0.2 0 0-0.1 0-0.1-0.1 0 0-0.1 0-0.1 0q-0.1 0.1-0.1 0.2c-0.1 0 0 0.1 0.1 0.1q0.1 0 0.3 0.1 0.1 0 0.2-0.1zm-4.6-3.7q0-0.1 0-0.2c-0.1 0-0.2-0.1-0.4-0.1 0.1 0.2 0.2 0.2 0.4 0.3zm-0.2 1.3c0 0.2 0 0.4 0.1 0.5q0 0 0.1 0-0.1-0.2-0.2-0.5zm0.1 1.8q0 0 0.1 0 0-0.1 0-0.1-0.1 0-0.2 0 0.1 0.1 0.1 0.1zm1.1-2.9q0 0 0 0 0 0 0 0zm0 0q0 0 0 0-0.1 0-0.1 0 0.1 0 0.1 0 0 0 0 0zm-0.4 1.3q0 0 0 0zm0 0q0 0.1 0.1 0.1 0 0 0 0 0 0-0.1-0.1zm0.2 0.3q0 0 0 0 0 0 0 0zm0 0q0 0 0-0.1 0 0.1 0 0.1 0 0 0 0zm-0.7-2.2q0 0 0 0 0 0 0 0 0 0.1 0 0.1 0 0 0-0.1zm2.8 1.7q0 0 0 0 0 0 0-0.1 0 0 0 0 0 0.1 0 0.1zm-2.5-1.4q0-0.1 0-0.1 0 0 0 0.1 0 0 0 0 0 0 0 0zm-0.1-0.1zm0.7 1.8zm-0.4 0zm0.5 1.3zm-0.7-0.7zm4.3-0.6zm-3.8-1.7z"/>
	<path id="Layer" fill-rule="evenodd" class="s0" d="m48.8 2.2q0.1 0 0.1 0 0.1 0 0.2 0.1 0-0.1 0-0.1 0.2 0.1 0.3 0.2 0-0.1 0-0.1 0.1 0 0.2 0 0.3 0 0.6 0 0 0 0 0 0.4-0.2 0.7-0.3 0.2 0 0.3-0.1 0 0.1-0.1 0.1c0.2 0.1 0.4 0 0.5 0.1q-0.1 0.2-0.2 0.4-0.1 0.2-0.2 0.4c0 0.1 0 0.1 0.1 0.2q0.2 0.1 0.4 0.2-0.3-0.1-0.6-0.2c-0.1 0.1-0.1 0.2 0.1 0.3q0 0.1 0 0.1 0.2 0.1 0.3 0.2 0.4 0.2 0.8 0.5 0.3 0.2 0.5 0.5 0.1 0.1-0.1 0.2-0.1 0.1-0.3 0.2-0.1 0.1-0.3 0.2-0.3 0-0.4 0.1-0.4 0.3-0.8 0.3c-0.2 0-0.5 0-0.8 0-0.2 0-0.4 0.1-0.5 0.2q0 0.1-0.1 0.2 0 0.2-0.3 0.4c-0.1 0.1-0.3 0.3-0.6 0.3q-0.3 0.1-0.5 0.2-0.2 0.1-0.3 0-0.3-0.2-0.4-0.4-0.2-0.4-0.4-0.7 0-0.2-0.1-0.3 0-0.1-0.1-0.2 0-0.1-0.2-0.2-0.7-0.1-1.4-0.3-0.5-0.1-0.9-0.2-0.1-0.1-0.2-0.1-0.1-0.1-0.1-0.1c0-0.3 0-0.4 0.3-0.5 0.2 0 0.4 0 0.6-0.1q0.4-0.2 0.9-0.3c0.2 0 0.3 0 0.2-0.2q0 0 0 0-0.2-0.7-0.5-1.3c-0.1-0.4-0.1-0.8-0.4-1.1-0.1-0.1-0.2-0.2-0.3-0.2q0 0-0.1-0.1 0.2 0 0.3 0c0.1 0 0.1-0.1 0.2-0.1q0 0 0.1 0 0.1-0.1 0.2 0 0.1 0.1 0.3 0 0.1-0.1 0.1 0 0.1 0 0.2 0.1 0-0.1 0-0.1-0.1-0.1-0.2-0.2c0.2-0.1 0.4 0 0.6 0 0.5 0.2 0.8 0.5 1.2 0.8q0.1 0.1 0 0.2 0 0 0 0c0 0 0.1 0.1 0 0.1q0 0.1 0.1 0.1 0.1 0.1 0.2 0.2 0.1 0 0.1-0.1c0.1 0.1 0.1 0.2 0.2 0.2h0.1q0 0 0 0v0.1q0.1 0 0.2 0 0.1 0.1 0.1 0.1 0.1 0 0.1 0.1zm-1.1-0.7q0 0 0 0 0 0 0 0zm0-0.1q0 0 0 0 0 0 0 0 0 0 0 0zm1.5 5.1q0 0 0 0 0 0 0 0 0 0 0 0 0 0 0 0zm2.5-3.2q0 0 0 0 0 0 0 0zm-2.3-1q0 0 0 0 0 0 0 0zm-0.3-0.1q0 0 0 0 0 0 0 0zm-1.3-0.2q0 0 0 0zm-0.1 0q0 0 0 0 0 0 0 0 0 0 0.1 0.1-0.1-0.1-0.1-0.1zm0 0q0 0 0 0 0 0 0 0 0 0 0 0zm-0.1-0.1q-0.1 0-0.1 0 0 0 0 0 0 0 0 0 0 0 0.1 0zm-0.1 0c-0.1-0.2-0.2-0.3-0.4-0.4q-0.1 0-0.2 0 0.2 0.2 0.4 0.3 0.1 0 0.2 0.1zm-0.6-0.4q0 0 0 0 0 0 0 0 0 0 0 0 0 0 0 0zm0 0q0 0 0-0.1c-0.1 0.1 0 0.1 0 0.1zm-1.4 0q0 0 0 0 0 0 0 0 0 0 0 0 0 0 0 0zm0 0q0-0.1-0.1-0.1 0 0 0 0 0 0 0.1 0.1zm2-0.1q0 0 0 0zm0 0q0 0-0.1-0.1 0.1 0.1 0.1 0.1 0 0 0 0 0 0 0 0zm-0.4 1.7zm0.7 2.6q0 0 0-0.1 0 0.1 0 0.1zm-0.4-1.4q0 0 0 0 0 0 0 0zm0 0q0.1 0 0.1-0.1 0 0 0 0 0 0-0.1 0.1zm-0.2-3.1q0 0 0 0 0 0 0 0zm0 0q0 0 0 0 0 0 0 0 0 0 0 0zm0 0q0 0 0 0 0 0 0 0zm-0.7 2q0 0 0 0 0 0 0 0 0 0 0 0 0 0 0 0zm0 0q0 0 0-0.1 0 0 0 0.1 0 0 0 0zm0 0c0.1 0 0.1 0 0-0.1q0 0 0 0.1zm0.6-0.8q0 0 0 0 0 0 0 0 0 0 0 0 0 0 0 0zm0 0q0 0.1 0.1 0.2c0-0.1 0-0.1-0.1-0.2zm0 0q0 0 0 0 0 0 0 0 0 0 0 0zm-0.7 0.2q0 0 0 0 0 0 0 0 0 0 0 0 0 0 0 0zm0 0q-0.1-0.2-0.1-0.3 0 0-0.1 0c0.1 0.1 0.1 0.2 0.2 0.3zm0.5-0.1q0 0 0 0 0 0 0 0zm0 0q0-0.1-0.1-0.3 0 0 0 0c0 0.1 0 0.2 0.1 0.3zm1 1.7q0 0.1 0 0.2 0.1 0 0.1 0.1c0-0.1 0-0.2-0.1-0.3zm0 0q0 0 0 0 0 0 0 0 0 0 0 0 0 0 0 0zm-0.1-0.1q0 0 0 0 0 0 0 0 0 0 0 0 0 0 0 0zm0 0q-0.1 0-0.2-0.1c0 0.1 0.1 0.3 0.2 0.4q0-0.1 0-0.3zm0 0q0 0.1 0.1 0.1c0-0.1 0-0.2-0.2-0.4 0 0.2 0.1 0.2 0.1 0.3zm-1.3-2.9q0 0 0 0 0 0 0 0zm0 0q0.1 0.1 0.2 0.2c0-0.1-0.1-0.2-0.3-0.3q0.1 0.1 0.1 0.1zm1.3 1.7q0 0 0 0 0 0 0 0zm0 0q0-0.1-0.1-0.1-0.1-0.1-0.2-0.2 0 0.3 0.2 0.6c0.1 0 0.1 0 0.2 0 0.1-0.1 0.2-0.1 0.2-0.2 0 0-0.1-0.1-0.2-0.1q0 0-0.1 0zm1 1.2q0.1-0.1 0.2-0.3c0.1-0.1-0.1-0.3-0.3-0.3q0 0-0.1 0-0.2 0.1-0.3 0.1-0.2 0.1-0.4 0.2 0 0.1 0.1 0.2 0.1 0.2 0.2 0.5 0 0 0.1 0.1 0.1 0.2 0.3-0.1 0 0 0.1-0.1 0-0.1 0.1-0.2 0 0 0-0.1zm-0.2-0.6q0 0 0 0zm2.3 1.3c-0.1-0.1-0.2-0.1-0.3-0.2 0 0-0.1 0-0.1-0.1 0 0-0.1 0-0.1 0q-0.1 0.1-0.2 0.2c0 0.1 0.1 0.1 0.2 0.1q0.1 0.1 0.3 0.1 0.1 0 0.2-0.1zm-4.6-3.7q0-0.1-0.1-0.1c0-0.1-0.1-0.2-0.3-0.2 0.1 0.2 0.2 0.3 0.4 0.3zm-0.2 1.4c0 0.1 0 0.3 0.1 0.4q0 0 0.1 0-0.1-0.2-0.2-0.4zm0.1 1.7q0 0 0.1 0 0 0-0.1 0 0 0-0.1 0 0.1 0 0.1 0zm1.1-2.9q0 0 0 0 0 0 0 0zm0 0q0 0 0 0-0.1 0-0.1 0 0 0.1 0.1 0.1 0 0 0-0.1zm-0.4 1.4q0 0 0 0zm0 0q0 0 0 0 0.1 0 0.1 0 0 0-0.1 0zm0.2 0.3q0 0 0 0 0 0 0 0zm0 0q0-0.1 0-0.1 0 0-0.1 0 0 0 0.1 0.1zm-0.7-2.2q0 0 0 0 0 0 0 0 0 0 0 0 0 0 0 0zm2.8 1.6q0 0 0 0 0 0 0 0 0 0 0 0 0 0 0 0zm-2.5-1.4q0 0 0 0 0 0 0 0 0 0 0 0 0 0 0 0zm-0.1-0.1zm0.7 1.9zm-0.4-0.1zm0.5 1.3v0.1zm-0.7-0.7zm4.3-0.7zm-3.8-1.7z"/>
	<path id="Layer" class="s0" d="m0.4 4.6q0 0-0.1-0.1c0 0.1 0 0.2 0.1 0.2q0 0 0-0.1z"/>
	<path id="Layer" class="s0" d="m4.6 8.8q0 0.1 0.1 0.2h0.1q-0.1-0.1-0.2-0.2z"/>
	<path id="Layer" class="s0" d="m4.9 9.8h0.1q-0.1-0.1-0.1-0.2-0.1 0.1 0 0.2 0 0 0 0z"/>
	<path id="Layer" class="s0" d="m13.2 0.5q0.1 0.1 0.1 0.1 0-0.1-0.1-0.1z"/>
	<path id="Layer" class="s0" d="m0.6 5.8c0 0.1 0 0.2 0 0.2q0-0.1 0-0.2z"/>
	<path id="Layer" class="s0" d="m12.9 11.7q0 0.1 0.1 0.1 0-0.1-0.1-0.1z"/>
	<path id="Layer" class="s0" d="m12.6 11.5q-0.1 0-0.1 0 0 0 0 0 0 0 0 0 0 0 0.1 0z"/>
	<path id="Layer" class="s0" d="m11.2 4.4l-0.1-0.1q0 0 0 0 0 0.1 0.1 0.1 0 0 0 0z"/>
	<path id="Layer" class="s0" d="m0.6 6.6q0.1 0 0.1-0.1c-0.1 0 0 0.1-0.1 0.1z"/>
	<path id="Layer" class="s0" d="m16.9 6.1q0.1 0.1 0.1 0.2 0-0.1-0.1-0.2z"/>
	<path id="Layer" class="s0" d="m13 0.5q0.1 0 0.2 0c-0.1-0.1-0.2-0.1-0.2-0.1q0 0.1 0 0.1z"/>
	<path id="Layer" class="s0" d="m13.1 11.9q0.1 0.1 0.2 0.1v0.1q-0.1-0.1-0.2-0.2z"/>
	<path id="Layer" class="s0" d="m6.1 11q0.1 0.1 0.1 0.2 0-0.1-0.1-0.2z"/>
	<path id="Layer" class="s0" d="m16.5 13.9q0 0 0.1 0-0.1 0-0.1 0z"/>
	<path id="Layer" class="s0" d="m0.5 5.8q0 0 0 0 0 0 0 0 0 0 0 0z"/>
	<path id="Layer" class="s0" d="m17.3 2.3q-0.1 0.1-0.2 0.1 0.1 0 0.1-0.1h0.1z"/>
	<path id="Layer" class="s0" d="m16.9 6.1q0 0 0 0 0 0-0.1 0 0.1 0 0.1 0z"/>
	<path id="Layer" class="s0" d="m10.6 9.8z"/>
	<path id="Layer" class="s0" d="m10.3 3.2z"/>
	<path id="Layer" class="s0" d="m3.2 6.8q0 0 0 0.1 0 0 0 0 0 0 0 0 0-0.1 0-0.1z"/>
	<path id="Layer" class="s0" d="m0.6 4.4q0 0-0.1 0 0 0 0 0 0.1 0 0.1 0 0 0 0 0z"/>
	<path id="Layer" class="s0" d="m12.7 11.6q0 0 0 0 0 0 0 0z"/>
	<path id="Layer" class="s0" d="m13.6 12.1q0 0 0 0 0 0 0 0z"/>
	<path id="Layer" class="s0" d="m13 11.9q-0.1 0-0.2 0 0.1 0 0.1 0.1v-0.1q0 0 0.1 0z"/>
	<path id="Layer" class="s0" d="m1.8 4.2z"/>
	<path id="Layer" class="s0" d="m17.3 6.6q-0.1 0-0.1 0 0 0 0 0 0 0 0.1 0z"/>
	<path id="Layer" class="s0" d="m0.4 4.7q0 0 0 0 0 0 0 0z"/>
	<path id="Layer" class="s0" d="m0.9 6.4q0-0.1 0-0.1 0 0 0 0.1z"/>
	<path id="Layer" class="s0" d="m13 0.4q-0.1 0-0.1 0 0 0 0 0 0 0 0.1 0z"/>
	<path id="Layer" class="s0" d="m1.8 4.3q0 0 0 0.1 0-0.1 0-0.1z"/>
	<path id="Layer" class="s0" d="m5.2 9.9q0 0 0 0 0 0 0 0z"/>
	<path id="Layer" class="s0" d="m5.6 10.9z"/>
	<path id="Layer" class="s0" d="m5 9.8z"/>
	<path id="Layer" class="s0" d="m6.2 11.2q0 0 0.1 0.1-0.1-0.1-0.1-0.1z"/>
	<path id="Layer" class="s0" d="m17.1 6.4q0-0.1-0.1-0.1 0.1 0 0.1 0.1z"/>
	<path id="Layer" class="s0" d="m4.9 9.3z"/>
	<path id="Layer" class="s0" d="m3.1 6.4z"/>
	<path id="Layer" class="s0" d="m6.3 11.3q0 0 0 0.1 0-0.1 0-0.1z"/>
	<path id="Layer" class="s0" d="m12.1 11.4z"/>
	<path id="Layer" class="s0" d="m0.4 4.7q0 0 0-0.1 0 0.1 0 0.1z"/>
	<path id="Layer" class="s0" d="m3.3 6.8z"/>
	<path id="Layer" class="s0" d="m15.9 4.5q0 0.1 0 0.1 0 0 0-0.1z"/>
	<path id="Layer" class="s0" d="m1.8 4.3z"/>
	<path id="Layer" class="s0" d="m13.1 12.1q0 0-0.1 0 0.1 0 0.1 0z"/>
	<path id="Layer" class="s0" d="m3.3 6.9q0 0-0.1 0 0.1 0 0.1 0z"/>
	<path id="Layer" class="s0" d="m3.2 6.8q0.1 0 0.1 0 0 0-0.1 0z"/>
	<path id="Layer" class="s0" d="m4.9 9.3z"/>
	<path id="Layer" class="s0" d="m4.8 9.6q0 0 0.1 0-0.1 0-0.1 0z"/>
	<path id="Layer" class="s0" d="m5.1 9.8q0.1 0.1 0.1 0.1 0 0-0.1-0.1z"/>
	<path id="Layer" class="s0" d="m6.3 11.3q0 0 0 0 0 0 0 0z"/>
	<path id="Layer" class="s0" d="m16.8 4.9z"/>
	<path id="Layer" class="s0" d="m12.1 11.4q0 0-0.1 0 0.1 0 0.1 0z"/>
	<path id="Layer" class="s0" d="m12 11.4q0 0 0 0 0 0 0 0z"/>
	<path id="Layer" class="s0" d="m12.9 11.7z"/>
	<path id="Layer" class="s0" d="m12.6 11.8q0 0 0 0 0 0 0 0z"/>
	<path id="Layer" class="s0" d="m10.5 3.8q0 0.1 0 0.1 0 0 0-0.1z"/>
	<path id="Layer" class="s0" d="m10.5 3.8q0 0 0 0 0 0 0 0 0 0 0 0h0.1q-0.1 0-0.1 0z"/>
	<path id="Layer" class="s0" d="m16.5 3.7q0 0 0 0 0 0 0 0z"/>
	<path id="Layer" class="s0" d="m15.9 13.2q0 0 0 0 0 0 0 0z"/>
	<path id="Layer" class="s0" d="m14.2 4.5q-0.1 0.1-0.2 0.3 0 0 0 0.1 0.1 0 0.1 0 0.1-0.2 0.1-0.4z"/>
	<path id="Layer" class="s0" d="m15.3 5.9h-0.1q0.1 0 0.1 0z"/>
	<path id="Layer" class="s0" d="m15.2 5.9q-0.1 0-0.1-0.1 0 0.1 0.1 0.1z"/>
	<path id="Layer" class="s0" d="m14 4.9q0 0 0 0 0 0 0 0 0 0 0 0z"/>
	<path id="Layer" class="s0" d="m11.3 3.6q0 0 0 0.1 0 0 0.1 0-0.1-0.1-0.1-0.1z"/>
	<path id="Layer" class="s0" d="m0.4 8.7q0 0.1 0.1 0.1h0.1q-0.1 0-0.2-0.1z"/>
	<path id="Layer" class="s0" d="m0.7 8.9z"/>
	<path id="Layer" class="s0" d="m3.1 10.8q0 0-0.1 0 0.1 0 0.1 0 0 0 0 0z"/>
	<path id="Layer" class="s0" d="m0.5 9.3q0 0 0 0 0.1 0 0.1 0 0 0-0.1 0z"/>
	<path id="Layer" class="s0" d="m11.9 12.7z"/>
	<path id="Layer" fill-rule="evenodd" class="s0" d="m173.7 17.6c-0.2 0-0.2 0.1-0.3 0.2 0 0.1-0.1 0.2-0.2 0.2q0 0.1-0.1 0.2c0 0.1 0 0.1-0.1 0.1q-0.1 0-0.2 0c-0.1-0.1-0.1-0.2-0.3-0.1 0 0 0 0-0.1 0q-0.1 0.1-0.1 0.3c-0.1 0-0.1-0.1-0.1-0.1q0-0.1-0.1-0.3 0 0 0-0.2 0-0.7 0.1-1.4 0 0 0-0.1 0-0.2 0.1-0.3 0 0 0 0 0-0.1 0-0.2-0.1-0.4-0.1-0.9 0.1-0.2-0.2-0.1-0.1-0.1-0.2-0.1-0.1 0-0.1 0c-0.2 0.1-0.3 0.1-0.5 0q-0.1-0.1-0.2-0.2c0.1-0.1 0.1-0.3 0.3-0.4q0 0 0 0 0 0 0 0 0 0 0-0.1 0.1 0 0.2 0 0.3-0.2 0.6-0.4c0-0.1 0.1-0.1 0.1-0.2q-0.1 0.1-0.2 0.1 0-0.1 0.1-0.1c0.1-0.1 0.2-0.2 0.2-0.4q-0.1 0-0.1-0.1c0.1-0.3 0-0.6 0.1-1q0-0.1 0-0.2c-0.1-0.3 0-0.5 0.1-0.8q0-0.2 0-0.4c0-0.1 0.1-0.2 0.1-0.3q0.2-0.1 0.4-0.2c0 0 0.2 0 0.2 0q0.3 0.2 0.6 0.3 0.1 0 0.2 0c0.2-0.1 0.3 0 0.4 0.1 0.3 0.3 0.6 0.5 0.8 0.8q0 0 0.1 0.1 0.1-0.1 0.2-0.2 0.5-0.3 1-0.5c0.2-0.1 0.5-0.3 0.8-0.3 0.2 0.1 0.4 0 0.6 0q0.1 0 0.2 0 0.2 0 0.3 0.1 0.1 0 0.2 0 0.4 0.2 0.2 0.5-0.1 0-0.1 0.1-0.2 0.2-0.5 0.4 0.1-0.1 0.1-0.1-0.1 0-0.1 0-0.1-0.1-0.1 0-0.1 0-0.1 0 0 0 0.1 0.1 0 0.1-0.2 0.1 0.1 0 0.1-0.1-0.1 0-0.1 0.1c-0.2 0.2-0.4 0.3-0.4 0.5q0 0 0.1 0 0 0 0 0-0.1 0.2-0.2 0.4c-0.2 0.3-0.5 0.6-0.7 0.9h0.1q0 0.1-0.1 0.3 0.1 0 0.2 0.1 0 0.1-0.1 0.2c0.1 0 0.1 0.1 0.1 0q0 0 0-0.1 0.1 0 0.1 0 0 0.1 0.1 0.2 0.1 0.1 0.2 0.2 0.1 0.1 0.1 0.1c0.1 0 0.1 0.1 0.2 0.2q0.1 0.4 0.4 0.7 0.2 0.2 0.3 0.3 0 0.1 0 0.2c-0.1 0-0.1-0.1-0.2-0.1q0.1 0 0.1-0.1-0.1-0.1-0.2-0.2 0 0.1 0 0.2-0.2 0-0.3 0-0.3 0-0.5 0-0.1 0-0.3 0.1-0.2 0.1-0.4 0.2-0.2 0.1-0.3 0-0.2-0.1-0.4-0.2-0.2 0-0.3-0.1c-0.1 0.1-0.1 0.2-0.3 0.2q0 0 0-0.1c-0.2 0.2-0.3 0.4-0.5 0.6q-0.1 0.2-0.2 0.3-0.2 0.3-0.3 0.6 0 0-0.1-0.1c-0.1 0.1-0.1 0.1-0.1 0.2q-0.1 0.1-0.2 0.2 0 0 0 0.1zm-1.4-1.5q0 0 0 0 0 0 0 0 0 0 0 0zm0 0.1q0 0 0 0 0-0.1 0-0.1 0 0 0 0.1zm-1.1-1.3q0 0 0 0 0 0 0 0zm0.1-0.7q0 0 0 0 0 0 0 0zm0.7-0.6q0 0 0 0h-0.1q0.1 0 0.1 0zm6.2-2.2q0 0 0 0v-0.1q0 0 0 0 0 0 0-0.1 0 0.1 0 0.1 0 0 0 0 0 0 0 0.1 0 0 0 0zm0.2-0.5c-0.1 0.1-0.2 0.2-0.2 0.3q0.1-0.1 0.2-0.3zm-0.4 0.5q0 0 0 0 0 0 0 0zm-0.1 0q0 0 0 0 0 0 0 0zm-0.1 0.2q0 0 0 0 0 0 0 0zm-0.4 0.5q0 0 0 0-0.1 0.1-0.1 0.1 0 0.1-0.1 0.1 0 0 0 0 0 0 0.1 0 0 0 0-0.1 0.1 0 0.1-0.1 0 0 0 0zm-0.2 0.3q0 0 0 0 0-0.1 0-0.1 0 0 0 0.1zm-0.6 1.3q0 0 0 0 0 0 0 0 0 0 0 0 0 0 0 0 0 0 0 0 0 0 0 0zm-0.1 0q0 0 0 0 0.1 0.1 0.1 0.1 0 0 0-0.1 0 0-0.1 0zm0.1 0.1q0 0 0 0 0 0 0 0zm0.1 0.2q0 0 0 0 0 0 0 0zm0.5 0.3q0 0 0 0 0 0 0 0zm-2.6 2q0 0 0 0zm-2.5-2q0 0.1 0 0.1 0 0 0 0 0 0 0-0.1 0 0 0 0 0 0 0 0zm0 0q0 0 0 0 0 0 0 0 0 0 0 0 0 0 0 0zm0.1 0q0 0 0 0-0.1 0-0.1 0 0.1 0 0.1 0zm3-0.1q0 0 0 0 0 0 0 0 0 0 0 0 0 0 0 0zm-0.1 0.2c0.1-0.1 0.1-0.2 0.1-0.2q-0.2 0.1-0.1 0.2zm1.8-0.2q0 0 0 0 0 0.1 0.1 0.1-0.1 0-0.1-0.1 0 0 0 0zm-2.9-2.1q0 0 0 0 0 0 0 0zm1.2 1.3q0 0 0 0v-0.1zm0 0q0 0.1 0 0.1-0.1 0-0.2-0.1-0.1-0.1-0.2-0.2 0-0.1-0.1-0.1c0 0.1 0 0.1 0.1 0.2q0 0.2 0.2 0.4 0-0.1 0-0.1 0.1 0 0.2 0.1 0-0.1 0-0.2 0 0 0-0.1 0 0 0 0zm0 0q0 0 0 0 0 0 0 0 0 0 0 0 0 0 0 0zm1.5-2.2q0 0 0 0 0 0 0 0zm-3.1 4.5q0 0 0 0 0 0 0 0 0 0 0 0.1 0 0 0 0 0-0.1 0-0.1zm0 0.1c0 0 0 0.1 0.1 0.1 0.1-0.1 0.1-0.2 0.1-0.3q-0.1-0.1-0.2-0.2 0 0.2 0 0.4 0 0 0 0zm4.5-4.6q0 0 0 0 0 0 0 0 0 0 0 0.1 0 0 0-0.1zm0 0.1q0 0 0 0 0 0 0 0zm0.1-0.1h-0.1q0 0 0 0 0 0 0.1 0zm-3.4 0.4q0 0 0 0 0 0 0 0zm0-0.1q0 0 0 0 0 0 0 0.1 0-0.1 0-0.1zm0-0.3q0 0 0 0 0 0 0 0zm-0.1-0.1c0 0.1 0 0.1 0.1 0.1 0-0.1 0-0.1-0.1-0.1zm-0.5-0.3q0 0 0 0 0 0 0 0zm-0.2-0.2q0 0 0 0 0 0 0 0zm0.2 0.2q-0.1-0.1-0.2-0.2 0.1 0.2 0.2 0.2zm1.8 1.4c0.1-0.1 0.2-0.2 0.3-0.3-0.2 0.1-0.4 0.2-0.5 0.3q0.1 0.1 0.1 0.1-0.1 0.1 0.1 0.2 0.1-0.2 0-0.3zm-1.4 1c-0.1-0.1-0.1-0.1-0.2 0-0.1 0-0.2 0.1-0.2 0.2q0 0.1-0.1 0.2c0-0.1 0-0.2-0.1-0.2q-0.1 0-0.1 0c-0.1 0.2-0.2 0.4 0 0.5q0.1 0 0.2 0 0 0.1-0.1 0.1 0 0.1-0.1 0.1 0 0 0 0 0 0 0 0.1c0 0.2 0.2 0.3 0.4 0.3q0.1 0 0.2 0 0.1 0.1 0.2 0 0-0.1 0.1-0.1 0.1-0.2 0.2-0.3 0.1-0.1 0-0.2-0.1-0.2-0.3-0.5c0 0-0.1-0.1-0.1-0.2zm-0.6 0.2q0 0 0 0 0 0 0 0zm-0.1 1v-0.3c0 0.1 0 0.2 0 0.3zm0-0.3q0 0 0 0 0 0 0 0zm-0.7-0.1c0 0.1-0.1 0.1 0 0.1 0 0.1 0 0.1 0 0.1q-0.1 0.1-0.1 0.1c0.1 0.1 0.1 0.1 0.2 0q0.1-0.1-0.1-0.3zm0.7 1.6q0 0 0 0 0.1-0.1 0.2-0.2c0-0.1 0-0.1-0.1-0.2 0 0-0.1 0-0.1 0.1q0 0.1 0 0.3zm-0.8 0c0.1-0.4 0.1-0.4 0-0.5-0.1 0.1 0 0.3 0 0.5zm0.5-1.5q0 0 0 0v-0.1q0 0 0 0zm-0.3 2.3q0 0 0 0 0 0 0 0 0 0 0 0 0 0 0 0zm0.3-1.2q-0.1 0-0.1 0 0 0.1 0.1 0.1 0 0 0-0.1zm-0.4 0q0.1 0 0.1 0h-0.1q0 0 0 0zm-0.3 0.4q0 0-0.1 0 0 0 0.1 0.1 0 0 0 0 0-0.1 0-0.1zm2.5-1.6q0 0 0 0 0 0 0 0 0 0 0 0.1 0-0.1 0-0.1zm-2.1 1.9q0 0 0 0-0.1 0-0.1 0 0.1 0 0.1 0 0 0 0 0zm1.8-1.7h-0.1zm-2.3-0.9zm3.9-2zm0 0zm-4.3 5.2q0 0 0 0 0 0 0 0zm0 0q0 0 0 0 0 0 0 0 0 0 0 0 0 0 0 0zm2.3-5.5q0-0.1-0.1-0.1 0 0.1 0 0.1 0 0 0.1 0 0 0 0 0zm-1 3.3zm-1.2 1.7q0 0 0 0zm2.6-1.4v-0.1zm0-3zm-2.2-0.3q0 0 0 0 0 0 0 0 0 0 0 0zm4.2 3.3zm-0.1 0.1h0.1q0 0 0 0-0.1 0 0 0 0 0 0 0z"/>
	<path id="Layer" fill-rule="evenodd" class="s0" d="m87.6 10.6q-0.2 0.2-0.4 0.4-0.3 0.4-0.5 0.7-0.3 0.4-0.5 0.7-0.1 0.2-0.1 0.4 0 0 0 0.1 0.2-0.3 0.3-0.5 0.1-0.3 0.4-0.5c0 0.2-0.2 0.4-0.3 0.6q-0.1 0.1-0.1 0.2-0.1 0.1-0.2 0.3-0.1 0.1 0 0.2 0 0.1 0.1 0.3 0.2 0.3 0.4 0.6 0.1 0.1 0.1 0.2 0.2 0.3 0.3 0.5c0.1 0.1 0 0.2 0 0.2q0 0 0 0 0 0 0 0 0 0 0 0 0 0 0 0 0 0 0 0-0.1 0-0.2 0-0.1 0-0.2 0-0.1-0.1-0.1-0.2c-0.1 0.2-0.1 0.2-0.3 0.1q-0.3-0.1-0.6-0.1c-0.1 0-0.1-0.1-0.2-0.1q-0.1 0-0.2-0.1c-0.1-0.1-0.1-0.1-0.3 0q0 0-0.1 0 0 0 0 0 0 0 0 0-0.1 0.1-0.1 0.2 0 0 0 0 0 0 0 0-0.1 0.2-0.2 0.3c-0.1 0.2-0.2 0.4-0.3 0.6q-0.2 0.2-0.3 0.5 0 0.1 0 0.3 0.1-0.1 0.1-0.2c0.3 0.1 0.2 0.3 0.1 0.5q0-0.1-0.1-0.1 0 0-0.1 0.1-0.1-0.1-0.1-0.1 0 0 0 0 0 0-0.1 0.1c-0.1 0-0.1 0.2-0.2 0.3 0 0.1 0 0.1-0.1 0.1q-0.1 0.1-0.2 0.1c-0.1 0-0.2 0-0.3-0.1q-0.1-0.1-0.3-0.2c-0.1 0-0.2-0.2-0.2-0.3q0-0.1-0.1-0.1 0.1-0.4 0.2-0.8 0-0.1 0-0.1 0 0 0 0 0.2-0.2 0.3-0.5 0 0 0-0.1c-0.1-0.1-0.1-0.2-0.3-0.3q0 0 0 0.1c-0.1 0 0 0.1 0 0.2q0 0.2-0.1 0.3 0 0 0-0.1c0-0.4 0.1-0.7 0.1-1.1q0-0.2 0-0.3c0-0.2 0-0.2-0.2-0.2q-0.2 0-0.5 0c-0.2 0-0.3 0-0.4-0.1q0 0 0.1-0.1-0.1 0-0.1 0c-0.3-0.1-0.6-0.1-0.9-0.2q-0.2 0-0.5-0.1-0.2-0.1 0-0.3 0.4-0.4 0.9-0.7 0.8-0.5 1.6-1.1 0.3-0.2 0.3-0.4 0-0.2 0-0.4 0 0 0.1 0c0.1-0.1 0-0.5 0-0.8-0.1-0.1-0.1-0.1 0-0.2q0 0 0.1 0c0.1 0 0.1 0 0.1-0.1 0.1-0.1 0.2-0.1 0.3 0q0.2 0.3 0.6 0.3 0.1 0.1 0.1 0.1 0.1 0.1 0.1 0.2 0.1 0.1 0.3 0 0 0 0.1 0 0.5-0.3 0.9-0.6c0.3-0.2 0.7-0.4 1-0.5q0.2-0.1 0.4-0.2 0.2-0.1 0.5-0.1-0.1 0.1-0.1 0.1 0 0 0.1 0 0.1 0 0.2 0.1 0.2 0.1 0.3 0.2 0.2 0.1 0.3 0.2 0 0 0.1 0.1c0.1 0 0.1 0.1 0.1 0.2-0.1 0.3-0.2 0.6-0.5 0.8q0 0.1-0.1 0.2-0.1 0.1-0.2 0.1 0 0.1-0.1 0.2zm-0.8 1.3q0 0 0 0 0 0 0 0zm0.3 3.1q0 0 0 0 0 0 0 0 0 0 0 0zm-0.4 0q0 0 0 0 0 0 0 0zm-0.1-0.2q0 0 0 0 0 0 0 0zm-1.8 0q0 0 0 0 0 0 0 0zm-0.7 1.9q0 0 0 0 0 0 0 0 0 0 0 0 0 0 0 0zm0-0.3q0 0.2 0 0.3 0.1-0.1 0-0.3zm-1.5-0.8q0 0 0 0 0 0 0 0zm0.3-0.4q0 0 0 0 0 0 0 0 0 0 0 0 0 0 0 0zm0 0.1q0 0 0.1 0-0.1 0-0.1-0.1 0 0.1 0 0.1zm0-0.2q0 0 0 0 0 0 0 0 0 0 0 0zm0 0q0 0 0 0 0 0 0 0zm0.2-5.8q0 0 0 0 0 0 0 0zm5.2-0.3q0 0-0.1 0h0.1q0 0 0 0zm-0.7 1.6q0 0 0 0zm-0.5 4.4q0 0 0 0 0 0 0 0 0 0 0 0 0 0 0 0zm-4.2 0.1q0 0 0 0 0 0 0 0zm-0.9-2.8q0 0 0 0 0 0 0 0 0 0 0 0 0 0 0 0 0 0.1 0 0.1 0 0 0-0.1zm0.5-0.3q0.1 0 0.2-0.1 0 0 0 0 0 0 0 0 0 0 0 0-0.1 0.1-0.2 0.1-0.2 0.2-0.5 0.3c0.2 0 0.4-0.2 0.5-0.3zm-1.3 0.5q-0.1 0-0.1 0 0 0 0 0.1 0 0 0 0 0 0 0 0 0-0.1 0-0.1 0 0 0.1 0zm-0.5 0.3q0 0 0 0zm0.4-0.2q-0.3 0-0.4 0.2 0.2-0.1 0.4-0.2zm3.1 3h-0.1 0.1zm0.4-2.2zm-2.1-1.2q0 0 0 0zm0 0q0 0.1 0.1 0.1 0-0.1 0-0.1 0 0 0-0.1 0 0 0 0 0 0.1-0.1 0.1 0 0 0 0zm-0.5-0.3zm4-0.6q0 0 0 0 0 0 0 0 0 0 0 0 0 0 0 0zm-0.1 0.1q-0.2 0.2-0.4 0.5 0 0 0 0.1 0.1-0.1 0.1-0.1 0.2-0.2 0.3-0.4 0.1-0.1 0.1-0.2 0 0-0.1 0.1zm0.1-0.1q0 0 0 0 0 0 0 0 0 0 0 0zm-1-0.6q0 0 0 0 0 0 0 0zm0 0q0.2-0.2 0.4-0.3c0.2-0.2 0.4-0.3 0.6-0.4 0.2-0.1 0.3-0.2 0.3-0.3q-0.3 0.1-0.6 0.4c-0.3 0.1-0.6 0.3-0.8 0.5q-0.1 0 0 0.1 0 0 0.1 0 0 0 0 0 0 0 0 0zm-2.3 5.4q0 0 0 0 0 0 0 0 0 0 0 0zm0 0q0 0 0 0zm-0.1 0.1q0 0 0 0 0 0 0 0 0 0 0 0zm2.5-6.2q0 0 0 0 0 0 0 0zm-0.1 0.1q0.1-0.1 0.1-0.1-0.1 0-0.1 0.1zm0.8 1.6q0 0 0 0 0 0 0 0zm0.1-0.1q0.2-0.3 0.4-0.5-0.1 0-0.2 0.1 0 0.1-0.1 0.2-0.1 0.2-0.2 0.3 0.1 0 0.1-0.1zm0.4-0.5q0 0 0 0 0 0 0 0 0 0 0 0 0 0 0 0zm0.2-0.2q0.2-0.3 0.5-0.6 0.1-0.2 0.2-0.3-0.1 0-0.1 0-0.4 0.5-0.8 1 0 0 0 0.1 0.1-0.1 0.2-0.2zm-0.8 1q0 0 0 0 0 0 0.1-0.1-0.1 0.1-0.1 0.1 0 0 0 0zm-0.3-1q0 0 0 0 0 0 0 0zm0.2-0.2c-0.2 0-0.6 0.2-0.6 0.4q0.1-0.1 0.3-0.1-0.1 0.1-0.2 0.2c-0.1 0-0.1 0.1 0 0.2 0 0 0.1 0 0.1 0q0.1-0.2 0.2-0.4 0 0 0-0.1 0.1-0.1 0.2-0.2zm1 0.6q0 0 0 0zm0.1-0.2q0.5-0.5 0.9-1.1 0 0 0-0.1-0.1 0.1-0.1 0.1-0.4 0.6-0.9 1.2 0.1 0 0.1-0.1zm0.9-1.2q0 0 0 0 0 0 0 0zm-1 1.3q0 0.1 0 0.1 0 0 0-0.1zm-3.1 1.4q0 0 0 0zm-0.1 0.4c0 0.1 0 0.2 0.1 0.3 0.1-0.2 0.1-0.4 0.1-0.6 0-0.2 0.1-0.4 0-0.6q0 0.1-0.1 0.2-0.1 0.2 0 0.3-0.1 0.2-0.1 0.4zm-1.3 0q0 0 0 0 0 0 0 0zm0.2 0.1c0.1 0 0.2 0 0.2-0.1q0.1-0.2 0.1-0.3 0 0 0-0.1c0 0 0 0 0-0.1 0 0-0.1 0-0.1 0-0.3 0.1-0.5 0.2-0.7 0.4q-0.1 0-0.1 0.1 0.2 0 0.4-0.1 0.1 0 0.1 0 0 0 0 0 0 0 0 0 0 0 0 0 0 0-0.1 0.1c0.1 0 0.1 0 0.2 0.1zm0.3-0.5q0 0 0 0 0 0 0 0zm0.8 1.3q-0.1 0.1-0.1 0.3 0.1-0.1 0.2-0.2 0-0.1-0.1-0.1zm-0.4-3.5q0 0 0 0v-0.2q0 0 0 0zm-1.2 3.2q0 0 0-0.1 0 0 0 0 0 0-0.1 0.1 0.1 0 0.1 0zm0.9-0.7q0 0 0 0v-0.1q0 0 0 0 0 0.1 0 0.1zm1.5 2.4h0.1v-0.1q0 0 0 0-0.1 0-0.1 0.1zm-1.9-1.7q0 0 0 0 0-0.1 0-0.1 0 0 0 0 0 0.1 0 0.1zm0.3 1q0 0 0 0 0 0 0 0 0 0-0.1 0 0.1 0 0.1 0zm0.1 0q0 0 0 0 0 0 0-0.1 0 0 0 0 0 0.1 0 0.1zm-0.2 1.8q0 0 0 0 0 0 0 0 0 0 0 0.1 0-0.1 0-0.1zm0.3-2q0 0 0 0 0 0 0 0 0 0 0 0 0 0 0 0zm1.4-1.7zm-1.5 2.1q0 0 0.1 0-0.1 0-0.1 0 0 0 0 0zm0.1 1zm1.2-0.3zm-1.4-4.1zm0 0zm0.2 4.5zm-0.8-4.1h0.1zm2.7-1.3zm-1.9 4.3zm-1.7-2.4z"/>
	<path id="Layer" fill-rule="evenodd" class="s0" d="m185.8 31.9q0 0-0.1 0.1 0 0-0.1 0-0.1 0.1-0.2 0.1 0 0.1 0 0.1h-0.1c-0.1 0-0.1 0.1-0.2 0.1q0 0-0.1 0-0.1 0.1-0.2 0.2-0.1 0-0.1 0.1c0 0 0 0.1 0 0.1q0 0 0 0 0.1 0.1 0 0.2c-0.4 0.2-0.7 0.6-1.2 0.7-0.2 0.1-0.4 0.2-0.6 0.1q0.1-0.1 0.2-0.2 0-0.1 0-0.1-0.1 0.1-0.2 0.1 0 0.1-0.1 0-0.2-0.1-0.3 0-0.1 0.1-0.2 0-0.1 0-0.1 0c-0.1 0-0.1-0.1-0.2-0.2q-0.1 0.1-0.3 0.1 0.1-0.1 0.1-0.1c0.1 0 0.2-0.1 0.3-0.2 0.3-0.3 0.3-0.7 0.4-1.1q0.3-0.6 0.5-1.3 0 0 0 0c0.1-0.2 0-0.2-0.2-0.3q-0.5 0-0.9-0.2c-0.2-0.1-0.4-0.1-0.6-0.2-0.3-0.1-0.3-0.1-0.3-0.4q0-0.1 0.1-0.1 0.1 0 0.2-0.1 0.4-0.1 0.9-0.3 0.7-0.1 1.4-0.3 0.2 0 0.2-0.1 0.1-0.1 0.1-0.2 0.1-0.2 0.1-0.3 0.2-0.3 0.4-0.7 0.1-0.3 0.4-0.4 0.1-0.1 0.3 0 0.2 0.1 0.5 0.2c0.3 0 0.5 0.2 0.6 0.3q0.3 0.2 0.3 0.4 0.1 0.1 0.1 0.1c0.1 0.2 0.3 0.3 0.5 0.3 0.3 0 0.6 0 0.8 0q0.4 0 0.8 0.2 0.1 0.1 0.4 0.2 0.2 0.1 0.3 0.2 0.2 0.1 0.3 0.2 0.2 0.1 0.1 0.2-0.2 0.3-0.5 0.5-0.4 0.3-0.8 0.5-0.1 0.1-0.3 0.2 0 0-0.1 0.1c-0.1 0.1-0.1 0.2 0 0.3q0.3-0.1 0.6-0.2-0.2 0.1-0.4 0.2c-0.1 0.1-0.1 0.1-0.1 0.2q0.1 0.2 0.2 0.4 0.1 0.2 0.2 0.4c-0.1 0.1-0.3 0-0.5 0q0.1 0.1 0.1 0.1-0.1 0-0.3 0-0.3-0.2-0.7-0.3 0 0 0 0-0.3 0-0.6 0-0.1 0-0.2 0 0 0 0-0.1-0.1 0.1-0.3 0.2 0-0.1 0-0.1-0.1 0.1-0.2 0.1 0 0-0.1 0zm-0.1 0.1q0 0 0 0 0 0 0 0zm-1 0.6q0 0 0 0 0 0 0 0zm0 0.1q0 0 0 0 0 0 0 0 0 0 0 0zm1.5-5.1q0 0 0 0 0 0 0 0 0 0 0 0 0 0 0 0zm2.5 3.2q0 0 0-0.1 0 0.1 0 0.1zm-2.3 1q0 0 0 0 0 0 0 0zm-0.3 0.1q0 0 0 0 0 0 0 0zm-1.4 0.1q0 0 0 0zm0 0q0 0.1 0 0.1 0 0 0 0 0 0 0 0 0 0 0 0 0 0 0-0.1zm0 0.1q0 0 0 0 0 0 0 0 0 0 0 0zm-0.2 0.1q0 0 0 0 0 0 0 0 0 0 0 0 0 0 0 0zm-0.2 0.1q-0.2 0.1-0.4 0.3 0.1 0 0.2 0c0.1-0.1 0.3-0.2 0.4-0.4q-0.1 0.1-0.2 0.1zm-0.4 0.3q0 0 0 0 0 0 0 0 0 0 0 0 0 0 0 0zm0 0.1q0-0.1 0-0.1c0 0-0.1 0 0 0.1zm-1.4-0.1q0 0 0 0 0 0 0 0 0 0 0 0 0 0 0 0zm-0.1 0.1q0 0 0 0 0 0 0.1-0.1-0.1 0.1-0.1 0.1zm2.1 0q0 0 0 0zm0 0q0 0 0 0-0.1 0-0.1 0.1 0-0.1 0.1-0.1 0 0 0 0zm-0.4-1.7zm0 2.1zm0.7-4.7q0 0 0 0.1 0-0.1 0-0.1zm-0.4 1.4q0 0 0 0 0 0 0 0zm0.1 0.1q0 0 0 0-0.1-0.1-0.1-0.1 0 0.1 0.1 0.1zm-0.4 3q0 0 0.1 0-0.1 0-0.1 0zm0 0q0.1 0 0 0 0 0 0 0zm0 0q0.1 0 0 0 0 0 0 0zm-0.6-2q0 0 0 0 0 0 0 0 0 0 0 0 0 0 0 0zm-0.1 0q0 0.1 0 0.1 0.1-0.1 0.1-0.1 0 0-0.1 0zm0.1 0.1c0.1-0.1 0.1-0.1 0-0.1q0 0 0 0.1zm0.6 0.7q0 0 0 0 0 0 0 0 0 0 0 0 0 0 0 0zm0-0.2q0 0.1 0 0.2c0.1-0.1 0.1-0.1 0-0.2zm0 0.2q0 0 0 0 0 0 0 0 0 0 0 0zm-0.8-0.2q0 0 0 0 0 0 0 0 0 0 0 0 0 0 0 0zm-0.1 0.3q0 0 0.1 0 0-0.1 0-0.3c0 0.1-0.1 0.2-0.1 0.3zm0.7-0.2q0 0 0 0 0 0 0 0zm-0.1 0.3q0 0 0 0 0-0.2 0.1-0.3c-0.1 0.1-0.1 0.2-0.1 0.3zm1.2-2.3q0 0.1-0.1 0.1 0 0.1 0 0.2c0.1-0.1 0.1-0.2 0.1-0.3zm-0.1 0.3q0 0 0 0 0 0 0 0 0 0 0 0 0 0 0 0zm-0.2 0.1q0 0 0 0 0 0 0 0 0 0 0 0 0 0 0 0zm0.1-0.3c-0.1 0.1-0.2 0.3-0.2 0.4q0.1-0.1 0.1-0.1 0.1-0.2 0.1-0.3zm-0.1 0.5c0.2-0.1 0.2-0.2 0.2-0.3q-0.1 0-0.2 0.1c0 0.1 0 0.1 0 0.2zm-1.2 2.7q0 0 0 0 0 0 0 0zm-0.1 0.1c0.2-0.1 0.2-0.2 0.3-0.3q-0.1 0.1-0.2 0.2-0.1 0-0.1 0.1zm1.4-1.8q0 0 0 0 0 0 0 0zm0.1 0c0.1 0 0.1-0.1 0.1-0.1 0-0.1-0.1-0.1-0.1-0.2-0.1 0-0.2 0-0.2 0q-0.2 0.3-0.2 0.6 0.1-0.1 0.2-0.2 0.1-0.1 0.1-0.1 0 0 0.1 0zm0.9-1.2q0-0.1 0-0.1-0.1-0.1-0.1-0.2-0.1-0.1-0.1-0.1-0.2-0.3-0.4-0.1 0 0.1 0 0.1-0.1 0.3-0.2 0.5-0.1 0.1-0.1 0.2 0.2 0.1 0.3 0.2 0.2 0 0.4 0.1 0.1 0 0.1 0c0.2 0 0.3-0.2 0.2-0.3q0-0.2-0.1-0.3zm-0.2 0.6q0 0 0 0zm2.3-1.3q-0.1-0.1-0.2-0.1-0.2 0-0.4 0.1c0 0-0.1 0-0.1 0.1q0.1 0.1 0.2 0.2c0 0 0 0 0 0 0-0.1 0.1-0.1 0.2-0.1 0.1-0.1 0.2-0.1 0.3-0.2zm-5 4c0.1 0 0.2-0.1 0.3-0.2q0 0 0.1-0.1c-0.2 0-0.4 0.1-0.4 0.3zm0.3-2.1q0 0 0 0c-0.1 0.1-0.1 0.3-0.1 0.4q0.1-0.2 0.1-0.4zm-0.1-1.3q0 0 0 0 0.1 0 0.1 0.1 0-0.1 0-0.1 0 0-0.1 0zm1.2 2.9q0 0 0 0 0 0 0 0zm0-0.1q-0.1 0-0.1 0.1 0 0 0 0 0.1 0 0.1 0 0-0.1 0-0.1zm-0.4-1.3q0 0 0 0zm0 0.1q0-0.1 0-0.1 0 0 0 0 0 0 0 0zm0.1-0.3q0 0 0 0 0 0 0 0zm-0.1 0q0 0.1 0.1 0.1 0 0 0-0.1-0.1 0-0.1 0zm-0.6 2.2q0 0-0.1 0 0.1 0 0.1 0 0 0 0 0 0 0 0 0zm2.8-1.6q0 0 0 0 0 0 0 0 0 0 0 0 0 0 0 0zm-2.5 1.4q0 0 0 0 0 0 0 0 0 0 0 0 0 0 0 0zm-0.1 0.1zm0.7-1.9zm-0.5 0zm0.5-1.3zm-0.6 0.7zm4.3 0.6v0.1-0.1z"/>
</svg>