<svg width="28" height="28" viewBox="0 0 28 28" fill="none" xmlns="http://www.w3.org/2000/svg">
<path d="M17.9088 6.475C17.0223 6.47485 16.1712 6.82264 15.5385 7.44358C14.9057 8.06452 14.542 8.90898 14.5255 9.79533L14.4928 11.6328C14.4911 11.7316 14.4685 11.8289 14.4264 11.9182C14.3844 12.0076 14.3239 12.0871 14.249 12.1515C14.1741 12.2158 14.0864 12.2636 13.9917 12.2916C13.897 12.3197 13.7974 12.3274 13.6995 12.3142L11.8772 12.0657C9.482 11.739 7.186 10.6365 4.98217 8.80133C4.28567 12.663 5.64717 15.3382 8.929 17.402L10.9672 18.683C11.0638 18.7438 11.1442 18.8273 11.2011 18.9263C11.2581 19.0253 11.29 19.1367 11.294 19.2509C11.2981 19.365 11.2741 19.4784 11.2242 19.5811C11.1744 19.6839 11.1001 19.7729 11.008 19.8403L9.15067 21.1983C10.2555 21.2683 11.3043 21.2193 12.1747 21.0467C17.679 19.9477 21.3388 15.806 21.3388 8.974C21.3388 8.41633 20.157 6.475 17.9088 6.475ZM12.1922 9.75333C12.2125 8.62873 12.5642 7.53512 13.2032 6.60943C13.8421 5.68374 14.7399 4.96711 15.7842 4.54926C16.8285 4.13142 17.9729 4.03093 19.074 4.26037C20.1752 4.48982 21.1842 5.039 21.9747 5.83917C22.8042 5.83333 23.51 6.04334 25.0873 5.0855C24.6977 6.99884 24.504 7.83067 23.6722 8.97284C23.6722 17.8873 18.1923 22.2238 12.6308 23.3333C8.81933 24.094 3.27417 22.8445 1.6875 21.1843C2.496 21.1225 5.786 20.769 7.68767 19.376C6.07767 18.3143 -0.325 14.546 3.88317 4.417C5.85833 6.7235 7.8615 8.29267 9.8915 9.12683C11.2413 9.681 11.5738 9.66933 12.1933 9.7545L12.1922 9.75333Z" fill="white"/>
</svg>
