<svg width="28" height="28" viewBox="0 0 28 28" fill="none" xmlns="http://www.w3.org/2000/svg">
<path d="M22.2259 5.72832C21.1563 4.6479 19.8823 3.79127 18.4782 3.20838C17.074 2.62549 15.5679 2.32803 14.0476 2.33332C7.67758 2.33332 2.48591 7.52499 2.48591 13.895C2.48591 15.9367 3.02258 17.92 4.02591 19.67L2.39258 25.6667L8.51758 24.0567C10.2092 24.9783 12.1109 25.4683 14.0476 25.4683C20.4176 25.4683 25.6092 20.2767 25.6092 13.9067C25.6092 10.815 24.4076 7.90999 22.2259 5.72832ZM14.0476 23.5083C12.3209 23.5083 10.6292 23.0417 9.14758 22.1667L8.79758 21.9567L5.15758 22.9133L6.12591 19.3667L5.89258 19.005C4.93328 17.4731 4.42391 15.7024 4.42258 13.895C4.42258 8.59832 8.73924 4.28165 14.0359 4.28165C16.6026 4.28165 19.0176 5.28499 20.8259 7.10499C21.7213 7.99628 22.4309 9.05643 22.9135 10.224C23.3962 11.3915 23.6423 12.6433 23.6376 13.9067C23.6609 19.2033 19.3442 23.5083 14.0476 23.5083ZM19.3209 16.3217C19.0292 16.1817 17.6059 15.4817 17.3492 15.3767C17.0809 15.2833 16.8942 15.2367 16.6959 15.5167C16.4976 15.8083 15.9492 16.4617 15.7859 16.6483C15.6226 16.8467 15.4476 16.87 15.1559 16.7183C14.8642 16.5783 13.9309 16.2633 12.8342 15.2833C11.9709 14.5133 11.3992 13.5683 11.2242 13.2767C11.0609 12.985 11.2009 12.8333 11.3526 12.6817C11.4809 12.5533 11.6442 12.3433 11.7842 12.18C11.9242 12.0167 11.9826 11.8883 12.0759 11.7017C12.1692 11.5033 12.1226 11.34 12.0526 11.2C11.9826 11.06 11.3992 9.63665 11.1659 9.05332C10.9326 8.49332 10.6876 8.56332 10.5126 8.55165H9.95258C9.75424 8.55165 9.45091 8.62165 9.18258 8.91332C8.92591 9.20499 8.17924 9.90499 8.17924 11.3283C8.17924 12.7517 9.21758 14.1283 9.35758 14.315C9.49758 14.5133 11.3992 17.43 14.2926 18.6783C14.9809 18.9817 15.5176 19.1567 15.9376 19.285C16.6259 19.5067 17.2559 19.4717 17.7576 19.4017C18.3176 19.32 19.4726 18.7017 19.7059 18.025C19.9509 17.3483 19.9509 16.7767 19.8692 16.6483C19.7876 16.52 19.6126 16.4617 19.3209 16.3217Z" fill="white"/>
</svg>
